<?xml version="1.0" encoding="UTF-8" standalone="no"?>
<svg
   width="30.48mm"
   height="128.5mm"
   viewBox="0 0 86.405117 364.25"
   version="1.1"
   id="svg192"
   sodipodi:docname="BWAVP.svg"
   inkscape:version="1.4.2 (ebf0e940, 2025-05-08)"
   xml:space="preserve"
   xmlns:inkscape="http://www.inkscape.org/namespaces/inkscape"
   xmlns:sodipodi="http://sodipodi.sourceforge.net/DTD/sodipodi-0.dtd"
   xmlns="http://www.w3.org/2000/svg"
   xmlns:svg="http://www.w3.org/2000/svg"><defs
     id="defs192" /><sodipodi:namedview
     id="namedview192"
     pagecolor="#ffffff"
     bordercolor="#666666"
     borderopacity="1.0"
     inkscape:showpageshadow="2"
     inkscape:pageopacity="0.0"
     inkscape:pagecheckerboard="0"
     inkscape:deskcolor="#d1d1d1"
     inkscape:document-units="mm"
     inkscape:zoom="2.3070814"
     inkscape:cx="51.363597"
     inkscape:cy="296.47848"
     inkscape:window-width="1600"
     inkscape:window-height="1027"
     inkscape:window-x="67"
     inkscape:window-y="251"
     inkscape:window-maximized="0"
     inkscape:current-layer="faceplate"
     showguides="false"
     showgrid="false"
     showborder="true" /><g
     id="faceplate"><g
       id="g1"
       transform="matrix(0.42832743,0,0,1,0.0743197,0)"><rect
         x="0"
         y="0"
         width="201.61807"
         height="363.98999"
         style="fill:#ededed;stroke-width:0px"
         id="rect1" /></g><rect
       x="7.4673429"
       y="230.56224"
       width="71.470428"
       height="95.500786"
       rx="7.4900393"
       ry="9.1380243"
       style="stroke:#000000;stroke-width:1.01709"
       id="rect2" /><text
       transform="scale(0.93808314,1.0660036)"
       style="font-weight:700;font-size:8.44275px;font-family:GillSans-Bold, 'Gill Sans';letter-spacing:-0.04em;fill:#ffffff;stroke-width:0.938083"
       id="text15"
       x="35.875458"
       y="299.92044"><tspan
         x="35.875458"
         y="299.92044"
         id="tspan15"
         style="stroke-width:0.938083">OUT</tspan></text><text
       style="font-weight:700;font-size:8.44275px;font-family:GillSans-Bold, 'Gill Sans';letter-spacing:-0.04em;fill:#ededed;fill-opacity:1;stroke-width:0.938083"
       id="text16"
       x="61.715683"
       y="299.92044"
       transform="scale(0.93808314,1.0660036)"><tspan
         x="61.715683"
         y="299.92044"
         id="tspan16"
         style="fill:#ededed;fill-opacity:1;stroke-width:0.938083">R</tspan></text><text
       style="font-weight:700;font-size:8.44275px;font-family:GillSans-Bold, 'Gill Sans';letter-spacing:-0.04em;fill:#ededed;fill-opacity:1;stroke-width:0.938083"
       id="text17"
       x="23.425568"
       y="299.92044"
       transform="scale(0.93808314,1.0660036)"><tspan
         x="23.425568"
         y="299.92044"
         id="tspan17"
         style="fill:#ededed;fill-opacity:1;stroke-width:0.938083">L</tspan></text><text
       transform="scale(0.93808314,1.0660036)"
       style="font-weight:700;font-size:8.44275px;font-family:GillSans-Bold, 'Gill Sans';letter-spacing:-0.04em;stroke-width:0.938083"
       id="text30-1"
       x="55.054874"
       y="168.4073"><tspan
         x="55.054874"
         y="168.4073"
         id="tspan30-7"
         style="stroke-width:0.938083">Loop</tspan></text><text
       transform="scale(0.93808314,1.0660036)"
       style="font-weight:700;font-size:8.44275px;font-family:GillSans-Bold, 'Gill Sans';letter-spacing:-0.04em;stroke-width:0.938083"
       id="text30-1-8"
       x="55.054874"
       y="210.32687"><tspan
         x="55.054874"
         y="210.32687"
         id="tspan30-7-1"
         style="stroke-width:0.938083">Loop</tspan></text><text
       style="font-style:normal;font-variant:normal;font-weight:600;font-stretch:normal;font-size:9.00053px;font-family:'Gill Sans';-inkscape-font-specification:'Gill Sans, Semi-Bold';font-variant-ligatures:normal;font-variant-caps:normal;font-variant-numeric:normal;font-variant-east-asian:normal;letter-spacing:-0.04em;stroke-width:0.938083"
       id="text31"
       x="11.860651"
       y="258.94376"
       transform="scale(0.93808314,1.0660036)"><tspan
         x="11.860651"
         y="258.94376"
         id="tspan31"
         style="font-style:normal;font-variant:normal;font-weight:600;font-stretch:normal;font-size:9.00053px;font-family:'Gill Sans';-inkscape-font-specification:'Gill Sans, Semi-Bold';font-variant-ligatures:normal;font-variant-caps:normal;font-variant-numeric:normal;font-variant-east-asian:normal;fill:#ededed;fill-opacity:1;stroke-width:0.938083">Play Gate</tspan></text><text
       transform="scale(0.93808314,1.0660036)"
       style="font-weight:700;font-size:8.44275px;font-family:GillSans-Bold, 'Gill Sans';letter-spacing:-0.04em;stroke-width:0.938083"
       id="text33"
       x="14.952055"
       y="168.4073"><tspan
         x="14.952055"
         y="168.4073"
         id="tspan33"
         style="stroke-width:0.938083">PLAY</tspan></text><text
       transform="scale(0.93808314,1.0660036)"
       style="font-weight:700;font-size:6.61956px;font-family:GillSans-Bold, 'Gill Sans';letter-spacing:-0.04em;stroke-width:0.735507"
       id="text33-0"
       x="53.688454"
       y="128.03603"><tspan
         x="53.688454"
         y="128.03603"
         id="tspan33-2"
         style="font-style:normal;font-variant:normal;font-weight:normal;font-stretch:normal;font-size:6.61956px;font-family:'Gill Sans';-inkscape-font-specification:'Gill Sans, Normal';font-variant-ligatures:normal;font-variant-caps:normal;font-variant-numeric:normal;font-variant-east-asian:normal;stroke-width:0.735507">Disk</tspan></text><text
       style="font-style:normal;font-variant:normal;font-weight:600;font-stretch:normal;font-size:9.00053px;font-family:'Gill Sans';-inkscape-font-specification:'Gill Sans, Semi-Bold';font-variant-ligatures:normal;font-variant-caps:normal;font-variant-numeric:normal;font-variant-east-asian:normal;letter-spacing:-0.04em;stroke-width:0.938083"
       id="text5-8"
       x="58.141674"
       y="259.01096"
       transform="scale(0.93808314,1.0660036)"><tspan
         x="58.141674"
         y="259.01096"
         id="tspan5-3"
         style="font-style:normal;font-variant:normal;font-weight:600;font-stretch:normal;font-size:9.00053px;font-family:'Gill Sans';-inkscape-font-specification:'Gill Sans, Semi-Bold';font-variant-ligatures:normal;font-variant-caps:normal;font-variant-numeric:normal;font-variant-east-asian:normal;fill:#ededed;fill-opacity:1;stroke-width:0.938083">End</tspan></text><text
       transform="scale(0.93808314,1.0660036)"
       style="font-weight:700;font-size:8.44275px;font-family:GillSans-Bold, 'Gill Sans';letter-spacing:-0.04em;stroke-width:0.938083"
       id="text33-8"
       x="14.952055"
       y="210.32687"><tspan
         x="14.952055"
         y="210.32687"
         id="tspan33-6"
         style="stroke-width:0.938083">PLAY</tspan></text><text
       transform="scale(0.90553849,1.1043153)"
       style="font-style:normal;font-variant:normal;font-weight:bold;font-stretch:normal;font-size:9.50056px;font-family:GillSans-Bold, 'Gill Sans';-inkscape-font-specification:'GillSans-Bold, Gill Sans, Bold';font-variant-ligatures:normal;font-variant-caps:normal;font-variant-numeric:normal;font-variant-east-asian:normal;stroke-width:0.905538"
       id="text79"
       x="17.748617"
       y="307.88101"><tspan
         sodipodi:role="line"
         id="tspan1"
         x="17.748617"
         y="307.88101">BASIC WAV</tspan></text><text
       transform="scale(0.90553849,1.1043153)"
       style="font-style:normal;font-variant:normal;font-weight:bold;font-stretch:normal;font-size:9.50056px;font-family:GillSans-Bold, 'Gill Sans';-inkscape-font-specification:'GillSans-Bold, Gill Sans, Bold';font-variant-ligatures:normal;font-variant-caps:normal;font-variant-numeric:normal;font-variant-east-asian:normal;stroke-width:0.905538"
       id="text79-1"
       x="27.406902"
       y="319.57288"><tspan
         sodipodi:role="line"
         id="tspan1-5"
         x="27.406902"
         y="319.57288">PLAYER</tspan></text><g
       id="g81"
       transform="matrix(0.78542749,0,0,0.78542749,-69.942854,6.0558038)"><path
         d="m 150.73,8.93 c 0,0 -4.37,5.55 -6.92,8.79 v -7.53 c 0,-0.65 -0.32,-1.23 -0.8,-1.47 -0.49,-0.24 -1.05,-0.09 -1.41,0.37 l -9.09,11.56 c -0.49,0.63 -0.48,1.63 0.04,2.24 0.51,0.6 1.33,0.59 1.82,-0.04 0,0 4.34,-5.51 6.87,-8.73 v 7.53 c 0,0.65 0.32,1.23 0.81,1.47 0.49,0.24 1.05,0.1 1.41,-0.37 0,0 4.37,-5.56 6.91,-8.79 v 7.69 c 0,0.88 0.57,1.58 1.29,1.58 0.72,0 1.29,-0.71 1.29,-1.58 V 10.04 c 0,-0.65 -0.32,-1.23 -0.81,-1.47 -0.49,-0.24 -1.04,-0.1 -1.41,0.37 z"
         style="stroke:#000000;stroke-width:0.96px"
         id="path79" /><path
         d="m 132.5,8.84 -6.02,7.66 c -0.5,0.63 -0.48,1.63 0.03,2.24 0.52,0.61 1.33,0.59 1.83,-0.04 0,0 2.03,-2.58 3.81,-4.84 v 7.88 c 0,0.87 0.57,1.58 1.29,1.58 0.72,0 1.29,-0.71 1.29,-1.58 V 9.94 c 0,-0.65 -0.32,-1.23 -0.81,-1.47 -0.49,-0.24 -1.05,-0.09 -1.41,0.37 z"
         style="stroke:#000000;stroke-width:0.96px"
         id="path80" /><path
         d="m 161.18,14.49 c -0.2,-0.58 -0.67,-0.96 -1.19,-0.96 h -2.63 l 1.92,-2.44 c 0,0 1,-1.47 0.11,-2.27 -0.88,-0.81 -1.97,0.08 -1.97,0.08 l -4.03,5.12 c -0.36,0.46 -0.46,1.13 -0.26,1.72 0.2,0.58 0.67,0.96 1.19,0.96 h 2.63 l -3.12,3.96 c 0,0 -1.29,1.41 -0.34,2.36 0.96,0.96 2.2,-0.17 2.2,-0.17 l 5.22,-6.64 c 0.36,-0.46 0.46,-1.13 0.26,-1.72 z"
         style="stroke:#000000;stroke-width:0.96px"
         id="path81" /></g><rect
       id="Screen"
       x="6.2722497"
       y="31.447901"
       width="73.860619"
       height="95.816208"
       style="stroke-width:0px" /><text
       xml:space="preserve"
       style="font-style:normal;font-weight:normal;font-size:30.0018px;line-height:1.25;font-family:sans-serif;fill:#000000;fill-opacity:1;stroke:none;stroke-width:0.750044"
       x="173.63173"
       y="329.53284"
       id="text195"><tspan
         sodipodi:role="line"
         id="tspan195"
         style="stroke-width:0.750044"
         x="173.63173"
         y="329.53284" /></text></g><g
     id="components"
     style="display:inline"><circle
       id="BusyLight"
       data-name="Busy Light#RedLight"
       cx="43.202557"
       cy="134.10773"
       r="4.25"
       style="fill:#ff00ff;stroke-width:0px" /><circle
       id="End_Out"
       data-name="End Out"
       cx="61.274387"
       cy="249.48567"
       r="11.34"
       style="display:inline;fill:#0000ff;stroke-width:0px" /><circle
       id="Play Gate Out"
       data-name="Play Gate Out"
       cx="24.684095"
       cy="249.48567"
       r="11.34"
       style="fill:#0000ff;stroke-width:0px" /><circle
       id="Right_Out"
       data-name="Right Out"
       cx="61.274387"
       cy="294.82184"
       r="11.34"
       style="fill:#0000ff;stroke-width:0px" /><circle
       id="Left_Out"
       data-name="Left Out"
       cx="25.130732"
       cy="294.53891"
       r="11.34"
       style="fill:#0000ff;stroke-width:0px" /><circle
       id="Loop_Gate_In"
       data-name="Loop Gate"
       cx="61.274387"
       cy="198.04698"
       r="11.34"
       style="fill:#80ff80;stroke-width:0px" /><circle
       id="Play_Trig"
       data-name="Play Trig"
       cx="25.130732"
       cy="198.04698"
       r="11.34"
       style="fill:#80ff80;stroke-width:0px" /><circle
       id="LoopButton"
       data-name="Loop#OrangeButton"
       cx="61.467239"
       cy="153.59596"
       r="10.63"
       style="display:inline;fill:#ffc000;stroke-width:0px" /><circle
       id="Play_Button"
       data-name="Play#MomentaryRGB7mm"
       cx="26.19573"
       cy="153.59596"
       r="10.63"
       style="fill:#ffc000;stroke-width:0px" /><text
       id="slug"
       style="font-size:6px;font-family:MyriadPro-Regular, 'Myriad Pro';display:none"
       x="106.92887"
       y="6.466085">BWAVP</text><text
       id="modulename"
       style="font-size:6px;font-family:MyriadPro-Regular, 'Myriad Pro';display:none"
       x="92.681534"
       y="13.25922">Basic WAV Player</text><rect
       id="Message_TSPDisplay"
       data-name="Message#TSPDisplay"
       x="9.0559683"
       y="34.537945"
       width="67.937767"
       height="23.58786"
       style="fill:#ffff00;stroke-width:0px" /><rect
       id="WaveformDisplay"
       data-name="Waveform#GraphicDisplay"
       x="9.233675"
       y="58.125805"
       width="67.937767"
       height="66.39827"
       style="display:inline;fill:#ffff00;stroke-width:0px" /><rect
       id="LoadSample_LoadSample"
       data-name="Load Sample...@action#WavFileBrowseAction"
       x="19.761585"
       y="42.414013"
       width="7.4257388"
       height="12.094488"
       style="fill:#808080;stroke-width:0px" /><rect
       id="StartupDelay"
       data-name="Startup Delay (sec)@0@1@2@3@4@5@8@10@12@15@20@25@30"
       x="25.503193"
       y="42.414013"
       width="9.5456667"
       height="12.094488"
       style="display:inline;fill:#808080;stroke-width:0px" /><rect
       id="BufferStrategy"
       data-name="Buffer Strategy@Fill to threshold@Fill completely"
       x="25.503193"
       y="42.414013"
       width="9.5456667"
       height="12.094488"
       style="display:inline;fill:#808080;stroke-width:0px" /><rect
       id="MaxBufferSize"
       data-name="Max Buffer Size@1MB (5s 48kHz)@2MB (10s 48kHz)@4MB (21s 48kHz)@8MB (43s 48kHz)@16MB (1m27s 48kHz)@24MB (2m11s 48kHz)@32MB (2m54s 48kHz)@48MB (4m22s 48kHz)@64MB (5m49s 48kHz)@80MB (7m16s 48kHz)@96MB (8m44s 48kHz)@128MB (11m38s 48kHz)"
       x="25.503193"
       y="42.414013"
       width="9.5456667"
       height="12.094488"
       style="display:inline;fill:#808083;stroke-width:0px" /><rect
       id="PlaybackBufferThreshold"
       data-name="Playback Buffer Threshold"
       x="31.503193"
       y="42.414013"
       width="9.5456667"
       height="12.094488"
       style="display:inline;fill:#808040;stroke-width:0px" /><rect
       id="WaveformZoom"
       data-name="Waveform Zoom"
       x="47.053715"
       y="42.414013"
       width="9.5456667"
       height="12.094488"
       style="fill:#80801a" /><rect
       id="PlayTrigMode"
       data-name="Play Retrig Mode@Retrigger@Stop@Pause"
       x="61.526325"
       y="42.414013"
       width="9.8843842"
       height="12.094488"
       style="display:inline;fill:#808080;stroke-width:0px" /></g></svg>
