<?xml version="1.0" encoding="UTF-8" standalone="no"?>
<svg
   width="20.32mm"
   height="130.55mm"
   viewBox="0 0 57.6 370.07"
   version="1.1"
   id="svg22"
   sodipodi:docname="CLKD_info.svg"
   inkscape:version="1.4.2 (ebf0e940, 2025-05-08)"
   xmlns:inkscape="http://www.inkscape.org/namespaces/inkscape"
   xmlns:sodipodi="http://sodipodi.sourceforge.net/DTD/sodipodi-0.dtd"
   xmlns="http://www.w3.org/2000/svg"
   xmlns:svg="http://www.w3.org/2000/svg">
  <sodipodi:namedview
     id="namedview22"
     pagecolor="#ffffff"
     bordercolor="#666666"
     borderopacity="1.0"
     inkscape:showpageshadow="2"
     inkscape:pageopacity="0.0"
     inkscape:pagecheckerboard="0"
     inkscape:deskcolor="#d1d1d1"
     inkscape:document-units="mm"
     inkscape:zoom="0.80666406"
     inkscape:cx="37.810039"
     inkscape:cy="152.47983"
     inkscape:window-width="1312"
     inkscape:window-height="981"
     inkscape:window-x="49"
     inkscape:window-y="38"
     inkscape:window-maximized="0"
     inkscape:current-layer="text" />
  <defs
     id="defs2">
    <clipPath
       id="clippath">
      <rect
         x="14.91"
         y="33.17"
         width="27.78"
         height="25.51"
         style="fill: none; stroke-width: 0px;"
         id="rect1" />
    </clipPath>
    <clipPath
       id="clippath-1">
      <rect
         x="14.91"
         y="33.17"
         width="27.78"
         height="25.51"
         style="fill: none; stroke-width: 0px;"
         id="rect2" />
    </clipPath>
  </defs>
  <g
     id="faceplate">
    <g
       id="g3">
      <rect
         x=".13"
         y=".13"
         width="57.35"
         height="364"
         style="fill: #ededed; stroke-width: 0px;"
         id="rect3" />
      <path
         d="M57.35.25v363.75H.25V.25h57.1M57.6,0H0v364.25h57.6V0h0Z"
         style="fill: #9d9d9e; stroke-width: 0px;"
         id="path3" />
    </g>
    <path
       d="M28.8,200.84c8.05,0,14.59,6.08,14.59,13.54v109.18H14.21v-109.18c0-7.47,6.55-13.54,14.59-13.54M28.8,199.84c-8.61,0-15.59,6.51-15.59,14.54v110.18s31.18,0,31.18,0v-110.18c0-8.03-6.98-14.54-15.59-14.54h0Z"
       style="fill: #000; stroke-width: 0px;"
       id="path4" />
    <path
       d="M44.39,310.8c0-8.05-6.98-14.57-15.59-14.57s-15.59,6.53-15.59,14.57v5.36s0,0,0,0v19.77c0,3.11,2.55,5.65,5.67,5.65h19.84c3.12,0,5.67-2.54,5.67-5.65v-19.77s0,0,0,0v-5.35Z"
       style="fill: #000; stroke-width: 0px;"
       id="path5" />
    <g
       id="text">
      <text
         transform="scale(0.90553849,1.1043153)"
         style="font-weight:700;font-size:9.96092px;font-family:GillSans-Bold, 'Gill Sans';fill:#000000;stroke-width:0.905538"
         id="text5"
         x="16.873938"
         y="318.22348"><tspan
           x="16.873938"
           y="318.22348"
           id="tspan5"
           style="stroke-width:0.905538">CLKD</tspan></text>
      <text
         transform="translate(23.7 241.06) scale(.88 1)"
         style="fill: #000; font-family: GillSans-Bold, 'Gill Sans'; font-size: 8px; font-weight: 700; letter-spacing: -.04em;"
         id="text6"><tspan
           x="0"
           y="0"
           id="tspan6">CV</tspan></text>
      <text
         transform="translate(19.07 289.25) scale(.88 1)"
         style="fill: #000; font-family: GillSans-Bold, 'Gill Sans'; font-size: 8px; font-weight: 700; letter-spacing: -.04em;"
         id="text7"><tspan
           x="0"
           y="0"
           id="tspan7">Clk In</tspan></text>
      <text
         transform="translate(15.51 68.76) scale(.88 1)"
         style="fill: #000; font-family: GillSans-Bold, 'Gill Sans'; font-size: 10px; font-weight: 700; letter-spacing: -.04em;"
         id="text8"><tspan
           x="0"
           y="0"
           id="tspan8">Divide</tspan></text>
      <text
         transform="translate(19.34 337.44) scale(.88 1)"
         style="fill: #fff; font-family: GillSans-Bold, 'Gill Sans'; font-size: 8px; font-weight: 700; letter-spacing: -.04em;"
         id="text9"><tspan
           x="0"
           y="0"
           id="tspan9">Clock</tspan></text>
    </g>
    <g
       id="pips_-_fewest"
       data-name="pips - fewest">
      <g
         style="clip-path: url(#clippath);"
         clip-path="url(#clippath)"
         id="g19">
        <g
           style="clip-path: url(#clippath-1);"
           clip-path="url(#clippath-1)"
           id="g18">
          <path
             d="M34.49,35.93l.71-1.23c-1.74-.9-3.69-1.45-5.77-1.54v1.42c1.81.09,3.52.56,5.05,1.35"
             style="fill: #000; stroke-width: 0px;"
             id="path9" />
          <path
             d="M39.28,40.25l1.23-.71c-1.09-1.69-2.53-3.12-4.22-4.21l-.71,1.23c1.48.96,2.74,2.21,3.7,3.69"
             style="fill: #000; stroke-width: 0px;"
             id="path10" />
          <path
             d="M22.02,36.56l-.71-1.23c-1.69,1.08-3.14,2.52-4.22,4.2l1.23.71c.96-1.47,2.22-2.73,3.7-3.69"
             style="fill: #000; stroke-width: 0px;"
             id="path11" />
          <path
             d="M41.26,46.38h1.43c-.09-2.07-.64-4.01-1.54-5.75l-1.23.71c.79,1.52,1.26,3.23,1.35,5.04"
             style="fill: #000; stroke-width: 0px;"
             id="path12" />
          <path
             d="M28.17,34.59v-1.42c-2.07.09-4.03.64-5.77,1.54l.71,1.23c1.53-.78,3.24-1.25,5.05-1.35"
             style="fill: #000; stroke-width: 0px;"
             id="path13" />
          <path
             d="M18.32,53.76l-1.23.71c1.09,1.69,2.53,3.12,4.22,4.21l.71-1.23c-1.48-.96-2.74-2.21-3.7-3.69"
             style="fill: #000; stroke-width: 0px;"
             id="path14" />
          <path
             d="M35.58,57.45l.71,1.23c1.69-1.08,3.14-2.52,4.22-4.2l-1.23-.71c-.96,1.47-2.22,2.73-3.7,3.69"
             style="fill: #000; stroke-width: 0px;"
             id="path15" />
          <path
             d="M41.26,47.64c-.09,1.81-.56,3.51-1.35,5.04l1.23.71c.9-1.73,1.45-3.68,1.54-5.75h-1.43Z"
             style="fill: #000; stroke-width: 0px;"
             id="path16" />
          <path
             d="M16.34,47.64h-1.43c.09,2.07.64,4.01,1.54,5.75l1.23-.71c-.79-1.52-1.26-3.23-1.35-5.04"
             style="fill: #000; stroke-width: 0px;"
             id="path17" />
          <path
             d="M17.69,41.34l-1.23-.71c-.9,1.73-1.45,3.68-1.54,5.75h1.43c.09-1.81.56-3.51,1.35-5.04"
             style="fill: #000; stroke-width: 0px;"
             id="path18" />
        </g>
      </g>
    </g>
    <g
       id="g21"
       transform="translate(0,8.6069709)">
      <path
         d="m 20.6,18.19 c -0.37,0 -0.71,-0.17 -0.97,-0.47 -0.51,-0.6 -0.52,-1.54 -0.04,-2.16 l 6.97,-8.88 c 0.38,-0.48 1.05,-0.65 1.57,-0.39 0.5,0.25 0.79,0.82 0.79,1.45 v 4.77 l 4.64,-5.85 c 0.38,-0.48 1.01,-0.64 1.53,-0.38 0.5,0.25 0.83,0.81 0.83,1.44 v 8.82 c 0,0.86 -0.61,1.57 -1.36,1.57 -0.75,0 -1.36,-0.7 -1.36,-1.57 v -4.79 l -4.64,5.85 c -0.38,0.48 -1.01,0.64 -1.54,0.38 -0.5,-0.24 -0.83,-0.81 -0.83,-1.44 v -4.67 l -4.61,5.8 c -0.26,0.32 -0.62,0.51 -1,0.51 v 0 z"
         style="fill:#2cabe1;stroke-width:0px"
         id="path19" />
      <path
         d="m 20.6,18.19 c -0.75,0 -1.35,-0.7 -1.35,-1.57 v -4.93 l -2.26,2.84 c -0.5,0.63 -1.44,0.65 -1.97,0.04 -0.51,-0.6 -0.52,-1.53 -0.03,-2.15 L 19.6,6.66 c 0.26,-0.32 0.63,-0.5 1,-0.5 0.18,0 0.37,0.04 0.54,0.12 0.5,0.25 0.82,0.81 0.82,1.44 v 8.89 c 0,0.86 -0.61,1.57 -1.36,1.57 v 0 z"
         style="fill:#ea2228;stroke-width:0px"
         id="path20" />
      <path
         d="m 37.2,18.21 v 0 c -0.35,0 -0.68,-0.15 -0.94,-0.42 -0.76,-0.78 -0.14,-1.84 0.29,-2.3 L 38.5,13.13 37.24,13.11 C 36.68,13.1 36.2,12.71 36,12.11 35.81,11.55 35.93,10.9 36.29,10.47 L 39.45,6.64 C 39.68,6.36 40,6.16 40.58,6.17 c 0.33,0 0.67,0.17 0.92,0.4 0.71,0.66 0.29,1.7 -0.07,2.2 l -1.04,1.26 1.26,0.02 c 0.56,0.01 1.04,0.4 1.24,1 0.19,0.56 0.07,1.21 -0.29,1.64 l -4.1,4.97 c -0.35,0.35 -0.65,0.55 -1.3,0.54 v 0 z"
         style="fill:#00a650;stroke-width:0px"
         id="path21" />
    </g>
  </g>
  <g
     id="components">
    <circle
       id="Clk_Out"
       data-name="Clk Out"
       cx="28.8"
       cy="313.23"
       r="11.34"
       style="fill: #8080ff; stroke-width: 0px;" />
    <circle
       id="Clk_In"
       data-name="Clk In"
       cx="28.8"
       cy="265.04"
       r="11.34"
       style="fill: #80ff80; stroke-width: 0px;" />
    <circle
       id="CV"
       cx="28.8"
       cy="216.85"
       r="11.34"
       style="fill: lime; stroke-width: 0px;" />
    <circle
       id="Divide"
       cx="28.8"
       cy="46.77"
       r="8.5"
       style="fill: red; stroke-width: 0px;"
       data-name="Divide#DivMultKnob_d1d16" />
    <text
       id="slug"
       transform="translate(25.77 369.32)"
       style="fill: #000; font-family: MyriadPro-Regular, 'Myriad Pro'; font-size: 3px;"><tspan
         x="0"
         y="0"
         id="tspan21">CLKD</tspan></text>
    <text
       id="modulename"
       transform="translate(37.84 369.32)"
       style="fill: #000; font-family: MyriadPro-Regular, 'Myriad Pro'; font-size: 3px;"><tspan
         x="0"
         y="0"
         id="tspan22">Clock Divider</tspan></text>
  </g>
</svg>
