<?xml version="1.0" encoding="UTF-8" standalone="no"?>
<svg
   width="40.73mm"
   height="128.59mm"
   viewBox="0 0 115.45 364.5"
   version="1.1"
   id="svg52"
   sodipodi:docname="LPG_info.svg"
   inkscape:version="1.4.2 (ebf0e940, 2025-05-08)"
   xmlns:inkscape="http://www.inkscape.org/namespaces/inkscape"
   xmlns:sodipodi="http://sodipodi.sourceforge.net/DTD/sodipodi-0.dtd"
   xmlns="http://www.w3.org/2000/svg"
   xmlns:svg="http://www.w3.org/2000/svg">
  <defs
     id="defs52" />
  <sodipodi:namedview
     id="namedview52"
     pagecolor="#ffffff"
     bordercolor="#000000"
     borderopacity="0.25"
     inkscape:showpageshadow="2"
     inkscape:pageopacity="0.0"
     inkscape:pagecheckerboard="0"
     inkscape:deskcolor="#d1d1d1"
     inkscape:document-units="mm"
     showgrid="false"
     inkscape:zoom="3.693504"
     inkscape:cx="25.58546"
     inkscape:cy="54.825986"
     inkscape:window-width="1728"
     inkscape:window-height="886"
     inkscape:window-x="0"
     inkscape:window-y="38"
     inkscape:window-maximized="0"
     inkscape:current-layer="components" />
  <g
     id="faceplate">
    <rect
       x=".12"
       y=".12"
       width="115.2"
       height="364.25"
       style="fill: #ededed; stroke: #9d9d9e; stroke-miterlimit: 10; stroke-width: .25px;"
       id="rect1" />
    <g
       id="g4">
      <path
         d="M100.44,318.76v-21.52h-21.54c-7.49,0-13.57,6.52-13.57,14.57v30.53h15.07s0,0,0,0h14.39c3.12,0,5.64-2.36,5.64-5.25v-18.39.08Z"
         style="stroke-width: 0px;"
         id="path1" />
      <g
         id="g3">
        <path
           d="M28.32,341.84h35.2s23.15,0,23.15,0c7.35,0,13.31-7.02,13.31-15.67v-28.42l.27-63.47-.06-6.64c-.29-8.35-6.12-15.02-13.28-15.02H28.56c-7.17,0-12.99,6.67-13.28,15.02l-.06,6.64v-2.92l-.21,94.81"
           style="fill: none; stroke: #000; stroke-miterlimit: 10;"
           id="path2" />
        <path
           d="M15.01,325.21v10.96c0,3.12,2.55,5.67,5.67,5.67h12.93"
           style="fill: none; stroke: #231f20; stroke-miterlimit: 10;"
           id="path3" />
      </g>
    </g>
    <text
       transform="translate(48.11 357.47) scale(.82 1)"
       style="font-family: GillSans-Bold, 'Gill Sans'; font-size: 11px; font-weight: 700;"
       id="text4"><tspan
         x="0"
         y="0"
         id="tspan4">LPG</tspan></text>
    <text
       transform="translate(74.05 293.82) scale(.88 1)"
       style="font-family: GillSans-Bold, 'Gill Sans'; font-size: 8px; font-weight: 700; letter-spacing: -.04em;"
       id="text5"><tspan
         x="0"
         y="0"
         id="tspan5">Color</tspan></text>
    <text
       transform="translate(76.79 336.01) scale(.88 1)"
       style="fill: #fff; font-family: GillSans-Bold, 'Gill Sans'; font-size: 8px; font-weight: 700; letter-spacing: -.04em;"
       id="text6"><tspan
         x="0"
         y="0"
         id="tspan6">Out</tspan></text>
    <text
       transform="translate(23.21 293.82) scale(.88 1)"
       style="font-family: GillSans-Bold, 'Gill Sans'; font-size: 8px; font-weight: 700; letter-spacing: -.04em;"
       id="text7"><tspan
         x="0"
         y="0"
         id="tspan7">Level</tspan></text>
    <text
       transform="translate(23.07 252.21) scale(.88 1)"
       style="font-family: GillSans-Bold, 'Gill Sans'; font-size: 8px; font-weight: 700; letter-spacing: -.04em;"
       id="text8"><tspan
         x="0"
         y="0"
         id="tspan8">Input</tspan></text>
    <text
       transform="translate(75.98 252.21) scale(.88 1)"
       style="font-family: GillSans-Bold, 'Gill Sans'; font-size: 8px; font-weight: 700; letter-spacing: -.04em;"
       id="text9"><tspan
         x="0"
         y="0"
         id="tspan9">Ping</tspan></text>
    <text
       transform="translate(21.98 336.01) scale(.88 1)"
       style="font-family: GillSans-Bold, 'Gill Sans'; font-size: 8px; font-weight: 700; letter-spacing: -.04em;"
       id="text10"><tspan
         x="0"
         y="0"
         id="tspan10">Decay</tspan></text>
    <text
       transform="translate(46.22 139.81) scale(.88 1)"
       style="font-family: GillSans-Bold, 'Gill Sans'; font-size: 10px; font-weight: 700; letter-spacing: -.04em;"
       id="text11"><tspan
         x="0"
         y="0"
         id="tspan11">Color</tspan></text>
    <g
       id="g20">
      <path
         d="M66.94,94.54l1.13-1.95c-2.75-1.43-5.84-2.3-9.12-2.44v2.26c2.87.14,5.57.89,7.99,2.14Z"
         style="stroke-width: 0px;"
         id="path11" />
      <path
         d="M74.52,101.39l1.95-1.13c-1.72-2.68-4-4.96-6.68-6.68l-1.13,1.95c2.34,1.52,4.33,3.51,5.85,5.85Z"
         style="stroke-width: 0px;"
         id="path12" />
      <path
         d="M47.21,95.54l-1.13-1.95c-2.68,1.72-4.96,4-6.68,6.68l1.95,1.13c1.52-2.34,3.51-4.33,5.85-5.85Z"
         style="stroke-width: 0px;"
         id="path13" />
      <path
         d="M77.66,111.12h2.26c-.15-3.28-1.01-6.37-2.44-9.12l-1.95,1.13c1.24,2.42,1.99,5.13,2.14,8Z"
         style="stroke-width: 0px;"
         id="path14" />
      <path
         d="M56.94,92.4v-2.26c-3.28.15-6.37,1.01-9.12,2.44l1.13,1.95c2.42-1.24,5.13-1.99,8-2.14Z"
         style="stroke-width: 0px;"
         id="path15" />
      <path
         d="M41.36,122.85l-1.95,1.13c1.72,2.68,4,4.96,6.68,6.68l1.13-1.95c-2.34-1.52-4.33-3.51-5.85-5.85Z"
         style="stroke-width: 0px;"
         id="path16" />
      <path
         d="M68.67,128.7l1.13,1.95c2.68-1.72,4.96-4,6.68-6.68l-1.95-1.13c-1.52,2.34-3.51,4.33-5.85,5.85Z"
         style="stroke-width: 0px;"
         id="path17" />
      <path
         d="M77.66,113.12c-.14,2.87-.89,5.57-2.14,8l1.95,1.13c1.43-2.75,2.3-5.84,2.44-9.12h-2.26Z"
         style="stroke-width: 0px;"
         id="path18" />
      <path
         d="M38.22,113.12h-2.26c.15,3.28,1.01,6.37,2.44,9.12l1.95-1.13c-1.24-2.42-1.99-5.13-2.14-8Z"
         style="stroke-width: 0px;"
         id="path19" />
      <path
         d="M40.36,103.12l-1.95-1.13c-1.43,2.75-2.3,5.84-2.44,9.12h2.26c.14-2.87.89-5.57,2.14-8Z"
         style="stroke-width: 0px;"
         id="path20" />
    </g>
    <text
       transform="translate(45.05 201.16) scale(.88 1)"
       style="font-family: GillSans-Bold, 'Gill Sans'; font-size: 10px; font-weight: 700; letter-spacing: -.04em;"
       id="text20"><tspan
         x="0"
         y="0"
         id="tspan20">Decay</tspan></text>
    <g
       id="g30">
      <path
         d="M66.94,155.89l1.13-1.95c-2.75-1.43-5.84-2.3-9.12-2.44v2.26c2.87.14,5.57.89,7.99,2.14Z"
         style="stroke-width: 0px;"
         id="path21" />
      <path
         d="M74.52,162.74l1.95-1.13c-1.72-2.68-4-4.96-6.68-6.68l-1.13,1.95c2.34,1.52,4.33,3.51,5.85,5.85Z"
         style="stroke-width: 0px;"
         id="path22" />
      <path
         d="M47.21,156.89l-1.13-1.95c-2.68,1.72-4.96,4-6.68,6.68l1.95,1.13c1.52-2.34,3.51-4.33,5.85-5.85Z"
         style="stroke-width: 0px;"
         id="path23" />
      <path
         d="M77.66,172.47h2.26c-.15-3.28-1.01-6.37-2.44-9.12l-1.95,1.13c1.24,2.42,1.99,5.13,2.14,8Z"
         style="stroke-width: 0px;"
         id="path24" />
      <path
         d="M56.94,153.75v-2.26c-3.28.15-6.37,1.01-9.12,2.44l1.13,1.95c2.42-1.24,5.13-1.99,8-2.14Z"
         style="stroke-width: 0px;"
         id="path25" />
      <path
         d="M41.36,184.2l-1.95,1.13c1.72,2.68,4,4.96,6.68,6.68l1.13-1.95c-2.34-1.52-4.33-3.51-5.85-5.85Z"
         style="stroke-width: 0px;"
         id="path26" />
      <path
         d="M68.67,190.05l1.13,1.95c2.68-1.72,4.96-4,6.68-6.68l-1.95-1.13c-1.52,2.34-3.51,4.33-5.85,5.85Z"
         style="stroke-width: 0px;"
         id="path27" />
      <path
         d="M77.66,174.47c-.14,2.87-.89,5.57-2.14,8l1.95,1.13c1.43-2.75,2.3-5.84,2.44-9.12h-2.26Z"
         style="stroke-width: 0px;"
         id="path28" />
      <path
         d="M38.22,174.47h-2.26c.15,3.28,1.01,6.37,2.44,9.12l1.95-1.13c-1.24-2.42-1.99-5.13-2.14-8Z"
         style="stroke-width: 0px;"
         id="path29" />
      <path
         d="M40.36,164.48l-1.95-1.13c-1.43,2.75-2.3,5.84-2.44,9.12h2.26c.14-2.87.89-5.57,2.14-8Z"
         style="stroke-width: 0px;"
         id="path30" />
    </g>
    <text
       transform="translate(46.37 78.38) scale(.88 1)"
       style="font-family: GillSans-Bold, 'Gill Sans'; font-size: 10px; font-weight: 700; letter-spacing: -.04em;"
       id="text33"><tspan
         x="0"
         y="0"
         id="tspan33">Level</tspan></text>
    <path
       d="M66.72,33.03l1.13-1.95c-2.75-1.43-5.84-2.3-9.12-2.44v2.26c2.87.14,5.57.89,7.99,2.14Z"
       style="stroke-width: 0px;"
       id="path34" />
    <path
       d="M74.3,39.88l1.95-1.13c-1.72-2.68-4-4.96-6.68-6.68l-1.13,1.95c2.34,1.52,4.33,3.51,5.85,5.85Z"
       style="stroke-width: 0px;"
       id="path35" />
    <path
       d="M47,34.03l-1.13-1.95c-2.68,1.72-4.96,4-6.68,6.68l1.95,1.13c1.52-2.34,3.51-4.33,5.85-5.85Z"
       style="stroke-width: 0px;"
       id="path36" />
    <path
       d="M77.44,49.61h2.26c-.15-3.28-1.01-6.37-2.44-9.12l-1.95,1.13c1.24,2.42,1.99,5.13,2.14,8Z"
       style="stroke-width: 0px;"
       id="path37" />
    <path
       d="M56.73,30.89v-2.26c-3.28.15-6.37,1.01-9.12,2.44l1.13,1.95c2.42-1.24,5.13-1.99,8-2.14Z"
       style="stroke-width: 0px;"
       id="path38" />
    <path
       d="M41.14,61.34l-1.95,1.13c1.72,2.68,4,4.96,6.68,6.68l1.13-1.95c-2.34-1.52-4.33-3.51-5.85-5.85Z"
       style="stroke-width: 0px;"
       id="path39" />
    <path
       d="M68.45,67.19l1.13,1.95c2.68-1.72,4.96-4,6.68-6.68l-1.95-1.13c-1.52,2.34-3.51,4.33-5.85,5.85Z"
       style="stroke-width: 0px;"
       id="path40" />
    <path
       d="M77.44,51.61c-.14,2.87-.89,5.57-2.14,8l1.95,1.13c1.43-2.75,2.3-5.84,2.44-9.12h-2.26Z"
       style="stroke-width: 0px;"
       id="path41" />
    <path
       d="M38.01,51.61h-2.26c.15,3.28,1.01,6.37,2.44,9.12l1.95-1.13c-1.24-2.42-1.99-5.13-2.14-8Z"
       style="stroke-width: 0px;"
       id="path42" />
    <path
       d="M40.14,41.61l-1.95-1.13c-1.43,2.75-2.3,5.84-2.44,9.12h2.26c.14-2.87.89-5.57,2.14-8Z"
       style="stroke-width: 0px;"
       id="path43" />
  </g>
  <g
     id="components">
    <circle
       id="Audio Out"
       cx="83.32"
       cy="313.7"
       r="11.34"
       style="fill: blue; stroke-width: 0px;" />
    <circle
       id="Decay_CV"
       data-name="Decay CV"
       cx="32.13"
       cy="313.7"
       r="11.34"
       style="fill: lime; stroke-width: 0px;" />
    <circle
       id="Color_CV"
       data-name="Color CV"
       cx="83.32"
       cy="272.09"
       r="11.34"
       style="fill: lime; stroke-width: 0px;" />
    <circle
       id="Level_CV"
       data-name="Level CV"
       cx="32.13"
       cy="272.09"
       r="11.34"
       style="fill: lime; stroke-width: 0px;" />
    <circle
       id="Ping"
       cx="83.32"
       cy="230.48"
       r="11.34"
       style="fill: #80ff80; stroke-width: 0px;" />
    <circle
       id="Input"
       cx="32.13"
       cy="230.48"
       r="11.34"
       style="fill: lime; stroke-width: 0px;"
       data-name="Audio In" />
    <circle
       id="Decay"
       cx="57.94"
       cy="173.18"
       r="17.01"
       style="fill: #ff0070; stroke-width: 0px;" />
    <circle
       id="Color"
       cx="57.94"
       cy="111.82"
       r="17.01"
       style="fill: #ff0070; stroke-width: 0px;" />
    <circle
       id="Level"
       cx="57.94"
       cy="50.47"
       r="17.01"
       style="fill: #ff0070; stroke-width: 0px;" />
    <text
       id="slug"
       transform="translate(75.14 361.62)"
       style="font-family: MyriadPro-Regular, 'Myriad Pro'; font-size: 3px;"><tspan
         x="0"
         y="0"
         id="tspan43">LPG</tspan></text>
    <text
       id="modulename"
       transform="translate(88.46 361.62)"
       style="font-family: MyriadPro-Regular, 'Myriad Pro'; font-size: 3px;"><tspan
         x="0"
         y="0"
         style="letter-spacing: -.01em;"
         id="tspan44">L</tspan><tspan
         x="1.37"
         y="0"
         style="letter-spacing: 0em;"
         id="tspan45">o</tspan><tspan
         x="3"
         y="0"
         id="tspan46">w </tspan><tspan
         x="5.84"
         y="0"
         style="letter-spacing: -.03em;"
         id="tspan47">P</tspan><tspan
         x="7.36"
         y="0"
         style="letter-spacing: 0em;"
         id="tspan48">ass </tspan><tspan
         x="11.82"
         y="0"
         style="letter-spacing: 0em;"
         id="tspan49">G</tspan><tspan
         x="13.78"
         y="0"
         style="letter-spacing: 0em;"
         id="tspan50">a</tspan><tspan
         x="15.22"
         y="0"
         style="letter-spacing: 0em;"
         id="tspan51">t</tspan><tspan
         x="16.19"
         y="0"
         style="letter-spacing: 0em;"
         id="tspan52">e</tspan></text>
    <g
       id="g42"
       transform="matrix(0.99998057,0,0,0.99998057,29.361843,-7.1449805)"
       inkscape:transform-center-x="-7.5130448"
       inkscape:transform-center-y="20.102471">
      <path
         id="path40-6"
         d="m 20.6,26.79 c -0.37,0 -0.71,-0.17 -0.97,-0.47 -0.51,-0.6 -0.52,-1.54 -0.04,-2.16 l 6.97,-8.88 c 0.38,-0.48 1.05,-0.65 1.57,-0.39 0.52,0.26 0.79,0.82 0.79,1.45 v 4.77 l 4.64,-5.85 c 0.38,-0.48 1.01,-0.64 1.53,-0.38 0.5,0.25 0.83,0.81 0.83,1.44 v 8.82 c 0,0.86 -0.61,1.57 -1.36,1.57 -0.75,0 -1.36,-0.7 -1.36,-1.57 v -4.79 l -4.64,5.85 c -0.38,0.48 -1.01,0.64 -1.54,0.38 -0.5,-0.24 -0.83,-0.81 -0.83,-1.44 v -4.67 l -4.61,5.8 c -0.26,0.32 -0.62,0.51 -1,0.51 h 0.02 z"
         style="fill:#2cabe1" />
      <path
         id="path41-9"
         d="m 20.6,26.79 c -0.75,0 -1.35,-0.7 -1.35,-1.57 v -4.93 l -2.26,2.84 c -0.5,0.63 -1.44,0.65 -1.97,0.04 -0.51,-0.6 -0.52,-1.53 -0.03,-2.15 l 4.61,-5.76 c 0.26,-0.32 0.63,-0.5 1,-0.5 0.18,0 0.37,0.04 0.54,0.12 0.5,0.25 0.82,0.81 0.82,1.44 v 8.89 c 0,0.86 -0.61,1.57 -1.36,1.57 v 0 z"
         style="fill:#ea2228" />
      <path
         id="path42-0"
         d="m 37.2,26.81 v 0 c -0.35,0 -0.68,-0.15 -0.94,-0.42 -0.76,-0.78 -0.14,-1.84 0.29,-2.3 L 38.5,21.73 37.24,21.71 C 36.68,21.7 36.2,21.31 36,20.71 35.81,20.15 35.93,19.5 36.29,19.07 l 3.16,-3.83 c 0.23,-0.28 0.55,-0.48 1.13,-0.47 0.33,0 0.67,0.17 0.92,0.4 0.71,0.66 0.29,1.7 -0.07,2.2 l -1.04,1.26 1.26,0.02 c 0.56,0.01 1.04,0.4 1.24,1 0.19,0.56 0.07,1.21 -0.29,1.64 l -4.1,4.97 c -0.35,0.35 -0.65,0.55 -1.3,0.54 v 0 z"
         style="fill:#00a650" />
    </g>
  </g>
</svg>
