<?xml version="1.0" encoding="UTF-8" standalone="no"?>
<svg
   width="20.32mm"
   height="130.55mm"
   viewBox="0 0 57.6 370.07"
   version="1.1"
   id="svg27"
   sodipodi:docname="Pan_info.svg"
   inkscape:version="1.4 (e7c3feb1, 2024-10-09)"
   xmlns:inkscape="http://www.inkscape.org/namespaces/inkscape"
   xmlns:sodipodi="http://sodipodi.sourceforge.net/DTD/sodipodi-0.dtd"
   xmlns="http://www.w3.org/2000/svg"
   xmlns:svg="http://www.w3.org/2000/svg">
  <sodipodi:namedview
     id="namedview27"
     pagecolor="#ffffff"
     bordercolor="#000000"
     borderopacity="0.25"
     inkscape:showpageshadow="2"
     inkscape:pageopacity="0.0"
     inkscape:pagecheckerboard="0"
     inkscape:deskcolor="#d1d1d1"
     inkscape:document-units="mm"
     inkscape:zoom="2.0449221"
     inkscape:cx="38.632279"
     inkscape:cy="246.70867"
     inkscape:window-width="1200"
     inkscape:window-height="1186"
     inkscape:window-x="1847"
     inkscape:window-y="62"
     inkscape:window-maximized="0"
     inkscape:current-layer="components" />
  <defs
     id="defs2">
    <clipPath
       id="clippath">
      <rect
         x="14.91"
         y="33.17"
         width="27.78"
         height="25.51"
         style="fill: none; stroke-width: 0px;"
         id="rect1" />
    </clipPath>
    <clipPath
       id="clippath-1">
      <rect
         x="14.91"
         y="33.17"
         width="27.78"
         height="25.51"
         style="fill: none; stroke-width: 0px;"
         id="rect2" />
    </clipPath>
  </defs>
  <g
     id="faceplate">
    <g
       id="g3">
      <rect
         x=".13"
         y=".13"
         width="57.35"
         height="364"
         style="fill: #ededed; stroke-width: 0px;"
         id="rect3" />
      <path
         d="M57.35.25v363.75H.25V.25h57.1M57.6,0H0v364.25h57.6V0h0Z"
         style="fill: #9d9d9e; stroke-width: 0px;"
         id="path3" />
    </g>
    <path
       d="M28.8,152.65c8.05,0,14.59,6.08,14.59,13.54v157.37H14.21v-157.37c0-7.47,6.55-13.54,14.59-13.54M28.8,151.65c-8.61,0-15.59,6.51-15.59,14.54v158.37s31.18,0,31.18,0v-158.37c0-8.03-6.98-14.54-15.59-14.54h0Z"
       style="fill: #000; stroke-width: 0px;"
       id="path4" />
    <path
       d="M44.39,261.76c0-8.05-6.98-14.57-15.59-14.57s-15.59,6.53-15.59,14.57v54.4s0,0,0,0v19.77c0,3.11,2.55,5.65,5.67,5.65h19.84c3.12,0,5.67-2.54,5.67-5.65v-19.77s0,0,0,0v-54.39Z"
       style="fill: #000; stroke-width: 0px;"
       id="path5" />
    <g
       id="pips_-_fewest"
       data-name="pips - fewest">
      <g
         style="clip-path: url(#clippath);"
         clip-path="url(#clippath)"
         id="g16">
        <g
           style="clip-path: url(#clippath-1);"
           clip-path="url(#clippath-1)"
           id="g15">
          <path
             d="M34.49,35.93l.71-1.23c-1.74-.9-3.69-1.45-5.77-1.54v1.42c1.81.09,3.52.56,5.05,1.35"
             style="fill: #000; stroke-width: 0px;"
             id="path6" />
          <path
             d="M39.28,40.25l1.23-.71c-1.09-1.69-2.53-3.12-4.22-4.21l-.71,1.23c1.48.96,2.74,2.21,3.7,3.69"
             style="fill: #000; stroke-width: 0px;"
             id="path7" />
          <path
             d="M22.02,36.56l-.71-1.23c-1.69,1.08-3.14,2.52-4.22,4.2l1.23.71c.96-1.47,2.22-2.73,3.7-3.69"
             style="fill: #000; stroke-width: 0px;"
             id="path8" />
          <path
             d="M41.26,46.38h1.43c-.09-2.07-.64-4.01-1.54-5.75l-1.23.71c.79,1.52,1.26,3.23,1.35,5.04"
             style="fill: #000; stroke-width: 0px;"
             id="path9" />
          <path
             d="M28.17,34.59v-1.42c-2.07.09-4.03.64-5.77,1.54l.71,1.23c1.53-.78,3.24-1.25,5.05-1.35"
             style="fill: #000; stroke-width: 0px;"
             id="path10" />
          <path
             d="M18.32,53.76l-1.23.71c1.09,1.69,2.53,3.12,4.22,4.21l.71-1.23c-1.48-.96-2.74-2.21-3.7-3.69"
             style="fill: #000; stroke-width: 0px;"
             id="path11" />
          <path
             d="M35.58,57.45l.71,1.23c1.69-1.08,3.14-2.52,4.22-4.2l-1.23-.71c-.96,1.47-2.22,2.73-3.7,3.69"
             style="fill: #000; stroke-width: 0px;"
             id="path12" />
          <path
             d="M41.26,47.64c-.09,1.81-.56,3.51-1.35,5.04l1.23.71c.9-1.73,1.45-3.68,1.54-5.75h-1.43Z"
             style="fill: #000; stroke-width: 0px;"
             id="path13" />
          <path
             d="M16.34,47.64h-1.43c.09,2.07.64,4.01,1.54,5.75l1.23-.71c-.79-1.52-1.26-3.23-1.35-5.04"
             style="fill: #000; stroke-width: 0px;"
             id="path14" />
          <path
             d="M17.69,41.34l-1.23-.71c-.9,1.73-1.45,3.68-1.54,5.75h1.43c.09-1.81.56-3.51,1.35-5.04"
             style="fill: #000; stroke-width: 0px;"
             id="path15" />
        </g>
      </g>
    </g>
    <g
       id="center">
      <path
         d="M28.8,35.69c-1.39,0-2.52-1.13-2.52-2.52s1.13-2.52,2.52-2.52,2.52,1.13,2.52,2.52-1.13,2.52-2.52,2.52Z"
         style="fill: #171717; stroke-width: 0px;"
         id="path16" />
      <path
         d="M28.8,31.39c.98,0,1.77.79,1.77,1.77s-.79,1.77-1.77,1.77-1.77-.79-1.77-1.77.79-1.77,1.77-1.77M28.8,29.89c-1.8,0-3.27,1.47-3.27,3.27s1.47,3.27,3.27,3.27,3.27-1.47,3.27-3.27-1.47-3.27-3.27-3.27h0Z"
         style="fill: #ededed; stroke-width: 0px;"
         id="path17" />
    </g>
    <g
       id="text">
      <text
         transform="translate(17.81 357.16) scale(.82 1)"
         style="fill: #000; font-family: GillSans-Bold, 'Gill Sans'; font-size: 11px; font-weight: 700;"
         id="text17"><tspan
           x="0"
           y="0"
           id="tspan17">PAN</tspan></text>
      <text
         transform="translate(23.67 192.87) scale(.88 1)"
         style="fill: #231f20; font-family: GillSans-Bold, 'Gill Sans'; font-size: 8px; font-weight: 700; letter-spacing: -.04em;"
         id="text18"><tspan
           x="0"
           y="0"
           id="tspan18">CV</tspan></text>
      <text
         transform="translate(20.76 68.78) scale(.88 1)"
         style="fill: #000; font-family: GillSans-Bold, 'Gill Sans'; font-size: 10px; font-weight: 700; letter-spacing: -.04em;"
         id="text19"><tspan
           x="0"
           y="0"
           id="tspan19">Pan</tspan></text>
      <text
         transform="translate(19.34 337.44) scale(.88 1)"
         style="fill: #fff; font-family: GillSans-Bold, 'Gill Sans'; font-size: 8px; font-weight: 700; letter-spacing: -.04em;"
         id="text20"><tspan
           x="0"
           y="0"
           id="tspan20">Out 2</tspan></text>
      <text
         transform="translate(19.34 289.25) scale(.88 1)"
         style="fill: #fff; font-family: GillSans-Bold, 'Gill Sans'; font-size: 8px; font-weight: 700; letter-spacing: -.04em;"
         id="text21"><tspan
           x="0"
           y="0"
           id="tspan21">Out 1</tspan></text>
      <text
         transform="translate(19.67 241.06) scale(.88 1)"
         style="fill: #000; font-family: GillSans-Bold, 'Gill Sans'; font-size: 8px; font-weight: 700; letter-spacing: -.04em;"
         id="text22"><tspan
           x="0"
           y="0"
           id="tspan22">Input</tspan></text>
    </g>
    <g
       id="g24">
      <path
         d="M20.6,18.19c-.37,0-.71-.17-.97-.47-.51-.6-.52-1.54-.04-2.16l6.97-8.88c.38-.48,1.05-.65,1.57-.39.5.25.79.82.79,1.45v4.77l4.64-5.85c.38-.48,1.01-.64,1.53-.38.5.25.83.81.83,1.44v8.82c0,.86-.61,1.57-1.36,1.57s-1.36-.7-1.36-1.57v-4.79l-4.64,5.85c-.38.48-1.01.64-1.54.38-.5-.24-.83-.81-.83-1.44v-4.67l-4.61,5.8c-.26.32-.62.51-1,.51h0Z"
         style="fill: #2cabe1; stroke-width: 0px;"
         id="path22" />
      <path
         d="M20.6,18.19c-.75,0-1.35-.7-1.35-1.57v-4.93l-2.26,2.84c-.5.63-1.44.65-1.97.04-.51-.6-.52-1.53-.03-2.15l4.61-5.76c.26-.32.63-.5,1-.5.18,0,.37.04.54.12.5.25.82.81.82,1.44v8.89c0,.86-.61,1.57-1.36,1.57h0Z"
         style="fill: #ea2228; stroke-width: 0px;"
         id="path23" />
      <path
         d="M37.2,18.21h0c-.35,0-.68-.15-.94-.42-.76-.78-.14-1.84.29-2.3l1.95-2.36-1.26-.02c-.56-.01-1.04-.4-1.24-1-.19-.56-.07-1.21.29-1.64l3.16-3.83c.23-.28.55-.48,1.13-.47.33,0,.67.17.92.4.71.66.29,1.7-.07,2.2l-1.04,1.26,1.26.02c.56.01,1.04.4,1.24,1,.19.56.07,1.21-.29,1.64l-4.1,4.97c-.35.35-.65.55-1.3.54h0Z"
         style="fill: #00a650; stroke-width: 0px;"
         id="path24" />
    </g>
  </g>
  <g
     id="components">
    <circle
       id="Out_2"
       data-name="Ch. 2 Out"
       cx="28.8"
       cy="313.23"
       r="11.34"
       style="fill: blue; stroke-width: 0px;" />
    <circle
       id="Out_1"
       data-name="Ch. 1 Out"
       cx="28.8"
       cy="265.04"
       r="11.34"
       style="fill: blue; stroke-width: 0px;" />
    <circle
       id="Input"
       cx="28.8"
       cy="216.85"
       r="11.34"
       style="fill: lime; stroke-width: 0px;"
       data-name="Audio In" />
    <circle
       id="CV"
       cx="28.8"
       cy="168.66"
       r="11.34"
       style="fill: lime; stroke-width: 0px;"
       data-name="Pan CV In" />
    <circle
       cx="28.8"
       cy="46.77"
       r="8.5"
       style="fill: #ff0040; stroke-width: 0px;"
       data-name="Pan!-100!100!%"
       id="Pan" />
    <text
       id="slug"
       transform="translate(34.4 369.32)"
       style="fill: #000; font-family: MyriadPro-Regular, 'Myriad Pro'; font-size: 3px;"><tspan
         x="0"
         y="0"
         style="letter-spacing: -.03em;"
         id="tspan24">P</tspan><tspan
         x="1.52"
         y="0"
         id="tspan25">an</tspan></text>
    <text
       id="modulename"
       transform="translate(47.72 369.32)"
       style="fill: #000; font-family: MyriadPro-Regular, 'Myriad Pro'; font-size: 3px;"><tspan
         x="0"
         y="0"
         style="letter-spacing: -.03em;"
         id="tspan26">P</tspan><tspan
         x="1.52"
         y="0"
         id="tspan27">anner</tspan></text>
  </g>
</svg>
