<?xml version="1.0" encoding="UTF-8" standalone="no"?>
<svg
   width="20.32mm"
   height="130.55mm"
   viewBox="0 0 57.6 370.07"
   version="1.1"
   id="svg14"
   sodipodi:docname="SH_info.svg"
   inkscape:version="1.4.2 (ebf0e940, 2025-05-08)"
   xmlns:inkscape="http://www.inkscape.org/namespaces/inkscape"
   xmlns:sodipodi="http://sodipodi.sourceforge.net/DTD/sodipodi-0.dtd"
   xmlns="http://www.w3.org/2000/svg"
   xmlns:svg="http://www.w3.org/2000/svg">
  <defs
     id="defs14" />
  <sodipodi:namedview
     id="namedview14"
     pagecolor="#ffffff"
     bordercolor="#000000"
     borderopacity="0.25"
     inkscape:showpageshadow="2"
     inkscape:pageopacity="0.0"
     inkscape:pagecheckerboard="0"
     inkscape:deskcolor="#d1d1d1"
     inkscape:document-units="mm"
     inkscape:zoom="0.80205133"
     inkscape:cx="242.50318"
     inkscape:cy="365.31328"
     inkscape:window-width="1200"
     inkscape:window-height="979"
     inkscape:window-x="528"
     inkscape:window-y="38"
     inkscape:window-maximized="0"
     inkscape:current-layer="text" />
  <g
     id="faceplate">
    <g
       id="panel">
      <rect
         x=".13"
         y=".13"
         width="57.35"
         height="364"
         style="fill: #ededed; stroke-width: 0px;"
         id="rect1" />
      <path
         d="M57.35.25v363.75H.25V.25h57.1M57.6,0H0v364.25h57.6V0h0Z"
         style="fill: #9d9d9e; stroke-width: 0px;"
         id="path1" />
    </g>
    <path
       d="M44.39,261.76c0-8.05-6.98-14.57-15.59-14.57s-15.59,6.53-15.59,14.57v54.4s0,0,0,0v19.77c0,3.11,2.55,5.65,5.67,5.65h19.84c3.12,0,5.67-2.54,5.67-5.65v-19.77s0,0,0,0v-54.39Z"
       style="fill: #000; stroke-width: 0px;"
       id="path2" />
    <path
       d="M28.8,56.34c8.04,0,14.59,6.08,14.59,13.54v253.69H14.21V69.88c0-7.47,6.55-13.54,14.59-13.54M28.8,55.34c-8.61,0-15.59,6.51-15.59,14.54v254.69s31.18,0,31.18,0V69.88c0-8.03-6.98-14.54-15.59-14.54h0Z"
       style="fill: #000; stroke-width: 0px;"
       id="path3" />
    <g
       id="text">
      <text
         transform="translate(19.33 192.87) scale(.88 1)"
         style="fill: #000; font-family: GillSans-Bold, 'Gill Sans'; font-size: 8px; font-weight: 700; letter-spacing: -.04em;"
         id="text3"><tspan
           x="0"
           y="0"
           id="tspan3">Samp</tspan></text>
      <text
         transform="translate(22.52 144.68) scale(.88 1)"
         style="fill: #000; font-family: GillSans-Bold, 'Gill Sans'; font-size: 8px; font-weight: 700; letter-spacing: -.04em;"
         id="text4"><tspan
           x="0"
           y="0"
           id="tspan4">In 1</tspan></text>
      <text
         transform="translate(21.43 96.49) scale(.88 1)"
         style="fill: #000; font-family: GillSans-Bold, 'Gill Sans'; font-size: 8px; font-weight: 700; letter-spacing: -.04em;"
         id="text5"><tspan
           x="0"
           y="0"
           id="tspan5">Sam</tspan></text>
      <text
         transform="translate(22.52 241.06) scale(.88 1)"
         style="fill: #000; font-family: GillSans-Bold, 'Gill Sans'; font-size: 8px; font-weight: 700; letter-spacing: -.04em;"
         id="text6"><tspan
           x="0"
           y="0"
           id="tspan6">In 2</tspan></text>
      <text
         transform="translate(19.34 289.25) scale(.88 1)"
         style="fill: #fff; font-family: GillSans-Bold, 'Gill Sans'; font-size: 8px; font-weight: 700; letter-spacing: -.04em;"
         id="text7"><tspan
           x="0"
           y="0"
           id="tspan7">Out 1</tspan></text>
      <text
         transform="translate(19.34 337.44) scale(.88 1)"
         style="fill: #fff; font-family: GillSans-Bold, 'Gill Sans'; font-size: 8px; font-weight: 700; letter-spacing: -.04em;"
         id="text8"><tspan
           x="0"
           y="0"
           id="tspan8">Out 2</tspan></text>
      <text
         transform="scale(0.90553851,1.1043153)"
         style="font-weight:700;font-size:9.96092px;font-family:GillSans-Bold, 'Gill Sans';fill:#000000;stroke-width:0.905538"
         id="text9"
         x="20.253141"
         y="317.52954"><tspan
           x="20.253141"
           y="317.52954"
           id="tspan9"
           style="stroke-width:0.905538">S&amp;H</tspan></text>
    </g>
    <g
       id="g11"
       transform="translate(0,8.6069709)">
      <path
         d="m 20.6,18.19 c -0.37,0 -0.71,-0.17 -0.97,-0.47 -0.51,-0.6 -0.52,-1.54 -0.04,-2.16 l 6.97,-8.88 c 0.38,-0.48 1.05,-0.65 1.57,-0.39 0.5,0.25 0.79,0.82 0.79,1.45 v 4.77 l 4.64,-5.85 c 0.38,-0.48 1.01,-0.64 1.53,-0.38 0.5,0.25 0.83,0.81 0.83,1.44 v 8.82 c 0,0.86 -0.61,1.57 -1.36,1.57 -0.75,0 -1.36,-0.7 -1.36,-1.57 v -4.79 l -4.64,5.85 c -0.38,0.48 -1.01,0.64 -1.54,0.38 -0.5,-0.24 -0.83,-0.81 -0.83,-1.44 v -4.67 l -4.61,5.8 c -0.26,0.32 -0.62,0.51 -1,0.51 v 0 z"
         style="fill:#2cabe1;stroke-width:0px"
         id="path9" />
      <path
         d="m 20.6,18.19 c -0.75,0 -1.35,-0.7 -1.35,-1.57 v -4.93 l -2.26,2.84 c -0.5,0.63 -1.44,0.65 -1.97,0.04 -0.51,-0.6 -0.52,-1.53 -0.03,-2.15 L 19.6,6.66 c 0.26,-0.32 0.63,-0.5 1,-0.5 0.18,0 0.37,0.04 0.54,0.12 0.5,0.25 0.82,0.81 0.82,1.44 v 8.89 c 0,0.86 -0.61,1.57 -1.36,1.57 v 0 z"
         style="fill:#ea2228;stroke-width:0px"
         id="path10" />
      <path
         d="m 37.2,18.21 v 0 c -0.35,0 -0.68,-0.15 -0.94,-0.42 -0.76,-0.78 -0.14,-1.84 0.29,-2.3 L 38.5,13.13 37.24,13.11 C 36.68,13.1 36.2,12.71 36,12.11 35.81,11.55 35.93,10.9 36.29,10.47 L 39.45,6.64 C 39.68,6.36 40,6.16 40.58,6.17 c 0.33,0 0.67,0.17 0.92,0.4 0.71,0.66 0.29,1.7 -0.07,2.2 l -1.04,1.26 1.26,0.02 c 0.56,0.01 1.04,0.4 1.24,1 0.19,0.56 0.07,1.21 -0.29,1.64 l -4.1,4.97 c -0.35,0.35 -0.65,0.55 -1.3,0.54 v 0 z"
         style="fill:#00a650;stroke-width:0px"
         id="path11" />
    </g>
  </g>
  <g
     id="components">
    <circle
       id="Out_2"
       data-name="Ch. 2 Out"
       cx="28.8"
       cy="313.23"
       r="11.34"
       style="fill: blue; stroke-width: 0px;" />
    <circle
       id="Out_1"
       data-name="Ch. 1 Out"
       cx="28.8"
       cy="265.04"
       r="11.34"
       style="fill: blue; stroke-width: 0px;" />
    <circle
       id="In_2"
       data-name="Ch. 2 Clock In"
       cx="28.8"
       cy="216.85"
       r="11.34"
       style="fill: lime; stroke-width: 0px;" />
    <circle
       id="Samp_2"
       data-name="Ch. 2 Sample In"
       cx="28.8"
       cy="168.72"
       r="11.34"
       style="fill: lime; stroke-width: 0px;" />
    <circle
       id="In_1"
       data-name="Ch. 1 Clock In"
       cx="28.8"
       cy="120.54"
       r="11.34"
       style="fill: lime; stroke-width: 0px;" />
    <circle
       id="Samp_1"
       data-name="Ch. 1 Sample In"
       cx="28.8"
       cy="72.35"
       r="11.34"
       style="fill: lime; stroke-width: 0px;" />
    <text
       id="slug"
       transform="translate(22 369.32)"
       style="fill: #000; font-family: MyriadPro-Regular, 'Myriad Pro'; font-size: 3px;"><tspan
         x="0"
         y="0"
         id="tspan11">SH</tspan></text>
    <text
       id="modulename"
       transform="translate(29.15 369.32)"
       style="fill: #000; font-family: MyriadPro-Regular, 'Myriad Pro'; font-size: 3px;"><tspan
         x="0"
         y="0"
         id="tspan12">2 Ch. </tspan><tspan
         x="6.84"
         y="0"
         style="letter-spacing: 0em;"
         id="tspan13">S</tspan><tspan
         x="8.33"
         y="0"
         style="letter-spacing: 0em;"
         id="tspan14">ample and Hold</tspan></text>
  </g>
</svg>
