<?xml version="1.0" encoding="UTF-8" standalone="no"?>
<svg
   width="91.44mm"
   height="131.44mm"
   viewBox="0 0 259.2 372.58"
   version="1.1"
   id="svg150"
   sodipodi:docname="StMix_info.svg"
   inkscape:version="1.4 (e7c3feb1, 2024-10-09)"
   xmlns:inkscape="http://www.inkscape.org/namespaces/inkscape"
   xmlns:sodipodi="http://sodipodi.sourceforge.net/DTD/sodipodi-0.dtd"
   xmlns="http://www.w3.org/2000/svg"
   xmlns:svg="http://www.w3.org/2000/svg">
  <defs
     id="defs150" />
  <sodipodi:namedview
     id="namedview150"
     pagecolor="#ffffff"
     bordercolor="#000000"
     borderopacity="0.25"
     inkscape:showpageshadow="2"
     inkscape:pageopacity="0.0"
     inkscape:pagecheckerboard="0"
     inkscape:deskcolor="#d1d1d1"
     inkscape:document-units="mm"
     inkscape:zoom="2.0310756"
     inkscape:cx="172.81484"
     inkscape:cy="248.39056"
     inkscape:window-width="1200"
     inkscape:window-height="1186"
     inkscape:window-x="2240"
     inkscape:window-y="25"
     inkscape:window-maximized="0"
     inkscape:current-layer="components" />
  <g
     id="faceplate">
    <g
       id="g1">
      <rect
         x=".12"
         y=".13"
         width="258.95"
         height="364"
         style="fill: #ededed; stroke-width: 0px;"
         id="rect1" />
      <path
         d="M258.95.25v363.75H.25V.25h258.7M259.2,0H0v364.25h259.2V0h0Z"
         style="fill: #9d9d9e; stroke-width: 0px;"
         id="path1" />
    </g>
    <path
       d="M185.16,287.52h-64.63v48.62c0,3.12,2.55,5.67,5.67,5.67l53.25-.05h0s3.17,0,3.17,0l53.25.05c3.12,0,5.67-2.55,5.67-5.67v-48.62h-56.38Z"
       style="fill: #000; stroke-width: 0px;"
       id="path2" />
    <text
       transform="translate(20.36 86.5) scale(.88 1)"
       style="fill: #000; font-family: GillSans-Bold, 'Gill Sans'; font-size: 10px; font-weight: 700; letter-spacing: -.04em;"
       id="text2"><tspan
         x="0"
         y="0"
         id="tspan2">Level 1</tspan></text>
    <g
       id="g17">
      <path
         d="M35.16,38.56c-.83,0-1.65.07-2.45.17l-.39-2.21c.93-.12,1.88-.19,2.84-.19s1.91.07,2.84.19l-.39,2.21c-.81-.1-1.62-.17-2.45-.17Z"
         style="fill: #000; stroke-width: 0px;"
         id="path3" />
      <path
         d="M20.67,44.93l-1.73-1.45c1.28-1.4,2.74-2.63,4.34-3.66l1.12,1.94c-1.38.9-2.62,1.96-3.73,3.16Z"
         style="fill: #000; stroke-width: 0px;"
         id="path4" />
      <path
         d="M26.14,40.76l-1.12-1.94c1.67-.87,3.46-1.53,5.34-1.95l.39,2.21c-1.62.37-3.16.94-4.61,1.69Z"
         style="fill: #000; stroke-width: 0px;"
         id="path5" />
      <path
         d="M16.93,50.69l-2.1-.76c.73-1.77,1.69-3.42,2.83-4.92l1.73,1.45c-.98,1.3-1.82,2.71-2.46,4.23Z"
         style="fill: #000; stroke-width: 0px;"
         id="path6" />
      <path
         d="M39.59,39.07l.39-2.21c1.88.42,3.67,1.08,5.34,1.95l-1.12,1.94c-1.44-.74-2.98-1.31-4.6-1.69Z"
         style="fill: #000; stroke-width: 0px;"
         id="path7" />
      <path
         d="M15.45,57.39h-2.26c.08-1.93.41-3.8.96-5.58l2.11.77c-.47,1.53-.73,3.15-.81,4.81Z"
         style="fill: #000; stroke-width: 0px;"
         id="path8" />
      <path
         d="M16.31,64.19l-2.1.76c-.57-1.79-.91-3.65-1.01-5.56h2.23c.09,1.65.39,3.25.88,4.8Z"
         style="fill: #000; stroke-width: 0px;"
         id="path9" />
      <path
         d="M19.45,70.27l-1.71,1.44c-1.15-1.5-2.11-3.14-2.84-4.88l2.1-.77c.64,1.5,1.46,2.91,2.45,4.2Z"
         style="fill: #000; stroke-width: 0px;"
         id="path10" />
      <path
         d="M50.94,46.46l1.73-1.45c1.14,1.5,2.1,3.15,2.83,4.92l-2.1.77c-.64-1.52-1.48-2.93-2.46-4.23Z"
         style="fill: #000; stroke-width: 0px;"
         id="path11" />
      <path
         d="M54.07,52.57l2.11-.77c.55,1.78.88,3.65.96,5.58h-2.26c-.08-1.66-.34-3.28-.81-4.81Z"
         style="fill: #000; stroke-width: 0px;"
         id="path12" />
      <path
         d="M54.89,59.39h2.23c-.09,1.91-.44,3.78-1.01,5.56l-2.1-.77c.48-1.54.79-3.15.88-4.8Z"
         style="fill: #000; stroke-width: 0px;"
         id="path13" />
      <path
         d="M53.33,66.07l2.11.77c-.73,1.74-1.69,3.38-2.84,4.88l-1.71-1.44c.99-1.3,1.81-2.71,2.45-4.2Z"
         style="fill: #000; stroke-width: 0px;"
         id="path14" />
      <path
         d="M24.47,74.91l-1.12,1.93c-1.61-1.03-3.05-2.24-4.32-3.62l1.71-1.44c1.1,1.18,2.34,2.23,3.72,3.12Z"
         style="fill: #000; stroke-width: 0px;"
         id="path15" />
      <path
         d="M49.58,71.79l1.71,1.44c-1.27,1.37-2.71,2.59-4.32,3.62l-1.12-1.93c1.38-.89,2.62-1.94,3.72-3.12Z"
         style="fill: #000; stroke-width: 0px;"
         id="path16" />
      <path
         d="M45.92,41.76l1.12-1.94c1.6,1.03,3.06,2.26,4.34,3.66l-1.73,1.45c-1.11-1.2-2.36-2.27-3.74-3.16Z"
         style="fill: #000; stroke-width: 0px;"
         id="path17" />
    </g>
    <text
       transform="translate(83.31 86.5) scale(.88 1)"
       style="fill: #000; font-family: GillSans-Bold, 'Gill Sans'; font-size: 10px; font-weight: 700; letter-spacing: -.04em;"
       id="text17"><tspan
         x="0"
         y="0"
         id="tspan17">Level 2</tspan></text>
    <path
       d="M98.12,38.56c-.83,0-1.65.07-2.45.17l-.39-2.21c.93-.12,1.88-.19,2.84-.19s1.91.07,2.84.19l-.39,2.21c-.81-.1-1.62-.17-2.45-.17Z"
       style="fill: #000; stroke-width: 0px;"
       id="path18" />
    <path
       d="M83.63,44.93l-1.73-1.45c1.28-1.4,2.74-2.63,4.34-3.66l1.12,1.94c-1.38.9-2.62,1.96-3.73,3.16Z"
       style="fill: #000; stroke-width: 0px;"
       id="path19" />
    <path
       d="M89.09,40.76l-1.12-1.94c1.67-.87,3.46-1.53,5.34-1.95l.39,2.21c-1.62.37-3.16.94-4.61,1.69Z"
       style="fill: #000; stroke-width: 0px;"
       id="path20" />
    <path
       d="M79.89,50.69l-2.1-.76c.73-1.77,1.69-3.42,2.83-4.92l1.73,1.45c-.98,1.3-1.82,2.71-2.46,4.23Z"
       style="fill: #000; stroke-width: 0px;"
       id="path21" />
    <path
       d="M102.54,39.07l.39-2.21c1.88.42,3.67,1.08,5.34,1.95l-1.12,1.94c-1.44-.74-2.98-1.31-4.6-1.69Z"
       style="fill: #000; stroke-width: 0px;"
       id="path22" />
    <path
       d="M78.4,57.39h-2.26c.08-1.93.41-3.8.96-5.58l2.11.77c-.47,1.53-.73,3.15-.81,4.81Z"
       style="fill: #000; stroke-width: 0px;"
       id="path23" />
    <path
       d="M79.27,64.19l-2.1.76c-.57-1.79-.91-3.65-1.01-5.56h2.23c.09,1.65.39,3.25.88,4.8Z"
       style="fill: #000; stroke-width: 0px;"
       id="path24" />
    <path
       d="M82.41,70.27l-1.71,1.44c-1.15-1.5-2.11-3.14-2.84-4.88l2.1-.77c.64,1.5,1.46,2.91,2.45,4.2Z"
       style="fill: #000; stroke-width: 0px;"
       id="path25" />
    <path
       d="M113.89,46.46l1.73-1.45c1.14,1.5,2.1,3.15,2.83,4.92l-2.1.77c-.64-1.52-1.48-2.93-2.46-4.23Z"
       style="fill: #000; stroke-width: 0px;"
       id="path26" />
    <path
       d="M117.03,52.57l2.11-.77c.55,1.78.88,3.65.96,5.58h-2.26c-.08-1.66-.34-3.28-.81-4.81Z"
       style="fill: #000; stroke-width: 0px;"
       id="path27" />
    <path
       d="M117.85,59.39h2.23c-.09,1.91-.44,3.78-1.01,5.56l-2.1-.77c.48-1.54.79-3.15.88-4.8Z"
       style="fill: #000; stroke-width: 0px;"
       id="path28" />
    <path
       d="M116.29,66.07l2.11.77c-.73,1.74-1.69,3.38-2.84,4.88l-1.71-1.44c.99-1.3,1.81-2.71,2.45-4.2Z"
       style="fill: #000; stroke-width: 0px;"
       id="path29" />
    <path
       d="M87.43,74.91l-1.12,1.93c-1.61-1.03-3.05-2.24-4.32-3.62l1.71-1.44c1.1,1.18,2.34,2.23,3.72,3.12Z"
       style="fill: #000; stroke-width: 0px;"
       id="path30" />
    <path
       d="M112.54,71.79l1.71,1.44c-1.27,1.37-2.71,2.59-4.32,3.62l-1.12-1.93c1.38-.89,2.62-1.94,3.72-3.12Z"
       style="fill: #000; stroke-width: 0px;"
       id="path31" />
    <path
       d="M108.88,41.76l1.12-1.94c1.6,1.03,3.06,2.26,4.34,3.66l-1.73,1.45c-1.11-1.2-2.36-2.27-3.74-3.16Z"
       style="fill: #000; stroke-width: 0px;"
       id="path32" />
    <text
       transform="translate(209.23 86.5) scale(.88 1)"
       style="fill: #000; font-family: GillSans-Bold, 'Gill Sans'; font-size: 10px; font-weight: 700; letter-spacing: -.04em;"
       id="text32"><tspan
         x="0"
         y="0"
         id="tspan32">Level 4</tspan></text>
    <path
       d="M224.04,38.56c-.83,0-1.65.07-2.45.17l-.39-2.21c.93-.12,1.88-.19,2.84-.19s1.91.07,2.84.19l-.39,2.21c-.81-.1-1.62-.17-2.45-.17Z"
       style="fill: #000; stroke-width: 0px;"
       id="path33" />
    <path
       d="M209.54,44.93l-1.73-1.45c1.28-1.4,2.74-2.63,4.34-3.66l1.12,1.94c-1.38.9-2.62,1.96-3.73,3.16Z"
       style="fill: #000; stroke-width: 0px;"
       id="path34" />
    <path
       d="M215.01,40.76l-1.12-1.94c1.67-.87,3.46-1.53,5.34-1.95l.39,2.21c-1.62.37-3.16.94-4.61,1.69Z"
       style="fill: #000; stroke-width: 0px;"
       id="path35" />
    <path
       d="M205.81,50.69l-2.1-.76c.73-1.77,1.69-3.42,2.83-4.92l1.73,1.45c-.98,1.3-1.82,2.71-2.46,4.23Z"
       style="fill: #000; stroke-width: 0px;"
       id="path36" />
    <path
       d="M228.46,39.07l.39-2.21c1.88.42,3.67,1.08,5.34,1.95l-1.12,1.94c-1.44-.74-2.98-1.31-4.6-1.69Z"
       style="fill: #000; stroke-width: 0px;"
       id="path37" />
    <path
       d="M204.32,57.39h-2.26c.08-1.93.41-3.8.96-5.58l2.11.77c-.47,1.53-.73,3.15-.81,4.81Z"
       style="fill: #000; stroke-width: 0px;"
       id="path38" />
    <path
       d="M205.18,64.19l-2.1.76c-.57-1.79-.91-3.65-1.01-5.56h2.23c.09,1.65.39,3.25.88,4.8Z"
       style="fill: #000; stroke-width: 0px;"
       id="path39" />
    <path
       d="M208.32,70.27l-1.71,1.44c-1.15-1.5-2.11-3.14-2.84-4.88l2.1-.77c.64,1.5,1.46,2.91,2.45,4.2Z"
       style="fill: #000; stroke-width: 0px;"
       id="path40" />
    <path
       d="M239.81,46.46l1.73-1.45c1.14,1.5,2.1,3.15,2.83,4.92l-2.1.77c-.64-1.52-1.48-2.93-2.46-4.23Z"
       style="fill: #000; stroke-width: 0px;"
       id="path41" />
    <path
       d="M242.94,52.57l2.11-.77c.55,1.78.88,3.65.96,5.58h-2.26c-.08-1.66-.34-3.28-.81-4.81Z"
       style="fill: #000; stroke-width: 0px;"
       id="path42" />
    <path
       d="M243.76,59.39h2.23c-.09,1.91-.44,3.78-1.01,5.56l-2.1-.77c.48-1.54.79-3.15.88-4.8Z"
       style="fill: #000; stroke-width: 0px;"
       id="path43" />
    <path
       d="M242.2,66.07l2.11.77c-.73,1.74-1.69,3.38-2.84,4.88l-1.71-1.44c.99-1.3,1.81-2.71,2.45-4.2Z"
       style="fill: #000; stroke-width: 0px;"
       id="path44" />
    <path
       d="M213.34,74.91l-1.12,1.93c-1.61-1.03-3.05-2.24-4.32-3.62l1.71-1.44c1.1,1.18,2.34,2.23,3.72,3.12Z"
       style="fill: #000; stroke-width: 0px;"
       id="path45" />
    <path
       d="M238.46,71.79l1.71,1.44c-1.27,1.37-2.71,2.59-4.32,3.62l-1.12-1.93c1.38-.89,2.62-1.94,3.72-3.12Z"
       style="fill: #000; stroke-width: 0px;"
       id="path46" />
    <path
       d="M234.79,41.76l1.12-1.94c1.6,1.03,3.06,2.26,4.34,3.66l-1.73,1.45c-1.11-1.2-2.36-2.27-3.74-3.16Z"
       style="fill: #000; stroke-width: 0px;"
       id="path47" />
    <text
       transform="translate(146.27 86.5) scale(.88 1)"
       style="fill: #000; font-family: GillSans-Bold, 'Gill Sans'; font-size: 10px; font-weight: 700; letter-spacing: -.04em;"
       id="text47"><tspan
         x="0"
         y="0"
         id="tspan47">Level 3</tspan></text>
    <path
       d="M161.08,38.56c-.83,0-1.65.07-2.45.17l-.39-2.21c.93-.12,1.88-.19,2.84-.19s1.91.07,2.84.19l-.39,2.21c-.81-.1-1.62-.17-2.45-.17Z"
       style="fill: #000; stroke-width: 0px;"
       id="path48" />
    <path
       d="M146.59,44.93l-1.73-1.45c1.28-1.4,2.74-2.63,4.34-3.66l1.12,1.94c-1.38.9-2.62,1.96-3.73,3.16Z"
       style="fill: #000; stroke-width: 0px;"
       id="path49" />
    <path
       d="M152.05,40.76l-1.12-1.94c1.67-.87,3.46-1.53,5.34-1.95l.39,2.21c-1.62.37-3.16.94-4.61,1.69Z"
       style="fill: #000; stroke-width: 0px;"
       id="path50" />
    <path
       d="M142.85,50.69l-2.1-.76c.73-1.77,1.69-3.42,2.83-4.92l1.73,1.45c-.98,1.3-1.82,2.71-2.46,4.23Z"
       style="fill: #000; stroke-width: 0px;"
       id="path51" />
    <path
       d="M165.5,39.07l.39-2.21c1.88.42,3.67,1.08,5.34,1.95l-1.12,1.94c-1.44-.74-2.98-1.31-4.6-1.69Z"
       style="fill: #000; stroke-width: 0px;"
       id="path52" />
    <path
       d="M141.36,57.39h-2.26c.08-1.93.41-3.8.96-5.58l2.11.77c-.47,1.53-.73,3.15-.81,4.81Z"
       style="fill: #000; stroke-width: 0px;"
       id="path53" />
    <path
       d="M142.23,64.19l-2.1.76c-.57-1.79-.91-3.65-1.01-5.56h2.23c.09,1.65.39,3.25.88,4.8Z"
       style="fill: #000; stroke-width: 0px;"
       id="path54" />
    <path
       d="M145.37,70.27l-1.71,1.44c-1.15-1.5-2.11-3.14-2.84-4.88l2.1-.77c.64,1.5,1.46,2.91,2.45,4.2Z"
       style="fill: #000; stroke-width: 0px;"
       id="path55" />
    <path
       d="M176.85,46.46l1.73-1.45c1.14,1.5,2.1,3.15,2.83,4.92l-2.1.77c-.64-1.52-1.48-2.93-2.46-4.23Z"
       style="fill: #000; stroke-width: 0px;"
       id="path56" />
    <path
       d="M179.98,52.57l2.11-.77c.55,1.78.88,3.65.96,5.58h-2.26c-.08-1.66-.34-3.28-.81-4.81Z"
       style="fill: #000; stroke-width: 0px;"
       id="path57" />
    <path
       d="M180.81,59.39h2.23c-.09,1.91-.44,3.78-1.01,5.56l-2.1-.77c.48-1.54.79-3.15.88-4.8Z"
       style="fill: #000; stroke-width: 0px;"
       id="path58" />
    <path
       d="M179.24,66.07l2.11.77c-.73,1.74-1.69,3.38-2.84,4.88l-1.71-1.44c.99-1.3,1.81-2.71,2.45-4.2Z"
       style="fill: #000; stroke-width: 0px;"
       id="path59" />
    <path
       d="M150.39,74.91l-1.12,1.93c-1.61-1.03-3.05-2.24-4.32-3.62l1.71-1.44c1.1,1.18,2.34,2.23,3.72,3.12Z"
       style="fill: #000; stroke-width: 0px;"
       id="path60" />
    <path
       d="M175.5,71.79l1.71,1.44c-1.27,1.37-2.71,2.59-4.32,3.62l-1.12-1.93c1.38-.89,2.62-1.94,3.72-3.12Z"
       style="fill: #000; stroke-width: 0px;"
       id="path61" />
    <path
       d="M171.83,41.76l1.12-1.94c1.6,1.03,3.06,2.26,4.34,3.66l-1.73,1.45c-1.11-1.2-2.36-2.27-3.74-3.16Z"
       style="fill: #000; stroke-width: 0px;"
       id="path62" />
    <text
       transform="translate(23.56 178.65) scale(.88 1)"
       style="fill: #000; font-family: GillSans-Bold, 'Gill Sans'; font-size: 10px; font-weight: 700; letter-spacing: -.04em;"
       id="text62"><tspan
         x="0"
         y="0"
         id="tspan62">Pan 1</tspan></text>
    <path
       d="M35.16,130.71c-.83,0-1.65.07-2.45.17l-.39-2.21c.93-.12,1.88-.19,2.84-.19s1.91.07,2.84.19l-.39,2.21c-.81-.1-1.62-.17-2.45-.17Z"
       style="fill: #000; stroke-width: 0px;"
       id="path63" />
    <path
       d="M20.67,137.08l-1.73-1.45c1.28-1.4,2.74-2.63,4.34-3.66l1.12,1.94c-1.38.9-2.62,1.96-3.73,3.16Z"
       style="fill: #000; stroke-width: 0px;"
       id="path64" />
    <path
       d="M26.14,132.91l-1.12-1.94c1.67-.87,3.46-1.53,5.34-1.95l.39,2.21c-1.62.37-3.16.94-4.61,1.69Z"
       style="fill: #000; stroke-width: 0px;"
       id="path65" />
    <path
       d="M16.93,142.85l-2.1-.76c.73-1.77,1.69-3.42,2.83-4.92l1.73,1.45c-.98,1.3-1.82,2.71-2.46,4.23Z"
       style="fill: #000; stroke-width: 0px;"
       id="path66" />
    <path
       d="M39.59,131.23l.39-2.21c1.88.42,3.67,1.08,5.34,1.95l-1.12,1.94c-1.44-.74-2.98-1.31-4.6-1.69Z"
       style="fill: #000; stroke-width: 0px;"
       id="path67" />
    <path
       d="M15.45,149.54h-2.26c.08-1.93.41-3.8.96-5.58l2.11.77c-.47,1.53-.73,3.15-.81,4.81Z"
       style="fill: #000; stroke-width: 0px;"
       id="path68" />
    <path
       d="M16.31,156.34l-2.1.76c-.57-1.79-.91-3.65-1.01-5.56h2.23c.09,1.65.39,3.25.88,4.8Z"
       style="fill: #000; stroke-width: 0px;"
       id="path69" />
    <path
       d="M19.45,162.42l-1.71,1.44c-1.15-1.5-2.11-3.14-2.84-4.88l2.1-.77c.64,1.5,1.46,2.91,2.45,4.2Z"
       style="fill: #000; stroke-width: 0px;"
       id="path70" />
    <path
       d="M50.94,138.62l1.73-1.45c1.14,1.5,2.1,3.15,2.83,4.92l-2.1.77c-.64-1.52-1.48-2.93-2.46-4.23Z"
       style="fill: #000; stroke-width: 0px;"
       id="path71" />
    <path
       d="M54.07,144.73l2.11-.77c.55,1.78.88,3.65.96,5.58h-2.26c-.08-1.66-.34-3.28-.81-4.81Z"
       style="fill: #000; stroke-width: 0px;"
       id="path72" />
    <path
       d="M54.89,151.54h2.23c-.09,1.91-.44,3.78-1.01,5.56l-2.1-.77c.48-1.54.79-3.15.88-4.8Z"
       style="fill: #000; stroke-width: 0px;"
       id="path73" />
    <path
       d="M53.33,158.22l2.11.77c-.73,1.74-1.69,3.38-2.84,4.88l-1.71-1.44c.99-1.3,1.81-2.71,2.45-4.2Z"
       style="fill: #000; stroke-width: 0px;"
       id="path74" />
    <path
       d="M24.47,167.07l-1.12,1.93c-1.61-1.03-3.05-2.24-4.32-3.62l1.71-1.44c1.1,1.18,2.34,2.23,3.72,3.12Z"
       style="fill: #000; stroke-width: 0px;"
       id="path75" />
    <path
       d="M49.58,163.95l1.71,1.44c-1.27,1.37-2.71,2.59-4.32,3.62l-1.12-1.93c1.38-.89,2.62-1.94,3.72-3.12Z"
       style="fill: #000; stroke-width: 0px;"
       id="path76" />
    <path
       d="M45.92,133.91l1.12-1.94c1.6,1.03,3.06,2.26,4.34,3.66l-1.73,1.45c-1.11-1.2-2.36-2.27-3.74-3.16Z"
       style="fill: #000; stroke-width: 0px;"
       id="path77" />
    <text
       transform="translate(86.52 178.65) scale(.88 1)"
       style="fill: #000; font-family: GillSans-Bold, 'Gill Sans'; font-size: 10px; font-weight: 700; letter-spacing: -.04em;"
       id="text77"><tspan
         x="0"
         y="0"
         id="tspan77">Pan 2</tspan></text>
    <path
       d="M98.12,130.71c-.83,0-1.65.07-2.45.17l-.39-2.21c.93-.12,1.88-.19,2.84-.19s1.91.07,2.84.19l-.39,2.21c-.81-.1-1.62-.17-2.45-.17Z"
       style="fill: #000; stroke-width: 0px;"
       id="path78" />
    <path
       d="M83.63,137.08l-1.73-1.45c1.28-1.4,2.74-2.63,4.34-3.66l1.12,1.94c-1.38.9-2.62,1.96-3.73,3.16Z"
       style="fill: #000; stroke-width: 0px;"
       id="path79" />
    <path
       d="M89.09,132.91l-1.12-1.94c1.67-.87,3.46-1.53,5.34-1.95l.39,2.21c-1.62.37-3.16.94-4.61,1.69Z"
       style="fill: #000; stroke-width: 0px;"
       id="path80" />
    <path
       d="M79.89,142.85l-2.1-.76c.73-1.77,1.69-3.42,2.83-4.92l1.73,1.45c-.98,1.3-1.82,2.71-2.46,4.23Z"
       style="fill: #000; stroke-width: 0px;"
       id="path81" />
    <path
       d="M102.54,131.23l.39-2.21c1.88.42,3.67,1.08,5.34,1.95l-1.12,1.94c-1.44-.74-2.98-1.31-4.6-1.69Z"
       style="fill: #000; stroke-width: 0px;"
       id="path82" />
    <path
       d="M78.4,149.54h-2.26c.08-1.93.41-3.8.96-5.58l2.11.77c-.47,1.53-.73,3.15-.81,4.81Z"
       style="fill: #000; stroke-width: 0px;"
       id="path83" />
    <path
       d="M79.27,156.34l-2.1.76c-.57-1.79-.91-3.65-1.01-5.56h2.23c.09,1.65.39,3.25.88,4.8Z"
       style="fill: #000; stroke-width: 0px;"
       id="path84" />
    <path
       d="M82.41,162.42l-1.71,1.44c-1.15-1.5-2.11-3.14-2.84-4.88l2.1-.77c.64,1.5,1.46,2.91,2.45,4.2Z"
       style="fill: #000; stroke-width: 0px;"
       id="path85" />
    <path
       d="M113.89,138.62l1.73-1.45c1.14,1.5,2.1,3.15,2.83,4.92l-2.1.77c-.64-1.52-1.48-2.93-2.46-4.23Z"
       style="fill: #000; stroke-width: 0px;"
       id="path86" />
    <path
       d="M117.03,144.73l2.11-.77c.55,1.78.88,3.65.96,5.58h-2.26c-.08-1.66-.34-3.28-.81-4.81Z"
       style="fill: #000; stroke-width: 0px;"
       id="path87" />
    <path
       d="M117.85,151.54h2.23c-.09,1.91-.44,3.78-1.01,5.56l-2.1-.77c.48-1.54.79-3.15.88-4.8Z"
       style="fill: #000; stroke-width: 0px;"
       id="path88" />
    <path
       d="M116.29,158.22l2.11.77c-.73,1.74-1.69,3.38-2.84,4.88l-1.71-1.44c.99-1.3,1.81-2.71,2.45-4.2Z"
       style="fill: #000; stroke-width: 0px;"
       id="path89" />
    <path
       d="M87.43,167.07l-1.12,1.93c-1.61-1.03-3.05-2.24-4.32-3.62l1.71-1.44c1.1,1.18,2.34,2.23,3.72,3.12Z"
       style="fill: #000; stroke-width: 0px;"
       id="path90" />
    <path
       d="M112.54,163.95l1.71,1.44c-1.27,1.37-2.71,2.59-4.32,3.62l-1.12-1.93c1.38-.89,2.62-1.94,3.72-3.12Z"
       style="fill: #000; stroke-width: 0px;"
       id="path91" />
    <path
       d="M108.88,133.92l1.12-1.94c1.6,1.03,3.06,2.26,4.34,3.66l-1.73,1.45c-1.11-1.2-2.36-2.27-3.74-3.16Z"
       style="fill: #000; stroke-width: 0px;"
       id="path92" />
    <text
       transform="translate(212.43 178.65) scale(.88 1)"
       style="fill: #000; font-family: GillSans-Bold, 'Gill Sans'; font-size: 10px; font-weight: 700; letter-spacing: -.04em;"
       id="text92"><tspan
         x="0"
         y="0"
         id="tspan92">Pan 4</tspan></text>
    <path
       d="M224.04,130.71c-.83,0-1.65.07-2.45.17l-.39-2.21c.93-.12,1.88-.19,2.84-.19s1.91.07,2.84.19l-.39,2.21c-.81-.1-1.62-.17-2.45-.17Z"
       style="fill: #000; stroke-width: 0px;"
       id="path93" />
    <path
       d="M209.54,137.08l-1.73-1.45c1.28-1.4,2.74-2.63,4.34-3.66l1.12,1.94c-1.38.9-2.62,1.96-3.73,3.16Z"
       style="fill: #000; stroke-width: 0px;"
       id="path94" />
    <path
       d="M215.01,132.91l-1.12-1.94c1.67-.87,3.46-1.53,5.34-1.95l.39,2.21c-1.62.37-3.16.94-4.61,1.69Z"
       style="fill: #000; stroke-width: 0px;"
       id="path95" />
    <path
       d="M205.81,142.85l-2.1-.76c.73-1.77,1.69-3.42,2.83-4.92l1.73,1.45c-.98,1.3-1.82,2.71-2.46,4.23Z"
       style="fill: #000; stroke-width: 0px;"
       id="path96" />
    <path
       d="M228.46,131.23l.39-2.21c1.88.42,3.67,1.08,5.34,1.95l-1.12,1.94c-1.44-.74-2.98-1.31-4.6-1.69Z"
       style="fill: #000; stroke-width: 0px;"
       id="path97" />
    <path
       d="M204.32,149.54h-2.26c.08-1.93.41-3.8.96-5.58l2.11.77c-.47,1.53-.73,3.15-.81,4.81Z"
       style="fill: #000; stroke-width: 0px;"
       id="path98" />
    <path
       d="M205.18,156.34l-2.1.76c-.57-1.79-.91-3.65-1.01-5.56h2.23c.09,1.65.39,3.25.88,4.8Z"
       style="fill: #000; stroke-width: 0px;"
       id="path99" />
    <path
       d="M208.32,162.42l-1.71,1.44c-1.15-1.5-2.11-3.14-2.84-4.88l2.1-.77c.64,1.5,1.46,2.91,2.45,4.2Z"
       style="fill: #000; stroke-width: 0px;"
       id="path100" />
    <path
       d="M239.81,138.62l1.73-1.45c1.14,1.5,2.1,3.15,2.83,4.92l-2.1.77c-.64-1.52-1.48-2.93-2.46-4.23Z"
       style="fill: #000; stroke-width: 0px;"
       id="path101" />
    <path
       d="M242.94,144.73l2.11-.77c.55,1.78.88,3.65.96,5.58h-2.26c-.08-1.66-.34-3.28-.81-4.81Z"
       style="fill: #000; stroke-width: 0px;"
       id="path102" />
    <path
       d="M243.76,151.54h2.23c-.09,1.91-.44,3.78-1.01,5.56l-2.1-.77c.48-1.54.79-3.15.88-4.8Z"
       style="fill: #000; stroke-width: 0px;"
       id="path103" />
    <path
       d="M242.2,158.22l2.11.77c-.73,1.74-1.69,3.38-2.84,4.88l-1.71-1.44c.99-1.3,1.81-2.71,2.45-4.2Z"
       style="fill: #000; stroke-width: 0px;"
       id="path104" />
    <path
       d="M213.34,167.07l-1.12,1.93c-1.61-1.03-3.05-2.24-4.32-3.62l1.71-1.44c1.1,1.18,2.34,2.23,3.72,3.12Z"
       style="fill: #000; stroke-width: 0px;"
       id="path105" />
    <path
       d="M238.46,163.95l1.71,1.44c-1.27,1.37-2.71,2.59-4.32,3.62l-1.12-1.93c1.38-.89,2.62-1.94,3.72-3.12Z"
       style="fill: #000; stroke-width: 0px;"
       id="path106" />
    <path
       d="M234.79,133.92l1.12-1.94c1.6,1.03,3.06,2.26,4.34,3.66l-1.73,1.45c-1.11-1.2-2.36-2.27-3.74-3.16Z"
       style="fill: #000; stroke-width: 0px;"
       id="path107" />
    <text
       transform="translate(149.47 178.65) scale(.88 1)"
       style="fill: #000; font-family: GillSans-Bold, 'Gill Sans'; font-size: 10px; font-weight: 700; letter-spacing: -.04em;"
       id="text107"><tspan
         x="0"
         y="0"
         id="tspan107">Pan 3</tspan></text>
    <path
       d="M161.08,130.71c-.83,0-1.65.07-2.45.17l-.39-2.21c.93-.12,1.88-.19,2.84-.19s1.91.07,2.84.19l-.39,2.21c-.81-.1-1.62-.17-2.45-.17Z"
       style="fill: #000; stroke-width: 0px;"
       id="path108" />
    <path
       d="M146.59,137.08l-1.73-1.45c1.28-1.4,2.74-2.63,4.34-3.66l1.12,1.94c-1.38.9-2.62,1.96-3.73,3.16Z"
       style="fill: #000; stroke-width: 0px;"
       id="path109" />
    <path
       d="M152.05,132.91l-1.12-1.94c1.67-.87,3.46-1.53,5.34-1.95l.39,2.21c-1.62.37-3.16.94-4.61,1.69Z"
       style="fill: #000; stroke-width: 0px;"
       id="path110" />
    <path
       d="M142.85,142.85l-2.1-.76c.73-1.77,1.69-3.42,2.83-4.92l1.73,1.45c-.98,1.3-1.82,2.71-2.46,4.23Z"
       style="fill: #000; stroke-width: 0px;"
       id="path111" />
    <path
       d="M165.5,131.23l.39-2.21c1.88.42,3.67,1.08,5.34,1.95l-1.12,1.94c-1.44-.74-2.98-1.31-4.6-1.69Z"
       style="fill: #000; stroke-width: 0px;"
       id="path112" />
    <path
       d="M141.36,149.54h-2.26c.08-1.93.41-3.8.96-5.58l2.11.77c-.47,1.53-.73,3.15-.81,4.81Z"
       style="fill: #000; stroke-width: 0px;"
       id="path113" />
    <path
       d="M142.23,156.34l-2.1.76c-.57-1.79-.91-3.65-1.01-5.56h2.23c.09,1.65.39,3.25.88,4.8Z"
       style="fill: #000; stroke-width: 0px;"
       id="path114" />
    <path
       d="M145.37,162.42l-1.71,1.44c-1.15-1.5-2.11-3.14-2.84-4.88l2.1-.77c.64,1.5,1.46,2.91,2.45,4.2Z"
       style="fill: #000; stroke-width: 0px;"
       id="path115" />
    <path
       d="M176.85,138.62l1.73-1.45c1.14,1.5,2.1,3.15,2.83,4.92l-2.1.77c-.64-1.52-1.48-2.93-2.46-4.23Z"
       style="fill: #000; stroke-width: 0px;"
       id="path116" />
    <path
       d="M179.98,144.73l2.11-.77c.55,1.78.88,3.65.96,5.58h-2.26c-.08-1.66-.34-3.28-.81-4.81Z"
       style="fill: #000; stroke-width: 0px;"
       id="path117" />
    <path
       d="M180.81,151.54h2.23c-.09,1.91-.44,3.78-1.01,5.56l-2.1-.77c.48-1.54.79-3.15.88-4.8Z"
       style="fill: #000; stroke-width: 0px;"
       id="path118" />
    <path
       d="M179.24,158.22l2.11.77c-.73,1.74-1.69,3.38-2.84,4.88l-1.71-1.44c.99-1.3,1.81-2.71,2.45-4.2Z"
       style="fill: #000; stroke-width: 0px;"
       id="path119" />
    <path
       d="M150.39,167.07l-1.12,1.93c-1.61-1.03-3.05-2.24-4.32-3.62l1.71-1.44c1.1,1.18,2.34,2.23,3.72,3.12Z"
       style="fill: #000; stroke-width: 0px;"
       id="path120" />
    <path
       d="M175.5,163.95l1.71,1.44c-1.27,1.37-2.71,2.59-4.32,3.62l-1.12-1.93c1.38-.89,2.62-1.94,3.72-3.12Z"
       style="fill: #000; stroke-width: 0px;"
       id="path121" />
    <path
       d="M171.83,133.92l1.12-1.94c1.6,1.03,3.06,2.26,4.34,3.66l-1.73,1.45c-1.11-1.2-2.36-2.27-3.74-3.16Z"
       style="fill: #000; stroke-width: 0px;"
       id="path122" />
    <path
       d="M226.93,206.26H32.27c-7.8,0-14.17,6.38-14.17,14.17v76.54c0,3.12,2.55,5.67,5.67,5.67h211.67c3.12,0,5.67-2.55,5.67-5.67v-76.54c0-7.8-6.38-14.17-14.17-14.17Z"
       style="fill: #ededed; stroke: #000; stroke-miterlimit: 10;"
       id="path123" />
    <text
       transform="translate(25.63 247.71) scale(.88 1)"
       style="fill: #000; font-family: GillSans-Bold, 'Gill Sans'; font-size: 8px; font-weight: 700; letter-spacing: -.04em;"
       id="text123"><tspan
         x="0"
         y="0"
         id="tspan123">In 1 L</tspan></text>
    <text
       transform="translate(88.67 247.71) scale(.88 1)"
       style="fill: #000; font-family: GillSans-Bold, 'Gill Sans'; font-size: 8px; font-weight: 700; letter-spacing: -.04em;"
       id="text124"><tspan
         x="0"
         y="0"
         id="tspan124">In 2 L</tspan></text>
    <text
       transform="translate(151.7 247.71) scale(.88 1)"
       style="fill: #000; font-family: GillSans-Bold, 'Gill Sans'; font-size: 8px; font-weight: 700; letter-spacing: -.04em;"
       id="text125"><tspan
         x="0"
         y="0"
         id="tspan125">In 3 L</tspan></text>
    <text
       transform="translate(214.73 247.71) scale(.88 1)"
       style="fill: #000; font-family: GillSans-Bold, 'Gill Sans'; font-size: 8px; font-weight: 700; letter-spacing: -.04em;"
       id="text126"><tspan
         x="0"
         y="0"
         id="tspan126">In 4 L</tspan></text>
    <text
       transform="translate(25.13 296.75) scale(.88 1)"
       style="fill: #000; font-family: GillSans-Bold, 'Gill Sans'; font-size: 8px; font-weight: 700; letter-spacing: -.04em;"
       id="text127"><tspan
         x="0"
         y="0"
         id="tspan127">In 1 R</tspan></text>
    <text
       transform="translate(88.17 296.75) scale(.88 1)"
       style="fill: #000; font-family: GillSans-Bold, 'Gill Sans'; font-size: 8px; font-weight: 700; letter-spacing: -.04em;"
       id="text128"><tspan
         x="0"
         y="0"
         id="tspan128">In 2 R</tspan></text>
    <text
       transform="translate(151.2 296.75) scale(.88 1)"
       style="fill: #000; font-family: GillSans-Bold, 'Gill Sans'; font-size: 8px; font-weight: 700; letter-spacing: -.04em;"
       id="text129"><tspan
         x="0"
         y="0"
         id="tspan129">In 3 R</tspan></text>
    <text
       transform="translate(214.24 296.75) scale(.88 1)"
       style="fill: #000; font-family: GillSans-Bold, 'Gill Sans'; font-size: 8px; font-weight: 700; letter-spacing: -.04em;"
       id="text130"><tspan
         x="0"
         y="0"
         id="tspan130">In 4 R</tspan></text>
    <text
       transform="translate(159.85 326.05) scale(.88 1)"
       style="fill: #fff; font-family: GillSans-Bold, 'Gill Sans'; font-size: 10px; font-weight: 700; letter-spacing: -.04em;"
       id="text131"><tspan
         x="0"
         y="0"
         id="tspan131">L</tspan></text>
    <text
       transform="translate(228.03 326.05) scale(.88 1)"
       style="fill: #fff; font-family: GillSans-Bold, 'Gill Sans'; font-size: 10px; font-weight: 700; letter-spacing: -.04em;"
       id="text132"><tspan
         x="0"
         y="0"
         id="tspan132">R</tspan></text>
    <text
       transform="translate(95.34 357.25) scale(.82 1)"
       style="fill: #000; font-family: GillSans-Bold, 'Gill Sans'; font-size: 11px; font-weight: 700;"
       id="text133"><tspan
         x="0"
         y="0"
         id="tspan133">STEREO MIXER</tspan></text>
    <line
       x1="35.16"
       y1="91"
       x2="35.16"
       y2="129.81"
       style="fill: none; stroke: #000; stroke-miterlimit: 10; stroke-width: 2px;"
       id="line133" />
    <line
       x1="98.12"
       y1="91"
       x2="98.12"
       y2="129.81"
       style="fill: none; stroke: #000; stroke-miterlimit: 10; stroke-width: 2px;"
       id="line134" />
    <line
       x1="161.08"
       y1="91"
       x2="161.08"
       y2="129.81"
       style="fill: none; stroke: #000; stroke-miterlimit: 10; stroke-width: 2px;"
       id="line135" />
    <line
       x1="224.04"
       y1="91"
       x2="224.04"
       y2="129.81"
       style="fill: none; stroke: #000; stroke-miterlimit: 10; stroke-width: 2px;"
       id="line136" />
    <g
       id="g138">
      <path
         d="M121.4,18.07c-.37,0-.71-.17-.97-.47-.51-.6-.52-1.54-.04-2.16l6.97-8.88c.38-.48,1.05-.65,1.57-.39.5.25.79.82.79,1.45v4.77l4.64-5.85c.38-.48,1.01-.64,1.53-.38.5.25.83.81.83,1.44v8.82c0,.86-.61,1.57-1.36,1.57s-1.36-.7-1.36-1.57v-4.79l-4.64,5.85c-.38.48-1.01.64-1.54.38-.5-.24-.83-.81-.83-1.44v-4.67l-4.61,5.8c-.26.32-.62.51-1,.51h0Z"
         style="fill: #2cabe1; stroke-width: 0px;"
         id="path136" />
      <path
         d="M121.4,18.07c-.75,0-1.35-.7-1.35-1.57v-4.93l-2.26,2.84c-.5.63-1.44.65-1.97.04-.51-.6-.52-1.53-.03-2.15l4.61-5.76c.26-.32.63-.5,1-.5.18,0,.37.04.54.12.5.25.82.81.82,1.44v8.89c0,.86-.61,1.57-1.36,1.57h0Z"
         style="fill: #ea2228; stroke-width: 0px;"
         id="path137" />
      <path
         d="M138,18.09h0c-.35,0-.68-.15-.94-.42-.76-.78-.14-1.84.29-2.3l1.95-2.36-1.26-.02c-.56-.01-1.04-.4-1.24-1-.19-.56-.07-1.21.29-1.64l3.16-3.83c.23-.28.55-.48,1.13-.47.33,0,.67.17.92.4.71.66.29,1.7-.07,2.2l-1.04,1.26,1.26.02c.56.01,1.04.4,1.24,1,.19.56.07,1.21-.29,1.64l-4.1,4.97c-.35.35-.65.55-1.3.54h0Z"
         style="fill: #00a650; stroke-width: 0px;"
         id="path138" />
    </g>
  </g>
  <g
     id="components">
    <circle
       id="Right Out"
       cx="206.36"
       cy="322.18"
       r="11.34"
       style="fill: blue; stroke-width: 0px;" />
    <circle
       id="Left Out"
       cx="138.33"
       cy="322.18"
       r="11.34"
       style="fill: blue; stroke-width: 0px;" />
    <circle
       id="In_4_R"
       data-name="Ch. 4 Right In"
       cx="223.88"
       cy="271.8"
       r="11.34"
       style="fill: lime; stroke-width: 0px;" />
    <circle
       id="In_4_L"
       data-name="Ch. 4 Left In"
       cx="223.88"
       cy="222.7"
       r="11.34"
       style="fill: lime; stroke-width: 0px;" />
    <circle
       id="In_3_R"
       data-name="Ch. 3 Right In"
       cx="160.85"
       cy="271.8"
       r="11.34"
       style="fill: lime; stroke-width: 0px;" />
    <circle
       id="In_3_L"
       data-name="Ch. 3 Left In"
       cx="160.85"
       cy="222.7"
       r="11.34"
       style="fill: lime; stroke-width: 0px;" />
    <circle
       id="In_2_R"
       data-name="Ch. 2 Right In"
       cx="97.81"
       cy="271.8"
       r="11.34"
       style="fill: lime; stroke-width: 0px;" />
    <circle
       id="In_2_L"
       data-name="Ch. 2 Left In"
       cx="97.81"
       cy="222.7"
       r="11.34"
       style="fill: lime; stroke-width: 0px;" />
    <circle
       id="In_1_R"
       data-name="Ch. 1 Right In"
       cx="34.78"
       cy="271.8"
       r="11.34"
       style="fill: lime; stroke-width: 0px;" />
    <circle
       id="In_1_L"
       data-name="Ch. 1 Left In"
       cx="34.78"
       cy="222.7"
       r="11.34"
       style="fill: lime; stroke-width: 0px;" />
    <circle
       id="Pan_4"
       data-name="Ch. 4 Pan"
       cx="224.04"
       cy="150.17"
       r="17.01"
       style="fill: #ff0040; stroke-width: 0px;" />
    <circle
       id="Pan_3"
       data-name="Ch. 3 Pan"
       cx="160.97"
       cy="150.34"
       r="17.01"
       style="fill: #ff0040; stroke-width: 0px;" />
    <circle
       id="Pan_2"
       data-name="Ch. 2 Pan"
       cx="98.12"
       cy="150.17"
       r="17.01"
       style="fill: #ff0040; stroke-width: 0px;" />
    <circle
       id="Pan_1"
       data-name="Ch. 1 Pan"
       cx="35.16"
       cy="150.39"
       r="17.01"
       style="fill: #ff0040; stroke-width: 0px;" />
    <circle
       id="Level_4"
       data-name="Ch. 4 Level"
       cx="224.04"
       cy="58.02"
       r="17.01"
       style="fill: #ff0070; stroke-width: 0px;" />
    <circle
       id="Level_3"
       data-name="Ch. 3 Level"
       cx="161.08"
       cy="58.02"
       r="17.01"
       style="fill: #ff0070; stroke-width: 0px;" />
    <circle
       id="Level_2"
       data-name="Ch. 2 Level"
       cx="98.12"
       cy="58.02"
       r="17.01"
       style="fill: #ff0070; stroke-width: 0px;" />
    <circle
       id="Level_1"
       data-name="Ch. 1 Level"
       cx="35.16"
       cy="58.02"
       r="17.01"
       style="fill: #ff0070; stroke-width: 0px;" />
    <text
       id="slug"
       transform="translate(226.27 371.83)"
       style="fill: #000; font-family: MyriadPro-Regular, 'Myriad Pro'; font-size: 3px;"><tspan
         x="0"
         y="0"
         style="letter-spacing: 0em;"
         id="tspan138">S</tspan><tspan
         x="1.47"
         y="0"
         id="tspan139">t</tspan><tspan
         x="2.46"
         y="0"
         style="letter-spacing: .01em;"
         id="tspan140">M</tspan><tspan
         x="4.91"
         y="0"
         id="tspan141">ix</tspan></text>
    <text
       id="modulename"
       transform="translate(241.54 371.83)"
       style="fill: #000; font-family: MyriadPro-Regular, 'Myriad Pro'; font-size: 3px;"><tspan
         x="0"
         y="0"
         style="letter-spacing: 0em;"
         id="tspan142">S</tspan><tspan
         x="1.47"
         y="0"
         style="letter-spacing: 0em;"
         id="tspan143">t</tspan><tspan
         x="2.45"
         y="0"
         id="tspan144">e</tspan><tspan
         x="3.95"
         y="0"
         style="letter-spacing: -.01em;"
         id="tspan145">r</tspan><tspan
         x="4.9"
         y="0"
         id="tspan146">eo </tspan><tspan
         x="8.68"
         y="0"
         style="letter-spacing: .01em;"
         id="tspan147">M</tspan><tspan
         x="11.13"
         y="0"
         id="tspan148">i</tspan><tspan
         x="11.83"
         y="0"
         style="letter-spacing: -.01em;"
         id="tspan149">x</tspan><tspan
         x="13.18"
         y="0"
         id="tspan150">er</tspan></text>
  </g>
</svg>
