<?xml version="1.0" encoding="UTF-8"?>
<svg xmlns="http://www.w3.org/2000/svg" width="101.39mm" height="128.59mm" viewBox="0 0 287.4 364.5">
  <g id="faceplate">
    <rect x=".12" y=".12" width="287.15" height="364.25" style="fill: #ededed; stroke: #9d9d9e; stroke-miterlimit: 10; stroke-width: .25px;"/>
    <path d="M17.06,13.15c-2.51,0-4.54-2.03-4.54-4.54s2.03-4.54,4.54-4.54h8.44c2.5,0,4.54,2.03,4.54,4.54s-2.03,4.54-4.54,4.54h-8.44Z" style="stroke-width: 0px;"/>
    <path d="M261.71,13.15c-2.5,0-4.54-2.03-4.54-4.54s2.03-4.54,4.54-4.54h8.44c2.5,0,4.54,2.03,4.54,4.54s-2.03,4.54-4.54,4.54h-8.44Z" style="stroke-width: 0px;"/>
    <path d="M17.06,360.41c-2.51,0-4.54-2.03-4.54-4.53s2.03-4.54,4.54-4.54h8.44c2.5,0,4.54,2.03,4.54,4.54s-2.03,4.53-4.54,4.53h-8.44Z" style="stroke-width: 0px;"/>
    <path d="M261.71,360.41c-2.5,0-4.54-2.03-4.54-4.53s2.03-4.54,4.54-4.54h8.44c2.5,0,4.54,2.03,4.54,4.54s-2.03,4.53-4.54,4.53h-8.44Z" style="stroke-width: 0px;"/>
    <g>
      <path d="M166.22,72.48c5.17-7.44,13.6-12.44,23.23-12.9-4.1-4.75-8.2-9.5-12.3-14.25-1.77-2.04-3.61-4.92-6.01-6.15s-5.15-.43-7.4.62c-2.89,1.34-5.06,3.51-5.06,7.03,0,1.11.22,2.17.6,3.15" style="stroke-width: 0px;"/>
      <polygon points="170.12 36.77 156.78 42.76 160.28 53.18 176.54 44.61 170.12 36.77" style="stroke-width: 0px;"/>
    </g>
    <g>
      <path d="M121.07,72.48c-5.17-7.44-13.6-12.44-23.23-12.9,4.1-4.75,8.2-9.5,12.3-14.25,1.77-2.04,3.61-4.92,6.01-6.15s5.15-.43,7.4.62c2.89,1.34,5.06,3.51,5.06,7.03,0,1.11-.22,2.17-.6,3.15" style="stroke-width: 0px;"/>
      <polygon points="117.17 36.77 130.5 42.76 127 53.18 110.74 44.61 117.17 36.77" style="stroke-width: 0px;"/>
    </g>
    <path d="M89.14,240.2l27.07-104.67h0c1.4-5.3,6.22-9.2,11.95-9.2h31.15c5.73,0,10.55,3.9,11.95,9.19h0s27.07,104.68,27.07,104.68" style="stroke-width: 0px;"/>
    <path d="M198.76,244.52c0,6.61-3.6,12.38-8.94,15.47l-1.24.65-35.73,18.69h0c-2.73,1.51-5.85,2.52-9.22,2.52s-6.49-1.02-9.22-2.52l-35.73-18.69-1.24-.65c-5.34-3.09-8.94-8.85-8.94-15.47,0-1.15.11-2.27.32-3.36,1.57-8.26,8.84-14.51,17.56-14.51h74.55c9.87,0,17.87,8,17.87,17.87Z" style="stroke-width: 0px;"/>
    <path d="M88.46,234.15c0-1.15.11-2.27.32-3.36,1.57-8.26,8.84-14.51,17.56-14.51h74.55c9.87,0,17.87,8,17.87,17.87" style="fill: none; stroke: #ededed; stroke-miterlimit: 10; stroke-width: 2px;"/>
    <g>
      <path d="M143.25,293.38c0,3.84-3.12,6.96-6.96,6.96,3.84,0,6.96,3.12,6.96,6.96,0-3.84,3.12-6.96,6.96-6.96-3.84,0-6.96-3.12-6.96-6.96Z" style="fill: #231f20; stroke: #000;"/>
      <line x1="143.25" y1="293.38" x2="143.25" y2="281.74" style="fill: none; stroke: #000;"/>
      <path d="M152.22,343.49c-4.97,0-9-4.03-9-9h0c0,4.97-4.03,9-9,9" style="fill: none; stroke: #000;"/>
      <polyline points="25.12 343.34 21.66 343.34 134.22 343.49" style="fill: none; stroke: #000;"/>
      <g>
        <line x1="8.05" y1="296.85" x2="8.05" y2="304.05" style="fill: none; stroke: #000; stroke-linecap: round;"/>
        <path d="M8.03,304.05v28.89s0,1.4,0,1.4c0,4.97,4.03,9,9,9h4.65" style="fill: none; stroke: #000;"/>
        <path d="M89.38,248.59c-.44-9.8-7.33-17.42-17.15-17.42h0s-46.34.13-46.34.13c-1,0-1.98.1-2.94.26-1.65,3.47-5.17,5.88-9.26,5.88-.42,0-.82-.03-1.23-.08-2.75,3.12-4.44,7.19-4.44,11.66v47.84" style="fill: none; stroke: #000;"/>
      </g>
      <polyline points="262.03 343.34 265.48 343.34 152.92 343.49" style="fill: none; stroke: #000;"/>
      <g>
        <line x1="279.21" y1="296.85" x2="279.21" y2="304.05" style="fill: none; stroke: #000; stroke-linecap: round;"/>
        <path d="M279.23,304.05v28.89s0,1.4,0,1.4c0,4.97-4.03,9-9,9h-4.65" style="fill: none; stroke: #000;"/>
        <path d="M197.88,248.59c.44-9.8,7.33-17.42,17.15-17.42h0s46.34.13,46.34.13c1,0,1.98.1,2.94.26,1.65,3.47,5.17,5.88,9.26,5.88.42,0,.82-.03,1.23-.08,2.75,3.12,4.44,7.19,4.44,11.66v47.84" style="fill: none; stroke: #000;"/>
      </g>
    </g>
    <line x1="143.25" y1="334.37" x2="143.25" y2="306.1" style="fill: none; stroke: #231f20;"/>
    <line x1="270.11" y1="343.34" x2="152.22" y2="343.49" style="fill: none; stroke: #231f20;"/>
    <text transform="translate(28.08 82.43) scale(.88 1)" style="font-family: GillSans-Bold, &apos;Gill Sans&apos;; font-size: 9px; font-weight: 700; letter-spacing: -.04em;"><tspan x="0" y="0">Pitch</tspan></text>
    <text transform="translate(19.02 150.25) scale(.88 1)" style="font-family: GillSans-Bold, &apos;Gill Sans&apos;; font-size: 9px; font-weight: 700; letter-spacing: -.04em;"><tspan x="0" y="0">Start Pos.</tspan></text>
    <text transform="translate(240.14 82.43) scale(.88 1)" style="font-family: GillSans-Bold, &apos;Gill Sans&apos;; font-size: 9px; font-weight: 700; letter-spacing: -.04em;"><tspan x="0" y="0">Pitch</tspan></text>
    <text transform="translate(82.11 118.1) scale(.88 1)" style="font-family: GillSans-Bold, &apos;Gill Sans&apos;; font-size: 9px; font-weight: 700; letter-spacing: -.04em;"><tspan x="0" y="0">Sample</tspan></text>
    <text transform="translate(177.2 118.1) scale(.88 1)" style="font-family: GillSans-Bold, &apos;Gill Sans&apos;; font-size: 9px; font-weight: 700; letter-spacing: -.04em;"><tspan x="0" y="0">Sample</tspan></text>
    <text transform="translate(129.52 211.49) scale(.88 1)" style="fill: #fff; font-family: GillSans-Bold, &apos;Gill Sans&apos;; font-size: 9px; font-weight: 700; letter-spacing: -.04em;"><tspan x="0" y="0">Sample</tspan></text>
    <text transform="translate(244.02 268.66) scale(.88 1)" style="font-family: GillSans-Bold, &apos;Gill Sans&apos;; font-size: 9px; font-weight: 700; letter-spacing: -.04em;"><tspan x="0" y="0">OUT (R)</tspan></text>
    <text transform="translate(12.55 268.66) scale(.88 1)" style="font-size: 9px; letter-spacing: -.04em;"><tspan x="0" y="0" style="font-family: GillSans-Bold, &apos;Gill Sans&apos;; font-weight: 700;">OUT (L)</tspan><tspan x="35.13" y="0" style="font-family: GillSans, &apos;Gill Sans&apos;;"> </tspan></text>
    <text transform="translate(54.22 268.23) scale(.88 1)" style="font-family: GillSans-SemiBold, &apos;Gill Sans&apos;; font-size: 8px; font-weight: 600; letter-spacing: -.04em;"><tspan x="0" y="0">1V/OCT</tspan></text>
    <text transform="translate(208.11 268.23) scale(.88 1)" style="font-family: GillSans-SemiBold, &apos;Gill Sans&apos;; font-size: 8px; font-weight: 600; letter-spacing: -.04em;"><tspan x="0" y="0">1V/OCT</tspan></text>
    <text transform="translate(55.47 340.1) scale(.88 1)" style="font-family: GillSans-SemiBold, &apos;Gill Sans&apos;; font-size: 8px; font-weight: 600; letter-spacing: -.04em;"><tspan x="0" y="0">Start Pos CV</tspan></text>
    <text transform="translate(14.97 340.1) scale(.88 1)" style="font-family: GillSans-SemiBold, &apos;Gill Sans&apos;; font-size: 8px; font-weight: 600; letter-spacing: -.04em;"><tspan x="0" y="0">Length CV</tspan></text>
    <text transform="translate(242.73 340.1) scale(.88 1)" style="font-family: GillSans-SemiBold, &apos;Gill Sans&apos;; font-size: 8px; font-weight: 600; letter-spacing: -.04em;"><tspan x="0" y="0">Length CV</tspan></text>
    <text transform="translate(195.53 340.1) scale(.88 1)" style="font-family: GillSans-SemiBold, &apos;Gill Sans&apos;; font-size: 8px; font-weight: 600; letter-spacing: -.04em;"><tspan x="0" y="0">Start Pos CV</tspan></text>
    <text transform="translate(104.68 340.1) scale(.88 1)" style="font-family: GillSans-SemiBold, &apos;Gill Sans&apos;; font-size: 8px; font-weight: 600; letter-spacing: -.04em;"><tspan x="0" y="0">Sample CV</tspan></text>
    <text transform="translate(151.51 340.1) scale(.88 1)" style="font-family: GillSans-SemiBold, &apos;Gill Sans&apos;; font-size: 8px; font-weight: 600; letter-spacing: -.04em;"><tspan x="0" y="0">Sample CV</tspan></text>
    <text transform="translate(24.48 303.17) scale(.88 1)" style="font-family: GillSans-SemiBold, &apos;Gill Sans&apos;; font-size: 8px; font-weight: 600; letter-spacing: -.04em;"><tspan x="0" y="0">Play</tspan></text>
    <text transform="translate(251.09 198.76) scale(.88 1)" style="font-family: GillSans-Bold, &apos;Gill Sans&apos;; font-size: 9px; font-weight: 700; letter-spacing: -.04em;"><tspan x="0" y="0">Reverse</tspan></text>
    <text transform="translate(6 198.76) scale(.88 1)" style="font-family: GillSans-Bold, &apos;Gill Sans&apos;; font-size: 9px; font-weight: 700; letter-spacing: -.04em;"><tspan x="0" y="0">Reverse</tspan></text>
    <text transform="translate(103.38 303.27) scale(.88 1)" style="font-family: GillSans-SemiBold, &apos;Gill Sans&apos;; font-size: 8px; font-weight: 600; letter-spacing: -.04em;"><tspan x="0" y="0">Reverse</tspan></text>
    <text transform="translate(56.72 303.19) scale(.88 1)" style="font-family: GillSans-SemiBold, &apos;Gill Sans&apos;; font-size: 8px; font-weight: 600; letter-spacing: -.04em;"><tspan x="0" y="0">End Out</tspan></text>
    <text transform="translate(206.88 303.19) scale(.88 1)" style="font-family: GillSans-SemiBold, &apos;Gill Sans&apos;; font-size: 8px; font-weight: 600; letter-spacing: -.04em;"><tspan x="0" y="0">End Out</tspan></text>
    <text transform="translate(114.61 156.64) scale(.88 1)" style="fill: #fff; font-family: GillSans-Bold, &apos;Gill Sans&apos;; font-size: 9px; font-weight: 700; letter-spacing: -.04em;"><tspan x="0" y="0">REC</tspan></text>
    <text transform="translate(70.72 34.14) scale(.88 1)" style="font-family: GillSans-Bold, &apos;Gill Sans&apos;; font-size: 9px; font-weight: 700; letter-spacing: -.04em;"><tspan x="0" y="0">PLAY</tspan></text>
    <text transform="translate(194.4 34.14) scale(.88 1)" style="font-family: GillSans-Bold, &apos;Gill Sans&apos;; font-size: 9px; font-weight: 700; letter-spacing: -.04em;"><tspan x="0" y="0">PLAY</tspan></text>
    <text transform="translate(154.09 156.35) scale(.88 1)" style="fill: #fff; font-family: GillSans-Bold, &apos;Gill Sans&apos;; font-size: 9px; font-weight: 700; letter-spacing: -.04em;"><tspan x="0" y="0">Bank</tspan></text>
    <text transform="translate(107.45 51.31) rotate(30) scale(.88 1)" style="fill: #ededed; font-family: GillSans-Bold, &apos;Gill Sans&apos;; font-size: 8px; font-weight: 700; letter-spacing: -.04em;"><tspan x="0" y="0">Bank</tspan></text>
    <text transform="translate(164.43 59.82) rotate(-30) scale(.88 1)" style="fill: #ededed; font-family: GillSans-Bold, &apos;Gill Sans&apos;; font-size: 8px; font-weight: 700; letter-spacing: -.04em;"><tspan x="0" y="0">Bank</tspan></text>
    <text transform="translate(134.01 34.14) scale(.88 1)" style="font-family: GillSans-Bold, &apos;Gill Sans&apos;; font-size: 7px; font-weight: 700; letter-spacing: -.04em;"><tspan x="0" y="0">Stereo</tspan></text>
    <path d="M249.53,103.17c-.83,0-1.65.07-2.45.17l-.39-2.21c.93-.12,1.88-.19,2.84-.19s1.91.07,2.84.19l-.39,2.21c-.81-.1-1.62-.17-2.45-.17Z" style="stroke-width: 0px;"/>
    <path d="M235.04,109.54l-1.73-1.45c1.28-1.4,2.74-2.63,4.34-3.66l1.12,1.94c-1.38.9-2.62,1.96-3.73,3.16Z" style="stroke-width: 0px;"/>
    <path d="M240.51,105.37l-1.12-1.94c1.67-.87,3.46-1.53,5.34-1.96l.39,2.21c-1.62.37-3.16.94-4.61,1.69Z" style="stroke-width: 0px;"/>
    <path d="M231.3,115.31l-2.1-.76c.73-1.77,1.69-3.42,2.83-4.92l1.73,1.45c-.98,1.3-1.82,2.71-2.46,4.23Z" style="stroke-width: 0px;"/>
    <path d="M253.96,103.68l.39-2.21c1.88.42,3.67,1.08,5.34,1.95l-1.12,1.94c-1.44-.74-2.98-1.31-4.6-1.69Z" style="stroke-width: 0px;"/>
    <path d="M229.82,122h-2.26c.08-1.93.41-3.8.96-5.58l2.11.77c-.47,1.53-.73,3.15-.81,4.81Z" style="stroke-width: 0px;"/>
    <path d="M230.68,128.8l-2.1.76c-.57-1.79-.91-3.65-1.01-5.56h2.23c.09,1.65.39,3.25.88,4.8Z" style="stroke-width: 0px;"/>
    <path d="M233.82,134.88l-1.71,1.44c-1.15-1.5-2.11-3.14-2.84-4.88l2.1-.77c.64,1.5,1.46,2.91,2.45,4.2Z" style="stroke-width: 0px;"/>
    <path d="M265.31,111.07l1.73-1.45c1.14,1.5,2.1,3.15,2.83,4.92l-2.1.77c-.64-1.52-1.48-2.93-2.46-4.23Z" style="stroke-width: 0px;"/>
    <path d="M268.44,117.19l2.11-.77c.55,1.78.88,3.65.96,5.58h-2.26c-.08-1.66-.34-3.28-.81-4.81Z" style="stroke-width: 0px;"/>
    <path d="M269.26,124h2.23c-.09,1.91-.44,3.78-1.01,5.56l-2.1-.77c.48-1.54.79-3.15.88-4.8Z" style="stroke-width: 0px;"/>
    <path d="M267.7,130.68l2.11.77c-.73,1.74-1.69,3.38-2.84,4.87l-1.71-1.44c.99-1.3,1.81-2.71,2.45-4.2Z" style="stroke-width: 0px;"/>
    <path d="M238.84,139.52l-1.12,1.93c-1.61-1.03-3.05-2.24-4.32-3.62l1.71-1.44c1.1,1.18,2.34,2.23,3.72,3.12Z" style="stroke-width: 0px;"/>
    <path d="M263.95,136.4l1.71,1.44c-1.27,1.37-2.71,2.59-4.32,3.62l-1.12-1.93c1.38-.89,2.63-1.94,3.72-3.12Z" style="stroke-width: 0px;"/>
    <path d="M260.29,106.37l1.12-1.94c1.6,1.03,3.06,2.26,4.34,3.66l-1.73,1.45c-1.11-1.2-2.36-2.27-3.74-3.16Z" style="stroke-width: 0px;"/>
    <path d="M37.32,103.42c-.83,0-1.65.07-2.45.17l-.39-2.21c.93-.12,1.88-.19,2.84-.19s1.91.07,2.84.19l-.39,2.21c-.81-.1-1.62-.17-2.45-.17Z" style="stroke-width: 0px;"/>
    <path d="M22.83,109.79l-1.73-1.45c1.28-1.4,2.74-2.63,4.34-3.66l1.12,1.94c-1.38.9-2.62,1.96-3.73,3.16Z" style="stroke-width: 0px;"/>
    <path d="M28.29,105.62l-1.12-1.94c1.67-.87,3.46-1.53,5.34-1.96l.39,2.21c-1.62.37-3.16.94-4.61,1.69Z" style="stroke-width: 0px;"/>
    <path d="M19.09,115.56l-2.1-.76c.73-1.77,1.69-3.42,2.83-4.92l1.73,1.45c-.98,1.3-1.82,2.71-2.46,4.23Z" style="stroke-width: 0px;"/>
    <path d="M41.74,103.94l.39-2.21c1.88.42,3.67,1.08,5.34,1.95l-1.12,1.94c-1.44-.74-2.98-1.31-4.6-1.69Z" style="stroke-width: 0px;"/>
    <path d="M17.6,122.26h-2.26c.08-1.93.41-3.8.96-5.58l2.11.77c-.47,1.53-.73,3.15-.81,4.81Z" style="stroke-width: 0px;"/>
    <path d="M18.47,129.05l-2.1.76c-.57-1.79-.91-3.65-1.01-5.56h2.23c.09,1.65.39,3.25.88,4.8Z" style="stroke-width: 0px;"/>
    <path d="M21.61,135.14l-1.71,1.44c-1.15-1.5-2.11-3.14-2.84-4.88l2.1-.77c.64,1.5,1.46,2.91,2.45,4.2Z" style="stroke-width: 0px;"/>
    <path d="M53.09,111.33l1.73-1.45c1.14,1.5,2.1,3.15,2.83,4.92l-2.1.77c-.64-1.52-1.48-2.93-2.46-4.23Z" style="stroke-width: 0px;"/>
    <path d="M56.22,117.44l2.11-.77c.55,1.78.88,3.65.96,5.58h-2.26c-.08-1.66-.34-3.28-.81-4.81Z" style="stroke-width: 0px;"/>
    <path d="M57.05,124.25h2.23c-.09,1.91-.44,3.78-1.01,5.56l-2.1-.77c.48-1.54.79-3.15.88-4.8Z" style="stroke-width: 0px;"/>
    <path d="M55.48,130.93l2.11.77c-.73,1.74-1.69,3.38-2.84,4.87l-1.71-1.44c.99-1.3,1.81-2.71,2.45-4.2Z" style="stroke-width: 0px;"/>
    <path d="M26.63,139.78l-1.12,1.93c-1.61-1.03-3.05-2.24-4.32-3.62l1.71-1.44c1.1,1.18,2.34,2.23,3.72,3.12Z" style="stroke-width: 0px;"/>
    <path d="M51.74,136.66l1.71,1.44c-1.27,1.37-2.71,2.59-4.32,3.62l-1.12-1.93c1.38-.89,2.62-1.94,3.72-3.12Z" style="stroke-width: 0px;"/>
    <path d="M48.07,106.63l1.12-1.94c1.6,1.03,3.06,2.26,4.34,3.66l-1.73,1.45c-1.11-1.2-2.36-2.27-3.74-3.16Z" style="stroke-width: 0px;"/>
    <path d="M37.67,34.54c-.83,0-1.65.07-2.45.17l-.39-2.21c.93-.12,1.88-.19,2.84-.19s1.91.07,2.84.19l-.39,2.21c-.81-.1-1.62-.17-2.45-.17Z" style="stroke-width: 0px;"/>
    <path d="M23.18,40.91l-1.73-1.45c1.28-1.4,2.74-2.63,4.34-3.66l1.12,1.94c-1.38.9-2.62,1.96-3.73,3.16Z" style="stroke-width: 0px;"/>
    <path d="M28.64,36.74l-1.12-1.94c1.67-.87,3.46-1.53,5.34-1.95l.39,2.21c-1.62.37-3.16.94-4.61,1.69Z" style="stroke-width: 0px;"/>
    <path d="M19.44,46.68l-2.1-.76c.73-1.77,1.69-3.42,2.83-4.92l1.73,1.45c-.98,1.3-1.82,2.71-2.46,4.23Z" style="stroke-width: 0px;"/>
    <path d="M42.09,35.05l.39-2.21c1.88.42,3.67,1.08,5.34,1.95l-1.12,1.94c-1.44-.74-2.98-1.31-4.6-1.69Z" style="stroke-width: 0px;"/>
    <path d="M17.96,53.37h-2.26c.08-1.93.41-3.8.96-5.58l2.11.77c-.47,1.53-.73,3.15-.81,4.81Z" style="stroke-width: 0px;"/>
    <path d="M18.82,60.17l-2.1.76c-.57-1.79-.91-3.65-1.01-5.56h2.23c.09,1.65.39,3.25.88,4.8Z" style="stroke-width: 0px;"/>
    <path d="M21.96,66.25l-1.71,1.44c-1.15-1.5-2.11-3.14-2.84-4.88l2.1-.77c.64,1.5,1.46,2.91,2.45,4.2Z" style="stroke-width: 0px;"/>
    <path d="M53.45,42.44l1.73-1.45c1.14,1.5,2.1,3.15,2.83,4.92l-2.1.77c-.64-1.52-1.48-2.93-2.46-4.23Z" style="stroke-width: 0px;"/>
    <path d="M56.58,48.56l2.11-.77c.55,1.78.88,3.65.96,5.58h-2.26c-.08-1.66-.34-3.28-.81-4.81Z" style="stroke-width: 0px;"/>
    <path d="M57.4,55.37h2.23c-.09,1.91-.44,3.78-1.01,5.56l-2.1-.77c.48-1.54.79-3.15.88-4.8Z" style="stroke-width: 0px;"/>
    <path d="M55.84,62.05l2.11.77c-.73,1.74-1.69,3.38-2.84,4.87l-1.71-1.44c.99-1.3,1.81-2.71,2.45-4.2Z" style="stroke-width: 0px;"/>
    <path d="M26.98,70.9l-1.12,1.93c-1.61-1.03-3.05-2.24-4.32-3.62l1.71-1.44c1.1,1.18,2.34,2.23,3.72,3.12Z" style="stroke-width: 0px;"/>
    <path d="M52.09,67.78l1.71,1.44c-1.27,1.37-2.71,2.59-4.32,3.62l-1.12-1.93c1.38-.89,2.62-1.94,3.72-3.12Z" style="stroke-width: 0px;"/>
    <path d="M48.43,37.74l1.12-1.94c1.6,1.03,3.06,2.26,4.34,3.66l-1.73,1.45c-1.11-1.2-2.36-2.27-3.74-3.16Z" style="stroke-width: 0px;"/>
    <path d="M249.73,34.54c-.83,0-1.65.07-2.45.17l-.39-2.21c.93-.12,1.88-.19,2.84-.19s1.91.07,2.84.19l-.39,2.21c-.81-.1-1.62-.17-2.45-.17Z" style="stroke-width: 0px;"/>
    <path d="M235.24,40.91l-1.73-1.45c1.28-1.4,2.74-2.63,4.34-3.66l1.12,1.94c-1.38.9-2.62,1.96-3.73,3.16Z" style="stroke-width: 0px;"/>
    <path d="M240.7,36.74l-1.12-1.94c1.67-.87,3.46-1.53,5.34-1.95l.39,2.21c-1.62.37-3.16.94-4.61,1.69Z" style="stroke-width: 0px;"/>
    <path d="M231.5,46.68l-2.1-.76c.73-1.77,1.69-3.42,2.83-4.92l1.73,1.45c-.98,1.3-1.82,2.71-2.46,4.23Z" style="stroke-width: 0px;"/>
    <path d="M254.15,35.05l.39-2.21c1.88.42,3.67,1.08,5.34,1.95l-1.12,1.94c-1.44-.74-2.98-1.31-4.6-1.69Z" style="stroke-width: 0px;"/>
    <path d="M230.01,53.37h-2.26c.08-1.93.41-3.8.96-5.58l2.11.77c-.47,1.53-.73,3.15-.81,4.81Z" style="stroke-width: 0px;"/>
    <path d="M230.88,60.17l-2.1.76c-.57-1.79-.91-3.65-1.01-5.56h2.23c.09,1.65.39,3.25.88,4.8Z" style="stroke-width: 0px;"/>
    <path d="M234.02,66.25l-1.71,1.44c-1.15-1.5-2.11-3.14-2.84-4.88l2.1-.77c.64,1.5,1.46,2.91,2.45,4.2Z" style="stroke-width: 0px;"/>
    <path d="M265.5,42.44l1.73-1.45c1.14,1.5,2.1,3.15,2.83,4.92l-2.1.77c-.64-1.52-1.48-2.93-2.46-4.23Z" style="stroke-width: 0px;"/>
    <path d="M268.64,48.56l2.11-.77c.55,1.78.88,3.65.96,5.58h-2.26c-.08-1.66-.34-3.28-.81-4.81Z" style="stroke-width: 0px;"/>
    <path d="M269.46,55.37h2.23c-.09,1.91-.44,3.78-1.01,5.56l-2.1-.77c.48-1.54.79-3.15.88-4.8Z" style="stroke-width: 0px;"/>
    <path d="M267.89,62.05l2.11.77c-.73,1.74-1.69,3.38-2.84,4.87l-1.71-1.44c.99-1.3,1.81-2.71,2.45-4.2Z" style="stroke-width: 0px;"/>
    <path d="M239.04,70.9l-1.12,1.93c-1.61-1.03-3.05-2.24-4.32-3.62l1.71-1.44c1.1,1.18,2.34,2.23,3.72,3.12Z" style="stroke-width: 0px;"/>
    <path d="M264.15,67.78l1.71,1.44c-1.27,1.37-2.71,2.59-4.32,3.62l-1.12-1.93c1.38-.89,2.62-1.94,3.72-3.12Z" style="stroke-width: 0px;"/>
    <path d="M260.49,37.74l1.12-1.94c1.6,1.03,3.06,2.26,4.34,3.66l-1.73,1.45c-1.11-1.2-2.36-2.27-3.74-3.16Z" style="stroke-width: 0px;"/>
    <text transform="translate(56.1 216.4) scale(.88 1)" style="font-family: GillSans-Bold, &apos;Gill Sans&apos;; font-size: 9px; font-weight: 700; letter-spacing: -.04em;"><tspan x="0" y="0">Length</tspan></text>
    <text transform="translate(70.33 356.7) scale(.82 1)" style="font-family: GillSans-Bold, &apos;Gill Sans&apos;; font-size: 11px; font-weight: 700;"><tspan x="0" y="0">STEREO TRIGGERED SAMPLER</tspan></text>
    <g>
      <path d="M150.73,8.93s-4.37,5.55-6.92,8.79v-7.53c0-.65-.32-1.23-.8-1.47-.49-.24-1.05-.09-1.41.37l-9.09,11.56c-.49.63-.48,1.63.04,2.24.51.6,1.33.59,1.82-.04,0,0,4.34-5.51,6.87-8.73v7.53c0,.65.32,1.23.81,1.47.49.24,1.05.1,1.41-.37,0,0,4.37-5.56,6.91-8.79v7.69c0,.88.57,1.58,1.29,1.58s1.29-.71,1.29-1.58v-11.61c0-.65-.32-1.23-.81-1.47-.49-.24-1.04-.1-1.41.37Z" style="stroke: #000; stroke-width: .96px;"/>
      <path d="M132.5,8.84l-6.02,7.66c-.5.63-.48,1.63.03,2.24.52.61,1.33.59,1.83-.04,0,0,2.03-2.58,3.81-4.84v7.88c0,.87.57,1.58,1.29,1.58s1.29-.71,1.29-1.58v-11.8c0-.65-.32-1.23-.81-1.47-.49-.24-1.05-.09-1.41.37Z" style="stroke: #000; stroke-width: .96px;"/>
      <path d="M161.18,14.49c-.2-.58-.67-.96-1.19-.96h-2.63l1.92-2.44s1-1.47.11-2.27c-.88-.81-1.97.08-1.97.08l-4.03,5.12c-.36.46-.46,1.13-.26,1.72.2.58.67.96,1.19.96h2.63l-3.12,3.96s-1.29,1.41-.34,2.36c.96.96,2.2-.17,2.2-.17l5.22-6.64c.36-.46.46-1.13.26-1.72Z" style="stroke: #000; stroke-width: .96px;"/>
    </g>
    <text transform="translate(205.03 216.4) scale(.88 1)" style="font-family: GillSans-Bold, &apos;Gill Sans&apos;; font-size: 9px; font-weight: 700; letter-spacing: -.04em;"><tspan x="0" y="0">Length</tspan></text>
    <g>
      <path d="M218.02,169.79c-.83,0-1.65.07-2.45.17l-.39-2.21c.93-.12,1.88-.19,2.84-.19s1.91.07,2.84.19l-.39,2.21c-.81-.1-1.62-.17-2.45-.17Z" style="stroke-width: 0px;"/>
      <path d="M203.53,176.16l-1.73-1.45c1.28-1.4,2.74-2.63,4.34-3.66l1.12,1.94c-1.38.9-2.62,1.96-3.73,3.16Z" style="stroke-width: 0px;"/>
      <path d="M209,171.99l-1.12-1.94c1.67-.87,3.46-1.53,5.34-1.96l.39,2.21c-1.62.37-3.16.94-4.61,1.69Z" style="stroke-width: 0px;"/>
      <path d="M199.79,181.93l-2.1-.76c.73-1.77,1.69-3.42,2.83-4.92l1.73,1.45c-.98,1.3-1.82,2.71-2.46,4.23Z" style="stroke-width: 0px;"/>
      <path d="M222.45,170.31l.39-2.21c1.88.42,3.67,1.08,5.34,1.95l-1.12,1.94c-1.44-.74-2.98-1.31-4.6-1.69Z" style="stroke-width: 0px;"/>
      <path d="M198.31,188.63h-2.26c.08-1.93.41-3.8.96-5.58l2.11.77c-.47,1.53-.73,3.15-.81,4.81Z" style="stroke-width: 0px;"/>
      <path d="M199.17,195.42l-2.1.76c-.57-1.79-.91-3.65-1.01-5.56h2.23c.09,1.65.39,3.25.88,4.8Z" style="stroke-width: 0px;"/>
      <path d="M202.31,201.51l-1.71,1.44c-1.15-1.5-2.11-3.14-2.84-4.88l2.1-.77c.64,1.5,1.46,2.91,2.45,4.2Z" style="stroke-width: 0px;"/>
      <path d="M233.8,177.7l1.73-1.45c1.14,1.5,2.1,3.15,2.83,4.92l-2.1.77c-.64-1.52-1.48-2.93-2.46-4.23Z" style="stroke-width: 0px;"/>
      <path d="M236.93,183.81l2.11-.77c.55,1.78.88,3.65.96,5.58h-2.26c-.08-1.66-.34-3.28-.81-4.81Z" style="stroke-width: 0px;"/>
      <path d="M237.75,190.62h2.23c-.09,1.91-.44,3.78-1.01,5.56l-2.1-.77c.48-1.54.79-3.15.88-4.8Z" style="stroke-width: 0px;"/>
      <path d="M236.19,197.3l2.11.77c-.73,1.74-1.69,3.38-2.84,4.87l-1.71-1.44c.99-1.3,1.81-2.71,2.45-4.2Z" style="stroke-width: 0px;"/>
      <path d="M207.33,206.15l-1.12,1.93c-1.61-1.03-3.05-2.24-4.32-3.62l1.71-1.44c1.1,1.18,2.34,2.23,3.72,3.12Z" style="stroke-width: 0px;"/>
      <path d="M232.44,203.03l1.71,1.44c-1.27,1.37-2.71,2.59-4.32,3.62l-1.12-1.93c1.38-.89,2.62-1.94,3.72-3.12Z" style="stroke-width: 0px;"/>
      <path d="M228.78,173l1.12-1.94c1.6,1.03,3.06,2.26,4.34,3.66l-1.73,1.45c-1.11-1.2-2.36-2.27-3.74-3.16Z" style="stroke-width: 0px;"/>
    </g>
    <g>
      <path d="M69.15,169.79c-.83,0-1.65.07-2.45.17l-.39-2.21c.93-.12,1.88-.19,2.84-.19s1.91.07,2.84.19l-.39,2.21c-.81-.1-1.62-.17-2.45-.17Z" style="stroke-width: 0px;"/>
      <path d="M54.65,176.16l-1.73-1.45c1.28-1.4,2.74-2.63,4.34-3.66l1.12,1.94c-1.38.9-2.62,1.96-3.73,3.16Z" style="stroke-width: 0px;"/>
      <path d="M60.12,171.99l-1.12-1.94c1.67-.87,3.46-1.53,5.34-1.96l.39,2.21c-1.62.37-3.16.94-4.61,1.69Z" style="stroke-width: 0px;"/>
      <path d="M50.91,181.93l-2.1-.76c.73-1.77,1.69-3.42,2.83-4.92l1.73,1.45c-.98,1.3-1.82,2.71-2.46,4.23Z" style="stroke-width: 0px;"/>
      <path d="M73.57,170.31l.39-2.21c1.88.42,3.67,1.08,5.34,1.95l-1.12,1.94c-1.44-.74-2.98-1.31-4.6-1.69Z" style="stroke-width: 0px;"/>
      <path d="M49.43,188.63h-2.26c.08-1.93.41-3.8.96-5.58l2.11.77c-.47,1.53-.73,3.15-.81,4.81Z" style="stroke-width: 0px;"/>
      <path d="M50.29,195.42l-2.1.76c-.57-1.79-.91-3.65-1.01-5.56h2.23c.09,1.65.39,3.25.88,4.8Z" style="stroke-width: 0px;"/>
      <path d="M53.43,201.51l-1.71,1.44c-1.15-1.5-2.11-3.14-2.84-4.88l2.1-.77c.64,1.5,1.46,2.91,2.45,4.2Z" style="stroke-width: 0px;"/>
      <path d="M84.92,177.7l1.73-1.45c1.14,1.5,2.1,3.15,2.83,4.92l-2.1.77c-.64-1.52-1.48-2.93-2.46-4.23Z" style="stroke-width: 0px;"/>
      <path d="M88.05,183.81l2.11-.77c.55,1.78.88,3.65.96,5.58h-2.26c-.08-1.66-.34-3.28-.81-4.81Z" style="stroke-width: 0px;"/>
      <path d="M88.87,190.62h2.23c-.09,1.91-.44,3.78-1.01,5.56l-2.1-.77c.48-1.54.79-3.15.88-4.8Z" style="stroke-width: 0px;"/>
      <path d="M87.31,197.3l2.11.77c-.73,1.74-1.69,3.38-2.84,4.87l-1.71-1.44c.99-1.3,1.81-2.71,2.45-4.2Z" style="stroke-width: 0px;"/>
      <path d="M58.45,206.15l-1.12,1.93c-1.61-1.03-3.05-2.24-4.32-3.62l1.71-1.44c1.1,1.18,2.34,2.23,3.72,3.12Z" style="stroke-width: 0px;"/>
      <path d="M83.56,203.03l1.71,1.44c-1.27,1.37-2.71,2.59-4.32,3.62l-1.12-1.93c1.38-.89,2.62-1.94,3.72-3.12Z" style="stroke-width: 0px;"/>
      <path d="M79.9,173l1.12-1.94c1.6,1.03,3.06,2.26,4.34,3.66l-1.73,1.45c-1.11-1.2-2.36-2.27-3.74-3.16Z" style="stroke-width: 0px;"/>
    </g>
    <text transform="translate(86.58 210.12) scale(.88 1)" style="font-family: GillSans-SemiBold, &apos;Gill Sans&apos;; font-size: 6px; font-weight: 600; letter-spacing: -.04em;"><tspan x="0" y="0">All</tspan></text>
    <text transform="translate(234.94 210.12) scale(.88 1)" style="font-family: GillSans-SemiBold, &apos;Gill Sans&apos;; font-size: 6px; font-weight: 600; letter-spacing: -.04em;"><tspan x="0" y="0">All</tspan></text>
    <text transform="translate(169.52 303.27) scale(.88 1)" style="font-family: GillSans-SemiBold, &apos;Gill Sans&apos;; font-size: 8px; font-weight: 600; letter-spacing: -.04em;"><tspan x="0" y="0">Reverse</tspan></text>
    <text transform="translate(257.65 303.22) scale(.88 1)" style="font-family: GillSans-SemiBold, &apos;Gill Sans&apos;; font-size: 8px; font-weight: 600; letter-spacing: -.04em;"><tspan x="0" y="0">Play</tspan></text>
    <text transform="translate(117.34 268.66) scale(.88 1)" style="fill: #fff; font-family: GillSans-SemiBold, &apos;Gill Sans&apos;; font-size: 8px; font-weight: 600; letter-spacing: -.04em;"><tspan x="0" y="0">Rec</tspan></text>
    <text transform="translate(147.47 247.47) scale(.88 1)" style="fill: #fff; font-family: GillSans-SemiBold, &apos;Gill Sans&apos;; font-size: 8px; font-weight: 600; letter-spacing: -.04em;"><tspan x="0" y="0">Busy</tspan></text>
    <text transform="translate(120.45 247.47) scale(.88 1)" style="fill: #fff; font-family: GillSans-SemiBold, &apos;Gill Sans&apos;; font-size: 8px; font-weight: 600; letter-spacing: -.04em;"><tspan x="0" y="0">Monitor</tspan></text>
    <text transform="translate(124.43 227.02) scale(.88 1)" style="fill: #fff; font-family: GillSans-Bold, &apos;Gill Sans&apos;; font-size: 9px; font-weight: 700; letter-spacing: .05em;"><tspan x="0" y="0">RECORD</tspan></text>
    <g>
      <path d="M105.02,72.56l1.13-1.95c-2.75-1.43-5.84-2.3-9.12-2.44v2.26c2.87.14,5.57.89,7.99,2.14Z" style="stroke-width: 0px;"/>
      <path d="M112.6,79.41l1.95-1.13c-1.72-2.68-4-4.96-6.68-6.68l-1.13,1.95c2.34,1.52,4.33,3.51,5.85,5.85Z" style="stroke-width: 0px;"/>
      <path d="M85.29,73.56l-1.13-1.95c-2.68,1.72-4.96,4-6.68,6.68l1.95,1.13c1.52-2.34,3.51-4.33,5.85-5.85Z" style="stroke-width: 0px;"/>
      <path d="M115.74,89.14h2.26c-.15-3.28-1.01-6.37-2.44-9.12l-1.95,1.13c1.24,2.42,1.99,5.13,2.14,8Z" style="stroke-width: 0px;"/>
      <path d="M95.02,70.42v-2.26c-3.28.15-6.37,1.01-9.12,2.44l1.13,1.95c2.42-1.24,5.13-1.99,8-2.14Z" style="stroke-width: 0px;"/>
      <path d="M79.44,100.87l-1.95,1.13c1.72,2.68,4,4.96,6.68,6.68l1.13-1.95c-2.34-1.52-4.33-3.51-5.85-5.85Z" style="stroke-width: 0px;"/>
      <path d="M106.75,106.72l1.13,1.95c2.68-1.72,4.96-4,6.68-6.68l-1.95-1.13c-1.52,2.34-3.51,4.33-5.85,5.85Z" style="stroke-width: 0px;"/>
      <path d="M115.74,91.14c-.14,2.87-.89,5.57-2.14,8l1.95,1.13c1.43-2.75,2.3-5.84,2.44-9.12h-2.26Z" style="stroke-width: 0px;"/>
      <path d="M76.3,91.14h-2.26c.15,3.28,1.01,6.37,2.44,9.12l1.95-1.13c-1.24-2.42-1.99-5.13-2.14-8Z" style="stroke-width: 0px;"/>
      <path d="M78.44,81.15l-1.95-1.13c-1.43,2.75-2.3,5.84-2.44,9.12h2.26c.14-2.87.89-5.57,2.14-8Z" style="stroke-width: 0px;"/>
    </g>
    <text transform="translate(76.14 110.66) scale(.8 1)" style="font-family: GillSans-Bold, &apos;Gill Sans&apos;; font-size: 7px; font-weight: 700; letter-spacing: -.05em;"><tspan x="0" y="0">1</tspan></text>
    <text transform="translate(112.48 110.66) scale(.8 1)" style="font-family: GillSans-Bold, &apos;Gill Sans&apos;; font-size: 7px; font-weight: 700; letter-spacing: -.05em;"><tspan x="0" y="0">10</tspan></text>
    <text transform="translate(69.27 98.83) scale(.8 1)" style="font-family: GillSans-Bold, &apos;Gill Sans&apos;; font-size: 7px; font-weight: 700; letter-spacing: -.05em;"><tspan x="0" y="0">2</tspan></text>
    <text transform="translate(119 98.83) scale(.8 1)" style="font-family: GillSans-Bold, &apos;Gill Sans&apos;; font-size: 7px; font-weight: 700; letter-spacing: -.05em;"><tspan x="0" y="0">9</tspan></text>
    <text transform="translate(69.31 85.19) scale(.8 1)" style="font-family: GillSans-Bold, &apos;Gill Sans&apos;; font-size: 7px; font-weight: 700; letter-spacing: -.05em;"><tspan x="0" y="0">3</tspan></text>
    <text transform="translate(118.93 85.19) scale(.8 1)" style="fill: #231f20; font-family: GillSans-Bold, &apos;Gill Sans&apos;; font-size: 7px; font-weight: 700; letter-spacing: -.05em;"><tspan x="0" y="0">8</tspan></text>
    <text transform="translate(75.83 73.42) scale(.8 1)" style="font-family: GillSans-Bold, &apos;Gill Sans&apos;; font-size: 7px; font-weight: 700; letter-spacing: -.05em;"><tspan x="0" y="0">4</tspan></text>
    <text transform="translate(111.94 73.42) scale(.8 1)" style="font-family: GillSans-Bold, &apos;Gill Sans&apos;; font-size: 7px; font-weight: 700; letter-spacing: -.05em;"><tspan x="0" y="0">7</tspan></text>
    <text transform="translate(87.32 67.17) scale(.8 1)" style="font-family: GillSans-Bold, &apos;Gill Sans&apos;; font-size: 7px; font-weight: 700; letter-spacing: -.05em;"><tspan x="0" y="0">5</tspan></text>
    <text transform="translate(101.08 67.17) scale(.8 1)" style="font-family: GillSans-Bold, &apos;Gill Sans&apos;; font-size: 7px; font-weight: 700; letter-spacing: -.05em;"><tspan x="0" y="0">6</tspan></text>
    <g>
      <path d="M200.05,72.56l1.13-1.95c-2.75-1.43-5.84-2.3-9.12-2.44v2.26c2.87.14,5.57.89,7.99,2.14Z" style="stroke-width: 0px;"/>
      <path d="M207.64,79.41l1.95-1.13c-1.72-2.68-4-4.96-6.68-6.68l-1.13,1.95c2.34,1.52,4.33,3.51,5.85,5.85Z" style="stroke-width: 0px;"/>
      <path d="M180.33,73.56l-1.13-1.95c-2.68,1.72-4.96,4-6.68,6.68l1.95,1.13c1.52-2.34,3.51-4.33,5.85-5.85Z" style="stroke-width: 0px;"/>
      <path d="M210.77,89.14h2.26c-.15-3.28-1.01-6.37-2.44-9.12l-1.95,1.13c1.24,2.42,1.99,5.13,2.14,8Z" style="stroke-width: 0px;"/>
      <path d="M190.06,70.42v-2.26c-3.28.15-6.37,1.01-9.12,2.44l1.13,1.95c2.42-1.24,5.13-1.99,8-2.14Z" style="stroke-width: 0px;"/>
      <path d="M174.48,100.87l-1.95,1.13c1.72,2.68,4,4.96,6.68,6.68l1.13-1.95c-2.34-1.52-4.33-3.51-5.85-5.85Z" style="stroke-width: 0px;"/>
      <path d="M201.78,106.72l1.13,1.95c2.68-1.72,4.96-4,6.68-6.68l-1.95-1.13c-1.52,2.34-3.51,4.33-5.85,5.85Z" style="stroke-width: 0px;"/>
      <path d="M210.77,91.14c-.14,2.87-.89,5.57-2.14,8l1.95,1.13c1.43-2.75,2.3-5.84,2.44-9.12h-2.26Z" style="stroke-width: 0px;"/>
      <path d="M171.34,91.14h-2.26c.15,3.28,1.01,6.37,2.44,9.12l1.95-1.13c-1.24-2.42-1.99-5.13-2.14-8Z" style="stroke-width: 0px;"/>
      <path d="M173.48,81.15l-1.95-1.13c-1.43,2.75-2.3,5.84-2.44,9.12h2.26c.14-2.87.89-5.57,2.14-8Z" style="stroke-width: 0px;"/>
    </g>
    <text transform="translate(171.17 110.66) scale(.8 1)" style="fill: #231f20; font-family: GillSans-Bold, &apos;Gill Sans&apos;; font-size: 7px; font-weight: 700; letter-spacing: -.05em;"><tspan x="0" y="0">1</tspan></text>
    <text transform="translate(207.51 110.66) scale(.8 1)" style="fill: #231f20; font-family: GillSans-Bold, &apos;Gill Sans&apos;; font-size: 7px; font-weight: 700; letter-spacing: -.05em;"><tspan x="0" y="0">10</tspan></text>
    <text transform="translate(164.3 98.83) scale(.8 1)" style="fill: #231f20; font-family: GillSans-Bold, &apos;Gill Sans&apos;; font-size: 7px; font-weight: 700; letter-spacing: -.05em;"><tspan x="0" y="0">2</tspan></text>
    <text transform="translate(214.03 98.83) scale(.8 1)" style="fill: #231f20; font-family: GillSans-Bold, &apos;Gill Sans&apos;; font-size: 7px; font-weight: 700; letter-spacing: -.05em;"><tspan x="0" y="0">9</tspan></text>
    <text transform="translate(164.35 85.19) scale(.8 1)" style="fill: #231f20; font-family: GillSans-Bold, &apos;Gill Sans&apos;; font-size: 7px; font-weight: 700; letter-spacing: -.05em;"><tspan x="0" y="0">3</tspan></text>
    <text transform="translate(213.97 85.19) scale(.8 1)" style="fill: #231f20; font-family: GillSans-Bold, &apos;Gill Sans&apos;; font-size: 7px; font-weight: 700; letter-spacing: -.05em;"><tspan x="0" y="0">8</tspan></text>
    <text transform="translate(170.86 73.42) scale(.8 1)" style="fill: #231f20; font-family: GillSans-Bold, &apos;Gill Sans&apos;; font-size: 7px; font-weight: 700; letter-spacing: -.05em;"><tspan x="0" y="0">4</tspan></text>
    <text transform="translate(206.97 73.42) scale(.8 1)" style="fill: #231f20; font-family: GillSans-Bold, &apos;Gill Sans&apos;; font-size: 7px; font-weight: 700; letter-spacing: -.05em;"><tspan x="0" y="0">7</tspan></text>
    <text transform="translate(182.35 67.17) scale(.8 1)" style="fill: #231f20; font-family: GillSans-Bold, &apos;Gill Sans&apos;; font-size: 7px; font-weight: 700; letter-spacing: -.05em;"><tspan x="0" y="0">5</tspan></text>
    <text transform="translate(196.11 67.17) scale(.8 1)" style="fill: #231f20; font-family: GillSans-Bold, &apos;Gill Sans&apos;; font-size: 7px; font-weight: 700; letter-spacing: -.05em;"><tspan x="0" y="0">6</tspan></text>
    <g>
      <g>
        <path d="M152.61,166.08l1.13-1.95c-2.75-1.43-5.84-2.3-9.12-2.44v2.26c2.87.14,5.57.89,7.99,2.14Z" style="fill: #fff; stroke-width: 0px;"/>
        <path d="M160.19,172.94l1.95-1.13c-1.72-2.68-4-4.96-6.68-6.68l-1.13,1.95c2.34,1.52,4.33,3.51,5.85,5.85Z" style="fill: #fff; stroke-width: 0px;"/>
        <path d="M132.88,167.09l-1.13-1.95c-2.68,1.72-4.96,4-6.68,6.68l1.95,1.13c1.52-2.34,3.51-4.33,5.85-5.85Z" style="fill: #fff; stroke-width: 0px;"/>
        <path d="M163.33,182.67h2.26c-.15-3.28-1.01-6.37-2.44-9.12l-1.95,1.13c1.24,2.42,1.99,5.13,2.14,8Z" style="fill: #fff; stroke-width: 0px;"/>
        <path d="M142.61,163.95v-2.26c-3.28.15-6.37,1.01-9.12,2.44l1.13,1.95c2.42-1.24,5.13-1.99,8-2.14Z" style="fill: #fff; stroke-width: 0px;"/>
        <path d="M127.03,194.39l-1.95,1.13c1.72,2.68,4,4.96,6.68,6.68l1.13-1.95c-2.34-1.52-4.33-3.51-5.85-5.85Z" style="fill: #fff; stroke-width: 0px;"/>
        <path d="M154.34,200.25l1.13,1.95c2.68-1.72,4.96-4,6.68-6.68l-1.95-1.13c-1.52,2.34-3.51,4.33-5.85,5.85Z" style="fill: #fff; stroke-width: 0px;"/>
        <path d="M163.33,184.67c-.14,2.87-.89,5.57-2.14,8l1.95,1.13c1.43-2.75,2.3-5.84,2.44-9.12h-2.26Z" style="fill: #fff; stroke-width: 0px;"/>
        <path d="M123.89,184.67h-2.26c.15,3.28,1.01,6.37,2.44,9.12l1.95-1.13c-1.24-2.42-1.99-5.13-2.14-8Z" style="fill: #fff; stroke-width: 0px;"/>
        <path d="M126.03,174.67l-1.95-1.13c-1.43,2.75-2.3,5.84-2.44,9.12h2.26c.14-2.87.89-5.57,2.14-8Z" style="fill: #fff; stroke-width: 0px;"/>
      </g>
      <text transform="translate(123.73 204.18) scale(.8 1)" style="fill: #fff; font-family: GillSans-Bold, &apos;Gill Sans&apos;; font-size: 7px; font-weight: 700; letter-spacing: -.05em;"><tspan x="0" y="0">1</tspan></text>
      <text transform="translate(160.07 204.18) scale(.8 1)" style="fill: #fff; font-family: GillSans-Bold, &apos;Gill Sans&apos;; font-size: 7px; font-weight: 700; letter-spacing: -.05em;"><tspan x="0" y="0">10</tspan></text>
      <text transform="translate(116.86 192.35) scale(.8 1)" style="fill: #fff; font-family: GillSans-Bold, &apos;Gill Sans&apos;; font-size: 7px; font-weight: 700; letter-spacing: -.05em;"><tspan x="0" y="0">2</tspan></text>
      <text transform="translate(166.59 192.35) scale(.8 1)" style="fill: #fff; font-family: GillSans-Bold, &apos;Gill Sans&apos;; font-size: 7px; font-weight: 700; letter-spacing: -.05em;"><tspan x="0" y="0">9</tspan></text>
      <text transform="translate(116.9 178.72) scale(.8 1)" style="fill: #fff; font-family: GillSans-Bold, &apos;Gill Sans&apos;; font-size: 7px; font-weight: 700; letter-spacing: -.05em;"><tspan x="0" y="0">3</tspan></text>
      <text transform="translate(166.52 178.72) scale(.8 1)" style="fill: #fff; font-family: GillSans-Bold, &apos;Gill Sans&apos;; font-size: 7px; font-weight: 700; letter-spacing: -.05em;"><tspan x="0" y="0">8</tspan></text>
      <text transform="translate(123.42 166.95) scale(.8 1)" style="fill: #fff; font-family: GillSans-Bold, &apos;Gill Sans&apos;; font-size: 7px; font-weight: 700; letter-spacing: -.05em;"><tspan x="0" y="0">4</tspan></text>
      <text transform="translate(159.53 166.95) scale(.8 1)" style="fill: #fff; font-family: GillSans-Bold, &apos;Gill Sans&apos;; font-size: 7px; font-weight: 700; letter-spacing: -.05em;"><tspan x="0" y="0">7</tspan></text>
      <text transform="translate(134.91 160.7) scale(.8 1)" style="fill: #fff; font-family: GillSans-Bold, &apos;Gill Sans&apos;; font-size: 7px; font-weight: 700; letter-spacing: -.05em;"><tspan x="0" y="0">5</tspan></text>
      <text transform="translate(148.67 160.7) scale(.8 1)" style="fill: #fff; font-family: GillSans-Bold, &apos;Gill Sans&apos;; font-size: 7px; font-weight: 700; letter-spacing: -.05em;"><tspan x="0" y="0">6</tspan></text>
    </g>
    <path d="M265.88,356.33s-.05-.2-.05-.45.02-.45.05-.45h.08s.05.2.05.45-.02.45-.05.45h-.08Z" style="stroke-width: 0px;"/>
    <text transform="translate(98.36 227.31)" style="fill: #fff; font-family: GillSans-SemiBold, &apos;Gill Sans&apos;; font-size: 8px; font-weight: 600;"><tspan x="0" y="0">Left </tspan></text>
    <text transform="translate(171.67 227.42)" style="fill: #fff; font-family: GillSans-SemiBold, &apos;Gill Sans&apos;; font-size: 8px; font-weight: 600;"><tspan x="0" y="0">Right</tspan></text>
    <path d="M48.23,211.36v-6.36s-.35,6.39,5.35,6.36" style="fill: none; stroke: #231f20; stroke-linecap: square;"/>
    <path d="M197.31,211.36v-6.36s-.35,6.39,5.35,6.36" style="fill: none; stroke: #231f20; stroke-linecap: square;"/>
    <polyline points="18.25 303.03 19.98 303.03 19.98 298.02 22.01 298.02 22.01 303.03 23.69 303.03" style="fill: none; stroke: #000; stroke-miterlimit: 10;"/>
    <polyline points="97.21 303.03 98.94 303.03 98.94 298.02 100.96 298.02 100.96 303.03 102.65 303.03" style="fill: none; stroke: #000; stroke-miterlimit: 10;"/>
    <polyline points="120.25 261.07 121.98 261.07 121.98 256.05 124.01 256.05 124.01 261.07 125.69 261.07" style="fill: none; stroke: #fff; stroke-miterlimit: 10;"/>
    <polyline points="163.66 303.03 165.39 303.03 165.39 298.02 167.42 298.02 167.42 303.03 169.1 303.03" style="fill: none; stroke: #000; stroke-miterlimit: 10;"/>
    <polyline points="251.54 303.03 253.27 303.03 253.27 298.02 255.3 298.02 255.3 303.03 256.99 303.03" style="fill: none; stroke: #000; stroke-miterlimit: 10;"/>
    <text transform="translate(231.24 150.25) scale(.88 1)" style="font-family: GillSans-Bold, &apos;Gill Sans&apos;; font-size: 9px; font-weight: 700; letter-spacing: -.04em;"><tspan x="0" y="0">Start Pos.</tspan></text>
    <polyline points="133.57 32.61 132.14 32.61 129.68 35.06" style="fill: none; stroke: #000; stroke-miterlimit: 10;"/>
    <polyline points="154.24 32.61 155.45 32.61 157.81 35.05" style="fill: none; stroke: #000; stroke-miterlimit: 10;"/>
    <rect x="140.12" y="85.53" width="7.09" height="36.85" transform="translate(287.33 207.92) rotate(180)" style="stroke: #000; stroke-miterlimit: 10; stroke-width: .29px;"/>
    <g>
      <rect x="141.65" y="87.38" width="3.99" height="33.17" rx=".57" ry=".57" style="fill: #5a5a5b; stroke-width: 0px;"/>
      <path d="M145.68,119.98c0,.31-.23.57-.5.57s-.5-.26-.5-.57v-32.03c0-.31.23-.57.5-.57s.5.26.5.57v32.03Z" style="fill: #9c9c9e; stroke-width: 0px;"/>
      <rect x="144.68" y="87.38" width=".5" height="33.17" style="fill: #9c9c9e; stroke-width: 0px;"/>
    </g>
  </g>
  <g id="components">
    <circle id="Right_Rec" data-name="Right Rec" cx="180.84" cy="244.71" r="11.34" style="fill: lime; stroke-width: 0px;"/>
    <circle id="Rec_Jack" data-name="Rec Jack" cx="143.45" cy="263.71" r="11.34" style="fill: #80ff80; stroke-width: 0px;"/>
    <circle id="Left_Rec" data-name="Left Rec" cx="106.47" cy="244.71" r="11.34" style="fill: lime; stroke-width: 0px;"/>
    <circle id="End_Out_R" data-name="End Out R" cx="219.17" cy="283.45" r="11.34" style="fill: blue; stroke-width: 0px;"/>
    <circle id="End_Out_L" data-name="End Out L" cx="68.86" cy="283.45" r="11.34" style="fill: blue; stroke-width: 0px;"/>
    <circle id="Out_R" data-name="Out R" cx="260.66" cy="248.15" r="11.34" style="fill: blue; stroke-width: 0px;"/>
    <circle id="Out_L" data-name="Out L" cx="27.2" cy="248.15" r="11.34" style="fill: blue; stroke-width: 0px;"/>
    <circle id="Length_CV_R" data-name="Length CV R" cx="260.66" cy="319.45" r="11.34" style="fill: lime; stroke-width: 0px;"/>
    <circle id="Start_Pos_CV_R" data-name="Start Pos CV R" cx="213.99" cy="319.45" r="11.34" style="fill: lime; stroke-width: 0px;"/>
    <circle id="Sample_CV_R" data-name="Sample CV R" cx="167.23" cy="319.45" r="11.34" style="fill: lime; stroke-width: 0px;"/>
    <circle id="Sample_CV_L" data-name="Sample CV L" cx="120.67" cy="319.51" r="11.34" style="fill: lime; stroke-width: 0px;"/>
    <circle id="Start_Pos_CV_L" data-name="Start Pos CV L" cx="73.91" cy="319.37" r="11.34" style="fill: lime; stroke-width: 0px;"/>
    <circle id="Length_CV_L" data-name="Length CV L" cx="27.2" cy="319.51" r="11.34" style="fill: lime; stroke-width: 0px;"/>
    <circle id="Reverse_Jack_R" data-name="Reverse Trig R" cx="177.15" cy="283.45" r="11.34" style="fill: #80ff80; stroke-width: 0px;"/>
    <circle id="Reverse_Trig_L" data-name="Reverse Trig L" cx="110.74" cy="283.45" r="11.34" style="fill: #80ff80; stroke-width: 0px;"/>
    <circle id="_1V_Oct_R" data-name="1V/Oct R" cx="220.3" cy="248.15" r="11.34" style="fill: lime; stroke-width: 0px;"/>
    <circle id="Play_Trig_R" data-name="Play Trig R" cx="260.66" cy="283.45" r="11.34" style="fill: #80ff80; stroke-width: 0px;"/>
    <circle id="_1V_Oct_L" data-name="1V/Oct L" cx="66.74" cy="248.15" r="11.34" style="fill: lime; stroke-width: 0px;"/>
    <circle id="Play_Trig_L" data-name="Play Trig L" cx="27.2" cy="283.45" r="11.34" style="fill: #80ff80; stroke-width: 0px;"/>
    <circle id="Play_R_Light_WhiteLight" data-name="Play R Light#WhiteLight" cx="273.54" cy="227.18" r="4.25" style="fill: #f0f; stroke-width: 0px;"/>
    <circle id="Busy_Light_RedLight" data-name="Busy Light#RedLight" cx="153.69" cy="235.07" r="4.25" style="fill: #f0f; stroke-width: 0px;"/>
    <circle id="Monitor_Light_BlueLight" data-name="Monitor Light#BlueLight" cx="133.57" cy="235.07" r="4.25" style="fill: #f0f; stroke-width: 0px;"/>
    <circle id="Play_L_Light_WhiteLight" data-name="Play L Light#WhiteLight" cx="14.74" cy="227.18" r="4.25" style="fill: #f0f; stroke-width: 0px;"/>
    <circle id="Rec._Bank_MomentaryRGB7mm" data-name="Rec. Bank#MomentaryRGB7mm" cx="159.13" cy="139.65" r="8.5" style="fill: #ffc000; stroke-width: 0px;"/>
    <circle id="REC_MomentaryRGB7mm" data-name="REC#MomentaryRGB7mm" cx="127.63" cy="139.65" r="8.5" style="fill: #ffc000; stroke-width: 0px;"/>
    <circle id="Rec._Sample" data-name="Rec. Sample" cx="143.45" cy="183.69" r="17.01" style="fill: red; stroke-width: 0px;"/>
    <circle id="Reverse_R_MomentaryRGB7mm" data-name="Reverse R#MomentaryRGB7mm" cx="266.32" cy="179.74" r="8.5" style="fill: #ffc000; stroke-width: 0px;"/>
    <circle id="Bank_R_MomentaryRGB7mm" data-name="Bank R#MomentaryRGB7mm" cx="164.37" cy="41.88" r="8.5" style="fill: #ffc000; stroke-width: 0px;"/>
    <circle id="Play_R_MomentaryRGB7mm" data-name="Play R#MomentaryRGB7mm" cx="205.55" cy="49.77" r="10.63" style="fill: #ffc000; stroke-width: 0px;"/>
    <circle id="Length_R" data-name="Length R" cx="218.16" cy="189.23" r="17.01" style="fill: #ff0080; stroke-width: 0px;"/>
    <circle id="Start_Pos._R" data-name="Start Pos. R" cx="249.6" cy="122.95" r="17.01" style="fill: red; stroke-width: 0px;"/>
    <circle id="Sample_R" data-name="Sample R" cx="191.25" cy="90.02" r="17.01" style="fill: red; stroke-width: 0px;"/>
    <circle id="Pitch_R" data-name="Pitch R" cx="249.91" cy="54.27" r="17.01" style="fill: #ff0040; stroke-width: 0px;"/>
    <circle id="Reverse_L_MomentaryRGB7mm" data-name="Reverse L#MomentaryRGB7mm" cx="21.08" cy="179.74" r="8.5" style="fill: #ffc000; stroke-width: 0px;"/>
    <circle id="Bank_L_MomentaryRGB7mm" data-name="Bank L#MomentaryRGB7mm" cx="122.85" cy="41.6" r="8.5" style="fill: #ffc000; stroke-width: 0px;"/>
    <circle id="Play_L_MomentaryRGB7mm" data-name="Play L#MomentaryRGB7mm" cx="81.91" cy="49.62" r="10.63" style="fill: #ffc000; stroke-width: 0px;"/>
    <circle id="Length_L" data-name="Length L" cx="69.36" cy="189.23" r="17.01" style="fill: #ff0080; stroke-width: 0px;"/>
    <circle id="Start_Pos._L" data-name="Start Pos. L" cx="37.24" cy="123" r="17.01" style="fill: red; stroke-width: 0px;"/>
    <circle id="Sample_L" data-name="Sample L" cx="95.87" cy="90.17" r="17.01" style="fill: red; stroke-width: 0px;"/>
    <circle id="Pitch_L" data-name="Pitch L" cx="37.52" cy="54.34" r="17.01" style="fill: #ff0040; stroke-width: 0px;"/>
    <text id="slug" transform="translate(198.47 361.82)" style="font-family: MyriadPro-Regular, &apos;Myriad Pro&apos;; font-size: 6px;"><tspan x="0" y="0">S</tspan><tspan x="2.96" y="0" style="letter-spacing: 0em;">T</tspan><tspan x="5.9" y="0">S</tspan></text>
    <text id="modulename" transform="translate(223 361.82)" style="font-family: MyriadPro-Regular, &apos;Myriad Pro&apos;; font-size: 6px;"><tspan x="0" y="0" style="letter-spacing: 0em;">S</tspan><tspan x="2.94" y="0" style="letter-spacing: 0em;">t</tspan><tspan x="4.89" y="0">e</tspan><tspan x="7.9" y="0" style="letter-spacing: 0em;">r</tspan><tspan x="9.8" y="0">eo</tspan><tspan x="16.1" y="0" style="letter-spacing: -.04em;"> </tspan><tspan x="17.12" y="0" style="letter-spacing: -.05em;">T</tspan><tspan x="19.84" y="0" style="letter-spacing: 0em;">r</tspan><tspan x="21.82" y="0" style="letter-spacing: 0em;">igge</tspan><tspan x="32.94" y="0" style="letter-spacing: 0em;">r</tspan><tspan x="34.84" y="0">ed </tspan><tspan x="42.5" y="0" style="letter-spacing: 0em;">S</tspan><tspan x="45.48" y="0">ampler</tspan></text>
  </g>
</svg>
