<?xml version="1.0" encoding="UTF-8"?>
<svg xmlns="http://www.w3.org/2000/svg" width="101.34mm" height="128.5mm" viewBox="0 0 287.28 364.25">
  <g id="faceplate">
    <g>
      <rect x=".13" y=".13" width="287.01" height="363.99" style="fill: #ededed; stroke-width: 0px;"/>
      <path d="M287.01.26v363.72H.26V.26h286.75M287.28,0H0v364.25h287.28V0h0Z" style="fill: #9d9d9e; stroke-width: 0px;"/>
    </g>
    <rect x="8.03" y="233.6" width="135.2" height="36.35" rx="8.63" ry="8.63" style="fill: #000; stroke: #000;"/>
    <rect x="143.57" y="233.6" width="135.2" height="36.35" rx="8.63" ry="8.63" style="fill: #000; stroke: #000;"/>
    <g>
      <path d="M143.25,293.38c0,3.84-3.12,6.96-6.96,6.96,3.84,0,6.96,3.12,6.96,6.96,0-3.84,3.12-6.96,6.96-6.96-3.84,0-6.96-3.12-6.96-6.96Z" style="fill: #231f20; stroke: #000;"/>
      <line x1="143.25" y1="293.38" x2="143.25" y2="251.96" style="fill: none; stroke: #000;"/>
      <path d="M152.22,343.49c-4.97,0-9-4.03-9-9h0c0,4.97-4.03,9-9,9" style="fill: none; stroke: #000;"/>
      <polyline points="25.12 343.34 21.66 343.34 134.22 343.49" style="fill: none; stroke: #000;"/>
      <g>
        <line x1="8.05" y1="296.85" x2="8.05" y2="304.05" style="fill: none; stroke: #000; stroke-linecap: round;"/>
        <path d="M8.03,304.05v28.89s0,1.4,0,1.4c0,4.97,4.03,9,9,9h4.65" style="fill: none; stroke: #000;"/>
      </g>
      <polyline points="262.03 343.34 265.48 343.34 152.92 343.49" style="fill: none; stroke: #000;"/>
      <g>
        <line x1="8.03" y1="250.44" x2="8.03" y2="296.85" style="fill: none; stroke: #000;"/>
        <path d="M265.57,343.34h4.19c4.97,0,9-4.02,9-8.99v-83.91" style="fill: none; stroke: #000;"/>
      </g>
    </g>
    <line x1="143.25" y1="334.37" x2="143.25" y2="306.1" style="fill: none; stroke: #231f20;"/>
    <line x1="270.11" y1="343.34" x2="152.22" y2="343.49" style="fill: none; stroke: #231f20;"/>
    <text transform="translate(28.08 82.43) scale(.88 1)" style="fill: #000; font-family: GillSans-Bold, &apos;Gill Sans&apos;; font-size: 9px; font-weight: 700; letter-spacing: -.04em;"><tspan x="0" y="0">Pitch</tspan></text>
    <text transform="translate(19.24 137.25) scale(.88 1)" style="fill: #000; font-family: GillSans-Bold, &apos;Gill Sans&apos;; font-size: 9px; font-weight: 700; letter-spacing: -.04em;"><tspan x="0" y="0">Start Pos.</tspan></text>
    <text transform="translate(243.14 82.43) scale(.88 1)" style="fill: #000; font-family: GillSans-Bold, &apos;Gill Sans&apos;; font-size: 9px; font-weight: 700; letter-spacing: -.04em;"><tspan x="0" y="0">Pitch</tspan></text>
    <text transform="translate(92.4 190.78) scale(.88 1)" style="fill: #000; font-family: GillSans-Bold, &apos;Gill Sans&apos;; font-size: 9px; font-weight: 700; letter-spacing: -.04em;"><tspan x="0" y="0">Sample</tspan></text>
    <text transform="translate(92.81 227.13) scale(.88 1)" style="fill: #000; font-family: GillSans-Bold, &apos;Gill Sans&apos;; font-size: 9px; font-weight: 700; letter-spacing: -.04em;"><tspan x="0" y="0">Bank</tspan></text>
    <text transform="translate(170.38 190.78) scale(.88 1)" style="fill: #000; font-family: GillSans-Bold, &apos;Gill Sans&apos;; font-size: 9px; font-weight: 700; letter-spacing: -.04em;"><tspan x="0" y="0">Sample</tspan></text>
    <text transform="translate(228.03 266.56) scale(.88 1)" style="fill: #fff; font-family: GillSans-Bold, &apos;Gill Sans&apos;; font-size: 9px; font-weight: 700; letter-spacing: -.04em;"><tspan x="0" y="0">OUT</tspan></text>
    <text transform="translate(41.19 267.11) scale(.88 1)" style="fill: #fff; font-family: GillSans-Bold, &apos;Gill Sans&apos;; font-size: 9px; font-weight: 700; letter-spacing: -.04em;"><tspan x="0" y="0">OUT</tspan></text>
    <text transform="translate(71.64 268.23) scale(.88 1)" style="fill: #fff; font-family: GillSans-SemiBold, &apos;Gill Sans&apos;; font-size: 8px; font-weight: 600; letter-spacing: -.04em;"><tspan x="0" y="0">R</tspan></text>
    <text transform="translate(25.57 268.23) scale(.88 1)" style="fill: #fff; font-family: GillSans-SemiBold, &apos;Gill Sans&apos;; font-size: 8px; font-weight: 600; letter-spacing: -.04em;"><tspan x="0" y="0">L</tspan></text>
    <text transform="translate(258.86 268.23) scale(.88 1)" style="fill: #fff; font-family: GillSans-SemiBold, &apos;Gill Sans&apos;; font-size: 8px; font-weight: 600; letter-spacing: -.04em;"><tspan x="0" y="0">R</tspan></text>
    <text transform="translate(212.04 268.23) scale(.88 1)" style="fill: #fff; font-family: GillSans-SemiBold, &apos;Gill Sans&apos;; font-size: 8px; font-weight: 600; letter-spacing: -.04em;"><tspan x="0" y="0">L</tspan></text>
    <text transform="translate(61.53 304.08) scale(.88 1)" style="fill: #000; font-family: GillSans-SemiBold, &apos;Gill Sans&apos;; font-size: 8px; font-weight: 600; letter-spacing: -.04em;"><tspan x="0" y="0">1V/OCT</tspan></text>
    <text transform="translate(201.61 304.08) scale(.88 1)" style="fill: #000; font-family: GillSans-SemiBold, &apos;Gill Sans&apos;; font-size: 8px; font-weight: 600; letter-spacing: -.04em;"><tspan x="0" y="0">1V/OCT</tspan></text>
    <text transform="translate(55.47 340.1) scale(.88 1)" style="fill: #000; font-family: GillSans-SemiBold, &apos;Gill Sans&apos;; font-size: 8px; font-weight: 600; letter-spacing: -.04em;"><tspan x="0" y="0">Start Pos CV</tspan></text>
    <text transform="translate(14.97 340.1) scale(.88 1)" style="fill: #000; font-family: GillSans-SemiBold, &apos;Gill Sans&apos;; font-size: 8px; font-weight: 600; letter-spacing: -.04em;"><tspan x="0" y="0">Length CV</tspan></text>
    <text transform="translate(242.73 340.1) scale(.88 1)" style="fill: #000; font-family: GillSans-SemiBold, &apos;Gill Sans&apos;; font-size: 8px; font-weight: 600; letter-spacing: -.04em;"><tspan x="0" y="0">Length CV</tspan></text>
    <text transform="translate(195.55 340.1) scale(.88 1)" style="fill: #000; font-family: GillSans-SemiBold, &apos;Gill Sans&apos;; font-size: 8px; font-weight: 600; letter-spacing: -.04em;"><tspan x="0" y="0">Start Pos CV</tspan></text>
    <text transform="translate(104.68 340.1) scale(.88 1)" style="fill: #000; font-family: GillSans-SemiBold, &apos;Gill Sans&apos;; font-size: 8px; font-weight: 600; letter-spacing: -.04em;"><tspan x="0" y="0">Sample CV</tspan></text>
    <text transform="translate(151.31 340.1) scale(.88 1)" style="fill: #000; font-family: GillSans-SemiBold, &apos;Gill Sans&apos;; font-size: 8px; font-weight: 600; letter-spacing: -.04em;"><tspan x="0" y="0">Sample CV</tspan></text>
    <text transform="translate(24.48 303.17) scale(.88 1)" style="fill: #000; font-family: GillSans-SemiBold, &apos;Gill Sans&apos;; font-size: 8px; font-weight: 600; letter-spacing: -.04em;"><tspan x="0" y="0">Play</tspan></text>
    <text transform="translate(237.34 227.85) scale(.88 1)" style="fill: #000; font-family: GillSans-Bold, &apos;Gill Sans&apos;; font-size: 9px; font-weight: 700; letter-spacing: -.04em;"><tspan x="0" y="0">Reverse</tspan></text>
    <text transform="translate(22.16 227.85) scale(.88 1)" style="fill: #000; font-family: GillSans-Bold, &apos;Gill Sans&apos;; font-size: 9px; font-weight: 700; letter-spacing: -.04em;"><tspan x="0" y="0">Reverse</tspan></text>
    <text transform="translate(105.86 268.23) scale(.88 1)" style="fill: #fff; font-family: GillSans-SemiBold, &apos;Gill Sans&apos;; font-size: 8px; font-weight: 600; letter-spacing: -.04em;"><tspan x="0" y="0">End Out</tspan></text>
    <text transform="translate(155.16 268.23) scale(.88 1)" style="fill: #fff; font-family: GillSans-SemiBold, &apos;Gill Sans&apos;; font-size: 8px; font-weight: 600; letter-spacing: -.04em;"><tspan x="0" y="0">End Out</tspan></text>
    <text transform="translate(69.29 19.85) scale(.88 1)" style="fill: #000; font-family: GillSans-Bold, &apos;Gill Sans&apos;; font-size: 9px; font-weight: 700; letter-spacing: -.04em;"><tspan x="0" y="0">PLAY</tspan></text>
    <text transform="translate(201.89 18.65) scale(.88 1)" style="fill: #000; font-family: GillSans-Bold, &apos;Gill Sans&apos;; font-size: 9px; font-weight: 700; letter-spacing: -.04em;"><tspan x="0" y="0">PLAY</tspan></text>
    <g>
      <path d="M252.89,90c-.83,0-1.65.07-2.45.17l-.39-2.21c.93-.12,1.88-.19,2.84-.19s1.91.07,2.84.19l-.39,2.21c-.81-.1-1.62-.17-2.45-.17Z" style="fill: #000; stroke-width: 0px;"/>
      <path d="M238.4,96.37l-1.73-1.45c1.28-1.4,2.74-2.63,4.34-3.66l1.12,1.94c-1.38.9-2.62,1.96-3.73,3.16Z" style="fill: #000; stroke-width: 0px;"/>
      <path d="M243.86,92.2l-1.12-1.94c1.67-.87,3.46-1.53,5.34-1.96l.39,2.21c-1.62.37-3.16.94-4.61,1.69Z" style="fill: #000; stroke-width: 0px;"/>
      <path d="M234.66,102.14l-2.1-.76c.73-1.77,1.69-3.42,2.83-4.92l1.73,1.45c-.98,1.3-1.82,2.71-2.46,4.23Z" style="fill: #000; stroke-width: 0px;"/>
      <path d="M257.31,90.52l.39-2.21c1.88.42,3.67,1.08,5.34,1.95l-1.12,1.94c-1.44-.74-2.98-1.31-4.6-1.69Z" style="fill: #000; stroke-width: 0px;"/>
      <path d="M233.17,108.84h-2.26c.08-1.93.41-3.8.96-5.58l2.11.77c-.47,1.53-.73,3.15-.81,4.81Z" style="fill: #000; stroke-width: 0px;"/>
      <path d="M234.04,115.63l-2.1.76c-.57-1.79-.91-3.65-1.01-5.56h2.23c.09,1.65.39,3.25.88,4.8Z" style="fill: #000; stroke-width: 0px;"/>
      <path d="M237.18,121.71l-1.71,1.44c-1.15-1.5-2.11-3.14-2.84-4.88l2.1-.77c.64,1.5,1.46,2.91,2.45,4.2Z" style="fill: #000; stroke-width: 0px;"/>
      <path d="M268.66,97.91l1.73-1.45c1.14,1.5,2.1,3.15,2.83,4.92l-2.1.77c-.64-1.52-1.48-2.93-2.46-4.23Z" style="fill: #000; stroke-width: 0px;"/>
      <path d="M271.8,104.02l2.11-.77c.55,1.78.88,3.65.96,5.58h-2.26c-.08-1.66-.34-3.28-.81-4.81Z" style="fill: #000; stroke-width: 0px;"/>
      <path d="M272.62,110.83h2.23c-.09,1.91-.44,3.78-1.01,5.56l-2.1-.77c.48-1.54.79-3.15.88-4.8Z" style="fill: #000; stroke-width: 0px;"/>
      <path d="M271.06,117.51l2.11.77c-.73,1.74-1.69,3.38-2.84,4.87l-1.71-1.44c.99-1.3,1.81-2.71,2.45-4.2Z" style="fill: #000; stroke-width: 0px;"/>
      <path d="M242.2,126.36l-1.12,1.93c-1.61-1.03-3.05-2.24-4.32-3.62l1.71-1.44c1.1,1.18,2.34,2.23,3.72,3.12Z" style="fill: #000; stroke-width: 0px;"/>
      <path d="M267.31,123.24l1.71,1.44c-1.27,1.37-2.71,2.59-4.32,3.62l-1.12-1.93c1.38-.89,2.63-1.94,3.72-3.12Z" style="fill: #000; stroke-width: 0px;"/>
      <path d="M263.65,93.21l1.12-1.94c1.6,1.03,3.06,2.26,4.34,3.66l-1.73,1.45c-1.11-1.2-2.36-2.27-3.74-3.16Z" style="fill: #000; stroke-width: 0px;"/>
    </g>
    <g>
      <path d="M37.67,90.42c-.83,0-1.65.07-2.45.17l-.39-2.21c.93-.12,1.88-.19,2.84-.19s1.91.07,2.84.19l-.39,2.21c-.81-.1-1.62-.17-2.45-.17Z" style="fill: #000; stroke-width: 0px;"/>
      <path d="M23.18,96.8l-1.73-1.45c1.28-1.4,2.74-2.63,4.34-3.66l1.12,1.94c-1.38.9-2.62,1.96-3.73,3.16Z" style="fill: #000; stroke-width: 0px;"/>
      <path d="M28.64,92.63l-1.12-1.94c1.67-.87,3.46-1.53,5.34-1.96l.39,2.21c-1.62.37-3.16.94-4.61,1.69Z" style="fill: #000; stroke-width: 0px;"/>
      <path d="M19.44,102.56l-2.1-.76c.73-1.77,1.69-3.42,2.83-4.92l1.73,1.45c-.98,1.3-1.82,2.71-2.46,4.23Z" style="fill: #000; stroke-width: 0px;"/>
      <path d="M42.09,90.94l.39-2.21c1.88.42,3.67,1.08,5.34,1.95l-1.12,1.94c-1.44-.74-2.98-1.31-4.6-1.69Z" style="fill: #000; stroke-width: 0px;"/>
      <path d="M17.96,109.26h-2.26c.08-1.93.41-3.8.96-5.58l2.11.77c-.47,1.53-.73,3.15-.81,4.81Z" style="fill: #000; stroke-width: 0px;"/>
      <path d="M18.82,116.06l-2.1.76c-.57-1.79-.91-3.65-1.01-5.56h2.23c.09,1.65.39,3.25.88,4.8Z" style="fill: #000; stroke-width: 0px;"/>
      <path d="M21.96,122.14l-1.71,1.44c-1.15-1.5-2.11-3.14-2.84-4.88l2.1-.77c.64,1.5,1.46,2.91,2.45,4.2Z" style="fill: #000; stroke-width: 0px;"/>
      <path d="M53.45,98.33l1.73-1.45c1.14,1.5,2.1,3.15,2.83,4.92l-2.1.77c-.64-1.52-1.48-2.93-2.46-4.23Z" style="fill: #000; stroke-width: 0px;"/>
      <path d="M56.58,104.44l2.11-.77c.55,1.78.88,3.65.96,5.58h-2.26c-.08-1.66-.34-3.28-.81-4.81Z" style="fill: #000; stroke-width: 0px;"/>
      <path d="M57.4,111.26h2.23c-.09,1.91-.44,3.78-1.01,5.56l-2.1-.77c.48-1.54.79-3.15.88-4.8Z" style="fill: #000; stroke-width: 0px;"/>
      <path d="M55.84,117.93l2.11.77c-.73,1.74-1.69,3.38-2.84,4.87l-1.71-1.44c.99-1.3,1.81-2.71,2.45-4.2Z" style="fill: #000; stroke-width: 0px;"/>
      <path d="M26.98,126.78l-1.12,1.93c-1.61-1.03-3.05-2.24-4.32-3.62l1.71-1.44c1.1,1.18,2.34,2.23,3.72,3.12Z" style="fill: #000; stroke-width: 0px;"/>
      <path d="M52.09,123.66l1.71,1.44c-1.27,1.37-2.71,2.59-4.32,3.62l-1.12-1.93c1.38-.89,2.62-1.94,3.72-3.12Z" style="fill: #000; stroke-width: 0px;"/>
      <path d="M48.43,93.63l1.12-1.94c1.6,1.03,3.06,2.26,4.34,3.66l-1.73,1.45c-1.11-1.2-2.36-2.27-3.74-3.16Z" style="fill: #000; stroke-width: 0px;"/>
    </g>
    <g>
      <path d="M252.89,34.54c-.83,0-1.65.07-2.45.17l-.39-2.21c.93-.12,1.88-.19,2.84-.19s1.91.07,2.84.19l-.39,2.21c-.81-.1-1.62-.17-2.45-.17Z" style="fill: #000; stroke-width: 0px;"/>
      <path d="M238.4,40.91l-1.73-1.45c1.28-1.4,2.74-2.63,4.34-3.66l1.12,1.94c-1.38.9-2.62,1.96-3.73,3.16Z" style="fill: #000; stroke-width: 0px;"/>
      <path d="M243.86,36.74l-1.12-1.94c1.67-.87,3.46-1.53,5.34-1.95l.39,2.21c-1.62.37-3.16.94-4.61,1.69Z" style="fill: #000; stroke-width: 0px;"/>
      <path d="M234.66,46.68l-2.1-.76c.73-1.77,1.69-3.42,2.83-4.92l1.73,1.45c-.98,1.3-1.82,2.71-2.46,4.23Z" style="fill: #000; stroke-width: 0px;"/>
      <path d="M257.31,35.05l.39-2.21c1.88.42,3.67,1.08,5.34,1.95l-1.12,1.94c-1.44-.74-2.98-1.31-4.6-1.69Z" style="fill: #000; stroke-width: 0px;"/>
      <path d="M233.17,53.37h-2.26c.08-1.93.41-3.8.96-5.58l2.11.77c-.47,1.53-.73,3.15-.81,4.81Z" style="fill: #000; stroke-width: 0px;"/>
      <path d="M234.04,60.17l-2.1.76c-.57-1.79-.91-3.65-1.01-5.56h2.23c.09,1.65.39,3.25.88,4.8Z" style="fill: #000; stroke-width: 0px;"/>
      <path d="M237.18,66.25l-1.71,1.44c-1.15-1.5-2.11-3.14-2.84-4.88l2.1-.77c.64,1.5,1.46,2.91,2.45,4.2Z" style="fill: #000; stroke-width: 0px;"/>
      <path d="M268.66,42.44l1.73-1.45c1.14,1.5,2.1,3.15,2.83,4.92l-2.1.77c-.64-1.52-1.48-2.93-2.46-4.23Z" style="fill: #000; stroke-width: 0px;"/>
      <path d="M271.8,48.56l2.11-.77c.55,1.78.88,3.65.96,5.58h-2.26c-.08-1.66-.34-3.28-.81-4.81Z" style="fill: #000; stroke-width: 0px;"/>
      <path d="M272.62,55.37h2.23c-.09,1.91-.44,3.78-1.01,5.56l-2.1-.77c.48-1.54.79-3.15.88-4.8Z" style="fill: #000; stroke-width: 0px;"/>
      <path d="M271.06,62.05l2.11.77c-.73,1.74-1.69,3.38-2.84,4.87l-1.71-1.44c.99-1.3,1.81-2.71,2.45-4.2Z" style="fill: #000; stroke-width: 0px;"/>
      <path d="M242.2,70.9l-1.12,1.93c-1.61-1.03-3.05-2.24-4.32-3.62l1.71-1.44c1.1,1.18,2.34,2.23,3.72,3.12Z" style="fill: #000; stroke-width: 0px;"/>
      <path d="M267.31,67.78l1.71,1.44c-1.27,1.37-2.71,2.59-4.32,3.62l-1.12-1.93c1.38-.89,2.62-1.94,3.72-3.12Z" style="fill: #000; stroke-width: 0px;"/>
      <path d="M263.65,37.74l1.12-1.94c1.6,1.03,3.06,2.26,4.34,3.66l-1.73,1.45c-1.11-1.2-2.36-2.27-3.74-3.16Z" style="fill: #000; stroke-width: 0px;"/>
    </g>
    <text transform="translate(24.47 193.66) scale(.88 1)" style="fill: #000; font-family: GillSans-Bold, &apos;Gill Sans&apos;; font-size: 9px; font-weight: 700; letter-spacing: -.04em;"><tspan x="0" y="0">Length</tspan></text>
    <text transform="translate(70.33 356.7) scale(.82 1)" style="fill: #000; font-family: GillSans-Bold, &apos;Gill Sans&apos;; font-size: 11px; font-weight: 700;"><tspan x="0" y="0">STEREO TRIGGERED SAMPLER</tspan></text>
    <g>
      <path d="M150.73,8.93s-4.37,5.55-6.92,8.79v-7.53c0-.65-.32-1.23-.8-1.47-.49-.24-1.05-.09-1.41.37l-9.09,11.56c-.49.63-.48,1.63.04,2.24.51.6,1.33.59,1.82-.04,0,0,4.34-5.51,6.87-8.73v7.53c0,.65.32,1.23.81,1.47.49.24,1.05.1,1.41-.37,0,0,4.37-5.56,6.91-8.79v7.69c0,.88.57,1.58,1.29,1.58s1.29-.71,1.29-1.58v-11.61c0-.65-.32-1.23-.81-1.47-.49-.24-1.04-.1-1.41.37Z" style="fill: #000; stroke: #000; stroke-width: .96px;"/>
      <path d="M132.5,8.84l-6.02,7.66c-.5.63-.48,1.63.03,2.24.52.61,1.33.59,1.83-.04,0,0,2.03-2.58,3.81-4.84v7.88c0,.87.57,1.58,1.29,1.58s1.29-.71,1.29-1.58v-11.8c0-.65-.32-1.23-.81-1.47-.49-.24-1.05-.09-1.41.37Z" style="fill: #000; stroke: #000; stroke-width: .96px;"/>
      <path d="M161.18,14.49c-.2-.58-.67-.96-1.19-.96h-2.63l1.92-2.44s1-1.47.11-2.27c-.88-.81-1.97.08-1.97.08l-4.03,5.12c-.36.46-.46,1.13-.26,1.72.2.58.67.96,1.19.96h2.63l-3.12,3.96s-1.29,1.41-.34,2.36c.96.96,2.2-.17,2.2-.17l5.22-6.64c.36-.46.46-1.13.26-1.72Z" style="fill: #000; stroke: #000; stroke-width: .96px;"/>
    </g>
    <text transform="translate(239.69 193.61) scale(.88 1)" style="fill: #000; font-family: GillSans-Bold, &apos;Gill Sans&apos;; font-size: 9px; font-weight: 700; letter-spacing: -.04em;"><tspan x="0" y="0">Length</tspan></text>
    <g>
      <path d="M252.89,147.01c-.83,0-1.65.07-2.45.17l-.39-2.21c.93-.12,1.88-.19,2.84-.19s1.91.07,2.84.19l-.39,2.21c-.81-.1-1.62-.17-2.45-.17Z" style="fill: #000; stroke-width: 0px;"/>
      <path d="M238.4,153.38l-1.73-1.45c1.28-1.4,2.74-2.63,4.34-3.66l1.12,1.94c-1.38.9-2.62,1.96-3.73,3.16Z" style="fill: #000; stroke-width: 0px;"/>
      <path d="M243.86,149.21l-1.12-1.94c1.67-.87,3.46-1.53,5.34-1.96l.39,2.21c-1.62.37-3.16.94-4.61,1.69Z" style="fill: #000; stroke-width: 0px;"/>
      <path d="M234.66,159.14l-2.1-.76c.73-1.77,1.69-3.42,2.83-4.92l1.73,1.45c-.98,1.3-1.82,2.71-2.46,4.23Z" style="fill: #000; stroke-width: 0px;"/>
      <path d="M257.31,147.52l.39-2.21c1.88.42,3.67,1.08,5.34,1.95l-1.12,1.94c-1.44-.74-2.98-1.31-4.6-1.69Z" style="fill: #000; stroke-width: 0px;"/>
      <path d="M233.17,165.84h-2.26c.08-1.93.41-3.8.96-5.58l2.11.77c-.47,1.53-.73,3.15-.81,4.81Z" style="fill: #000; stroke-width: 0px;"/>
      <path d="M234.04,172.64l-2.1.76c-.57-1.79-.91-3.65-1.01-5.56h2.23c.09,1.65.39,3.25.88,4.8Z" style="fill: #000; stroke-width: 0px;"/>
      <path d="M237.18,178.72l-1.71,1.44c-1.15-1.5-2.11-3.14-2.84-4.88l2.1-.77c.64,1.5,1.46,2.91,2.45,4.2Z" style="fill: #000; stroke-width: 0px;"/>
      <path d="M268.66,154.91l1.73-1.45c1.14,1.5,2.1,3.15,2.83,4.92l-2.1.77c-.64-1.52-1.48-2.93-2.46-4.23Z" style="fill: #000; stroke-width: 0px;"/>
      <path d="M271.8,161.02l2.11-.77c.55,1.78.88,3.65.96,5.58h-2.26c-.08-1.66-.34-3.28-.81-4.81Z" style="fill: #000; stroke-width: 0px;"/>
      <path d="M272.62,167.84h2.23c-.09,1.91-.44,3.78-1.01,5.56l-2.1-.77c.48-1.54.79-3.15.88-4.8Z" style="fill: #000; stroke-width: 0px;"/>
      <path d="M271.06,174.52l2.11.77c-.73,1.74-1.69,3.38-2.84,4.87l-1.71-1.44c.99-1.3,1.81-2.71,2.45-4.2Z" style="fill: #000; stroke-width: 0px;"/>
      <path d="M242.2,183.36l-1.12,1.93c-1.61-1.03-3.05-2.24-4.32-3.62l1.71-1.44c1.1,1.18,2.34,2.23,3.72,3.12Z" style="fill: #000; stroke-width: 0px;"/>
      <path d="M267.31,180.24l1.71,1.44c-1.27,1.37-2.71,2.59-4.32,3.62l-1.12-1.93c1.38-.89,2.62-1.94,3.72-3.12Z" style="fill: #000; stroke-width: 0px;"/>
      <path d="M263.65,150.21l1.12-1.94c1.6,1.03,3.06,2.26,4.34,3.66l-1.73,1.45c-1.11-1.2-2.36-2.27-3.74-3.16Z" style="fill: #000; stroke-width: 0px;"/>
    </g>
    <g>
      <path d="M37.67,147.05c-.83,0-1.65.07-2.45.17l-.39-2.21c.93-.12,1.88-.19,2.84-.19s1.91.07,2.84.19l-.39,2.21c-.81-.1-1.62-.17-2.45-.17Z" style="fill: #000; stroke-width: 0px;"/>
      <path d="M23.18,153.42l-1.73-1.45c1.28-1.4,2.74-2.63,4.34-3.66l1.12,1.94c-1.38.9-2.62,1.96-3.73,3.16Z" style="fill: #000; stroke-width: 0px;"/>
      <path d="M28.64,149.25l-1.12-1.94c1.67-.87,3.46-1.53,5.34-1.96l.39,2.21c-1.62.37-3.16.94-4.61,1.69Z" style="fill: #000; stroke-width: 0px;"/>
      <path d="M19.44,159.19l-2.1-.76c.73-1.77,1.69-3.42,2.83-4.92l1.73,1.45c-.98,1.3-1.82,2.71-2.46,4.23Z" style="fill: #000; stroke-width: 0px;"/>
      <path d="M42.09,147.56l.39-2.21c1.88.42,3.67,1.08,5.34,1.95l-1.12,1.94c-1.44-.74-2.98-1.31-4.6-1.69Z" style="fill: #000; stroke-width: 0px;"/>
      <path d="M17.96,165.88h-2.26c.08-1.93.41-3.8.96-5.58l2.11.77c-.47,1.53-.73,3.15-.81,4.81Z" style="fill: #000; stroke-width: 0px;"/>
      <path d="M18.82,172.68l-2.1.76c-.57-1.79-.91-3.65-1.01-5.56h2.23c.09,1.65.39,3.25.88,4.8Z" style="fill: #000; stroke-width: 0px;"/>
      <path d="M21.96,178.76l-1.71,1.44c-1.15-1.5-2.11-3.14-2.84-4.88l2.1-.77c.64,1.5,1.46,2.91,2.45,4.2Z" style="fill: #000; stroke-width: 0px;"/>
      <path d="M53.45,154.95l1.73-1.45c1.14,1.5,2.1,3.15,2.83,4.92l-2.1.77c-.64-1.52-1.48-2.93-2.46-4.23Z" style="fill: #000; stroke-width: 0px;"/>
      <path d="M56.58,161.07l2.11-.77c.55,1.78.88,3.65.96,5.58h-2.26c-.08-1.66-.34-3.28-.81-4.81Z" style="fill: #000; stroke-width: 0px;"/>
      <path d="M57.4,167.88h2.23c-.09,1.91-.44,3.78-1.01,5.56l-2.1-.77c.48-1.54.79-3.15.88-4.8Z" style="fill: #000; stroke-width: 0px;"/>
      <path d="M55.84,174.56l2.11.77c-.73,1.74-1.69,3.38-2.84,4.87l-1.71-1.44c.99-1.3,1.81-2.71,2.45-4.2Z" style="fill: #000; stroke-width: 0px;"/>
      <path d="M26.98,183.4l-1.12,1.93c-1.61-1.03-3.05-2.24-4.32-3.62l1.71-1.44c1.1,1.18,2.34,2.23,3.72,3.12Z" style="fill: #000; stroke-width: 0px;"/>
      <path d="M52.09,180.28l1.71,1.44c-1.27,1.37-2.71,2.59-4.32,3.62l-1.12-1.93c1.38-.89,2.62-1.94,3.72-3.12Z" style="fill: #000; stroke-width: 0px;"/>
      <path d="M48.43,150.25l1.12-1.94c1.6,1.03,3.06,2.26,4.34,3.66l-1.73,1.45c-1.11-1.2-2.36-2.27-3.74-3.16Z" style="fill: #000; stroke-width: 0px;"/>
    </g>
    <text transform="translate(54.67 187.38) scale(.88 1)" style="fill: #000; font-family: GillSans-SemiBold, &apos;Gill Sans&apos;; font-size: 6px; font-weight: 600; letter-spacing: -.04em;"><tspan x="0" y="0">All</tspan></text>
    <text transform="translate(269.29 187.34) scale(.88 1)" style="fill: #000; font-family: GillSans-SemiBold, &apos;Gill Sans&apos;; font-size: 6px; font-weight: 600; letter-spacing: -.04em;"><tspan x="0" y="0">All</tspan></text>
    <text transform="translate(257.65 303.22) scale(.88 1)" style="fill: #000; font-family: GillSans-SemiBold, &apos;Gill Sans&apos;; font-size: 8px; font-weight: 600; letter-spacing: -.04em;"><tspan x="0" y="0">Play</tspan></text>
    <g>
      <g>
        <path d="M115.3,145.24l1.13-1.95c-2.75-1.43-5.84-2.3-9.12-2.44v2.26c2.87.14,5.57.89,7.99,2.14Z" style="fill: #000; stroke-width: 0px;"/>
        <path d="M122.89,152.09l1.95-1.13c-1.72-2.68-4-4.96-6.68-6.68l-1.13,1.95c2.34,1.52,4.33,3.51,5.85,5.85Z" style="fill: #000; stroke-width: 0px;"/>
        <path d="M95.58,146.24l-1.13-1.95c-2.68,1.72-4.96,4-6.68,6.68l1.95,1.13c1.52-2.34,3.51-4.33,5.85-5.85Z" style="fill: #000; stroke-width: 0px;"/>
        <path d="M126.02,161.82h2.26c-.15-3.28-1.01-6.37-2.44-9.12l-1.95,1.13c1.24,2.42,1.99,5.13,2.14,8Z" style="fill: #000; stroke-width: 0px;"/>
        <path d="M105.31,143.1v-2.26c-3.28.15-6.37,1.01-9.12,2.44l1.13,1.95c2.42-1.24,5.13-1.99,8-2.14Z" style="fill: #000; stroke-width: 0px;"/>
        <path d="M89.73,173.55l-1.95,1.13c1.72,2.68,4,4.96,6.68,6.68l1.13-1.95c-2.34-1.52-4.33-3.51-5.85-5.85Z" style="fill: #000; stroke-width: 0px;"/>
        <path d="M117.03,179.4l1.13,1.95c2.68-1.72,4.96-4,6.68-6.68l-1.95-1.13c-1.52,2.34-3.51,4.33-5.85,5.85Z" style="fill: #000; stroke-width: 0px;"/>
        <path d="M126.02,163.82c-.14,2.87-.89,5.57-2.14,8l1.95,1.13c1.43-2.75,2.3-5.84,2.44-9.12h-2.26Z" style="fill: #000; stroke-width: 0px;"/>
        <path d="M86.59,163.82h-2.26c.15,3.28,1.01,6.37,2.44,9.12l1.95-1.13c-1.24-2.42-1.99-5.13-2.14-8Z" style="fill: #000; stroke-width: 0px;"/>
        <path d="M88.73,153.82l-1.95-1.13c-1.43,2.75-2.3,5.84-2.44,9.12h2.26c.14-2.87.89-5.57,2.14-8Z" style="fill: #000; stroke-width: 0px;"/>
      </g>
      <g>
        <text transform="translate(86.42 183.34) scale(.8 1)" style="fill: #000; font-family: GillSans-Bold, &apos;Gill Sans&apos;; font-size: 7px; font-weight: 700; letter-spacing: -.05em;"><tspan x="0" y="0">1</tspan></text>
        <text transform="translate(122.76 183.34) scale(.8 1)" style="fill: #000; font-family: GillSans-Bold, &apos;Gill Sans&apos;; font-size: 7px; font-weight: 700; letter-spacing: -.05em;"><tspan x="0" y="0">10</tspan></text>
        <text transform="translate(79.55 171.5) scale(.8 1)" style="fill: #000; font-family: GillSans-Bold, &apos;Gill Sans&apos;; font-size: 7px; font-weight: 700; letter-spacing: -.05em;"><tspan x="0" y="0">2</tspan></text>
        <text transform="translate(129.28 171.5) scale(.8 1)" style="fill: #000; font-family: GillSans-Bold, &apos;Gill Sans&apos;; font-size: 7px; font-weight: 700; letter-spacing: -.05em;"><tspan x="0" y="0">9</tspan></text>
        <text transform="translate(79.6 157.87) scale(.8 1)" style="fill: #000; font-family: GillSans-Bold, &apos;Gill Sans&apos;; font-size: 7px; font-weight: 700; letter-spacing: -.05em;"><tspan x="0" y="0">3</tspan></text>
        <text transform="translate(129.22 157.87) scale(.8 1)" style="fill: #231f20; font-family: GillSans-Bold, &apos;Gill Sans&apos;; font-size: 7px; font-weight: 700; letter-spacing: -.05em;"><tspan x="0" y="0">8</tspan></text>
        <text transform="translate(86.11 146.1) scale(.8 1)" style="fill: #000; font-family: GillSans-Bold, &apos;Gill Sans&apos;; font-size: 7px; font-weight: 700; letter-spacing: -.05em;"><tspan x="0" y="0">4</tspan></text>
        <text transform="translate(122.22 146.1) scale(.8 1)" style="fill: #000; font-family: GillSans-Bold, &apos;Gill Sans&apos;; font-size: 7px; font-weight: 700; letter-spacing: -.05em;"><tspan x="0" y="0">7</tspan></text>
        <text transform="translate(97.6 139.85) scale(.8 1)" style="fill: #000; font-family: GillSans-Bold, &apos;Gill Sans&apos;; font-size: 7px; font-weight: 700; letter-spacing: -.05em;"><tspan x="0" y="0">5</tspan></text>
        <text transform="translate(111.36 139.85) scale(.8 1)" style="fill: #000; font-family: GillSans-Bold, &apos;Gill Sans&apos;; font-size: 7px; font-weight: 700; letter-spacing: -.05em;"><tspan x="0" y="0">6</tspan></text>
      </g>
    </g>
    <g>
      <g>
        <path d="M193.23,145.24l1.13-1.95c-2.75-1.43-5.84-2.3-9.12-2.44v2.26c2.87.14,5.57.89,7.99,2.14Z" style="fill: #000; stroke-width: 0px;"/>
        <path d="M200.82,152.09l1.95-1.13c-1.72-2.68-4-4.96-6.68-6.68l-1.13,1.95c2.34,1.52,4.33,3.51,5.85,5.85Z" style="fill: #000; stroke-width: 0px;"/>
        <path d="M173.51,146.24l-1.13-1.95c-2.68,1.72-4.96,4-6.68,6.68l1.95,1.13c1.52-2.34,3.51-4.33,5.85-5.85Z" style="fill: #000; stroke-width: 0px;"/>
        <path d="M203.96,161.82h2.26c-.15-3.28-1.01-6.37-2.44-9.12l-1.95,1.13c1.24,2.42,1.99,5.13,2.14,8Z" style="fill: #000; stroke-width: 0px;"/>
        <path d="M183.24,143.1v-2.26c-3.28.15-6.37,1.01-9.12,2.44l1.13,1.95c2.42-1.24,5.13-1.99,8-2.14Z" style="fill: #000; stroke-width: 0px;"/>
        <path d="M167.66,173.55l-1.95,1.13c1.72,2.68,4,4.96,6.68,6.68l1.13-1.95c-2.34-1.52-4.33-3.51-5.85-5.85Z" style="fill: #000; stroke-width: 0px;"/>
        <path d="M194.97,179.4l1.13,1.95c2.68-1.72,4.96-4,6.68-6.68l-1.95-1.13c-1.52,2.34-3.51,4.33-5.85,5.85Z" style="fill: #000; stroke-width: 0px;"/>
        <path d="M203.96,163.82c-.14,2.87-.89,5.57-2.14,8l1.95,1.13c1.43-2.75,2.3-5.84,2.44-9.12h-2.26Z" style="fill: #000; stroke-width: 0px;"/>
        <path d="M164.52,163.82h-2.26c.15,3.28,1.01,6.37,2.44,9.12l1.95-1.13c-1.24-2.42-1.99-5.13-2.14-8Z" style="fill: #000; stroke-width: 0px;"/>
        <path d="M166.66,153.82l-1.95-1.13c-1.43,2.75-2.3,5.84-2.44,9.12h2.26c.14-2.87.89-5.57,2.14-8Z" style="fill: #000; stroke-width: 0px;"/>
      </g>
      <g>
        <text transform="translate(164.35 183.34) scale(.8 1)" style="fill: #231f20; font-family: GillSans-Bold, &apos;Gill Sans&apos;; font-size: 7px; font-weight: 700; letter-spacing: -.05em;"><tspan x="0" y="0">1</tspan></text>
        <text transform="translate(200.69 183.34) scale(.8 1)" style="fill: #231f20; font-family: GillSans-Bold, &apos;Gill Sans&apos;; font-size: 7px; font-weight: 700; letter-spacing: -.05em;"><tspan x="0" y="0">10</tspan></text>
        <text transform="translate(157.49 171.5) scale(.8 1)" style="fill: #231f20; font-family: GillSans-Bold, &apos;Gill Sans&apos;; font-size: 7px; font-weight: 700; letter-spacing: -.05em;"><tspan x="0" y="0">2</tspan></text>
        <text transform="translate(207.22 171.5) scale(.8 1)" style="fill: #231f20; font-family: GillSans-Bold, &apos;Gill Sans&apos;; font-size: 7px; font-weight: 700; letter-spacing: -.05em;"><tspan x="0" y="0">9</tspan></text>
        <text transform="translate(157.53 157.87) scale(.8 1)" style="fill: #231f20; font-family: GillSans-Bold, &apos;Gill Sans&apos;; font-size: 7px; font-weight: 700; letter-spacing: -.05em;"><tspan x="0" y="0">3</tspan></text>
        <text transform="translate(207.15 157.87) scale(.8 1)" style="fill: #231f20; font-family: GillSans-Bold, &apos;Gill Sans&apos;; font-size: 7px; font-weight: 700; letter-spacing: -.05em;"><tspan x="0" y="0">8</tspan></text>
        <text transform="translate(164.05 146.1) scale(.8 1)" style="fill: #231f20; font-family: GillSans-Bold, &apos;Gill Sans&apos;; font-size: 7px; font-weight: 700; letter-spacing: -.05em;"><tspan x="0" y="0">4</tspan></text>
        <text transform="translate(200.16 146.1) scale(.8 1)" style="fill: #231f20; font-family: GillSans-Bold, &apos;Gill Sans&apos;; font-size: 7px; font-weight: 700; letter-spacing: -.05em;"><tspan x="0" y="0">7</tspan></text>
        <text transform="translate(175.54 139.85) scale(.8 1)" style="fill: #231f20; font-family: GillSans-Bold, &apos;Gill Sans&apos;; font-size: 7px; font-weight: 700; letter-spacing: -.05em;"><tspan x="0" y="0">5</tspan></text>
        <text transform="translate(189.29 139.85) scale(.8 1)" style="fill: #231f20; font-family: GillSans-Bold, &apos;Gill Sans&apos;; font-size: 7px; font-weight: 700; letter-spacing: -.05em;"><tspan x="0" y="0">6</tspan></text>
      </g>
    </g>
    <path d="M16.32,188.61v-6.36s-.35,6.39,5.35,6.36" style="fill: none; stroke: #231f20; stroke-linecap: square;"/>
    <path d="M231.66,188.57v-6.36s-.35,6.39,5.35,6.36" style="fill: none; stroke: #231f20; stroke-linecap: square;"/>
    <polyline points="18.25 303.03 19.98 303.03 19.98 298.02 22.01 298.02 22.01 303.03 23.69 303.03" style="fill: none; stroke: #000; stroke-miterlimit: 10;"/>
    <g>
      <text transform="translate(112.44 303.27) scale(.88 1)" style="fill: #000; font-family: GillSans-SemiBold, &apos;Gill Sans&apos;; font-size: 8px; font-weight: 600; letter-spacing: -.04em;"><tspan x="0" y="0">Reverse</tspan></text>
      <polyline points="106.26 303.03 107.99 303.03 107.99 298.02 110.02 298.02 110.02 303.03 111.7 303.03" style="fill: none; stroke: #000; stroke-miterlimit: 10;"/>
    </g>
    <g>
      <text transform="translate(158.83 303.27) scale(.88 1)" style="fill: #000; font-family: GillSans-SemiBold, &apos;Gill Sans&apos;; font-size: 8px; font-weight: 600; letter-spacing: -.04em;"><tspan x="0" y="0">Reverse</tspan></text>
      <polyline points="152.97 303.03 154.7 303.03 154.7 298.02 156.73 298.02 156.73 303.03 158.42 303.03" style="fill: none; stroke: #000; stroke-miterlimit: 10;"/>
    </g>
    <polyline points="251.54 303.03 253.27 303.03 253.27 298.02 255.3 298.02 255.3 303.03 256.99 303.03" style="fill: none; stroke: #000; stroke-miterlimit: 10;"/>
    <text transform="translate(234.46 137.08) scale(.88 1)" style="fill: #000; font-family: GillSans-Bold, &apos;Gill Sans&apos;; font-size: 9px; font-weight: 700; letter-spacing: -.04em;"><tspan x="0" y="0">Start Pos.</tspan></text>
    <text transform="translate(177.17 227.13) scale(.88 1)" style="fill: #000; font-family: GillSans-Bold, &apos;Gill Sans&apos;; font-size: 9px; font-weight: 700; letter-spacing: -.04em;"><tspan x="0" y="0">Bank</tspan></text>
    <g>
      <path d="M37.67,34.54c-.83,0-1.65.07-2.45.17l-.39-2.21c.93-.12,1.88-.19,2.84-.19s1.91.07,2.84.19l-.39,2.21c-.81-.1-1.62-.17-2.45-.17Z" style="fill: #000; stroke-width: 0px;"/>
      <path d="M23.18,40.91l-1.73-1.45c1.28-1.4,2.74-2.63,4.34-3.66l1.12,1.94c-1.38.9-2.62,1.96-3.73,3.16Z" style="fill: #000; stroke-width: 0px;"/>
      <path d="M28.64,36.74l-1.12-1.94c1.67-.87,3.46-1.53,5.34-1.95l.39,2.21c-1.62.37-3.16.94-4.61,1.69Z" style="fill: #000; stroke-width: 0px;"/>
      <path d="M19.44,46.68l-2.1-.76c.73-1.77,1.69-3.42,2.83-4.92l1.73,1.45c-.98,1.3-1.82,2.71-2.46,4.23Z" style="fill: #000; stroke-width: 0px;"/>
      <path d="M42.09,35.05l.39-2.21c1.88.42,3.67,1.08,5.34,1.95l-1.12,1.94c-1.44-.74-2.98-1.31-4.6-1.69Z" style="fill: #000; stroke-width: 0px;"/>
      <path d="M17.96,53.37h-2.26c.08-1.93.41-3.8.96-5.58l2.11.77c-.47,1.53-.73,3.15-.81,4.81Z" style="fill: #000; stroke-width: 0px;"/>
      <path d="M18.82,60.17l-2.1.76c-.57-1.79-.91-3.65-1.01-5.56h2.23c.09,1.65.39,3.25.88,4.8Z" style="fill: #000; stroke-width: 0px;"/>
      <path d="M21.96,66.25l-1.71,1.44c-1.15-1.5-2.11-3.14-2.84-4.88l2.1-.77c.64,1.5,1.46,2.91,2.45,4.2Z" style="fill: #000; stroke-width: 0px;"/>
      <path d="M53.45,42.44l1.73-1.45c1.14,1.5,2.1,3.15,2.83,4.92l-2.1.77c-.64-1.52-1.48-2.93-2.46-4.23Z" style="fill: #000; stroke-width: 0px;"/>
      <path d="M56.58,48.56l2.11-.77c.55,1.78.88,3.65.96,5.58h-2.26c-.08-1.66-.34-3.28-.81-4.81Z" style="fill: #000; stroke-width: 0px;"/>
      <path d="M57.4,55.37h2.23c-.09,1.91-.44,3.78-1.01,5.56l-2.1-.77c.48-1.54.79-3.15.88-4.8Z" style="fill: #000; stroke-width: 0px;"/>
      <path d="M55.84,62.05l2.11.77c-.73,1.74-1.69,3.38-2.84,4.87l-1.71-1.44c.99-1.3,1.81-2.71,2.45-4.2Z" style="fill: #000; stroke-width: 0px;"/>
      <path d="M26.98,70.9l-1.12,1.93c-1.61-1.03-3.05-2.24-4.32-3.62l1.71-1.44c1.1,1.18,2.34,2.23,3.72,3.12Z" style="fill: #000; stroke-width: 0px;"/>
      <path d="M52.09,67.78l1.71,1.44c-1.27,1.37-2.71,2.59-4.32,3.62l-1.12-1.93c1.38-.89,2.62-1.94,3.72-3.12Z" style="fill: #000; stroke-width: 0px;"/>
      <path d="M48.43,37.74l1.12-1.94c1.6,1.03,3.06,2.26,4.34,3.66l-1.73,1.45c-1.11-1.2-2.36-2.27-3.74-3.16Z" style="fill: #000; stroke-width: 0px;"/>
    </g>
    <rect id="Screen" x="66.74" y="55.37" width="153.92" height="70.82" style="fill: #000; stroke-width: 0px;"/>
  </g>
  <g id="components">
    <circle id="Play_B_Light_WhiteLight" data-name="Play B Light#WhiteLight" cx="237.55" cy="241.45" r="4.25" style="fill: #f0f; stroke-width: 0px;"/>
    <circle id="Bank_B_Light" data-name="Bank B Light" cx="102.65" cy="209.66" r="4.25" style="fill: #f0f; stroke-width: 0px;"/>
    <circle id="Play_A_Light_WhiteLight" data-name="Play A Light#WhiteLight" cx="50.71" cy="241.45" r="4.25" style="fill: #f0f; stroke-width: 0px;"/>
    <circle id="Bank_A_Light" data-name="Bank A Light" cx="187" cy="209.66" r="4.25" style="fill: #f0f; stroke-width: 0px;"/>
    <circle id="End_Out_B" data-name="End Out B" cx="167.44" cy="248.15" r="11.34" style="fill: blue; stroke-width: 0px;"/>
    <circle id="End_Out_A" data-name="End Out A" cx="118" cy="248.15" r="11.34" style="fill: blue; stroke-width: 0px;"/>
    <circle id="Out_B_Right" data-name="Out B Right" cx="260.66" cy="248.15" r="11.34" style="fill: blue; stroke-width: 0px;"/>
    <circle id="Out_B_Left" data-name="Out B Left" cx="213.99" cy="248.15" r="11.34" style="fill: blue; stroke-width: 0px;"/>
    <circle id="Out_A_Right" data-name="Out A Right" cx="73.91" cy="248.15" r="11.34" style="fill: blue; stroke-width: 0px;"/>
    <circle id="Out_A_Left" data-name="Out A Left" cx="27.2" cy="248.15" r="11.34" style="fill: blue; stroke-width: 0px;"/>
    <circle id="Length_CV_B" data-name="Length CV B" cx="260.66" cy="319.45" r="11.34" style="fill: lime; stroke-width: 0px;"/>
    <circle id="Start_Pos_CV_B" data-name="Start Pos CV B" cx="213.94" cy="319.45" r="11.34" style="fill: lime; stroke-width: 0px;"/>
    <circle id="Sample_CV_B" data-name="Sample CV B" cx="167.23" cy="319.45" r="11.34" style="fill: lime; stroke-width: 0px;"/>
    <circle id="Sample_CV_A" data-name="Sample CV A" cx="120.67" cy="319.51" r="11.34" style="fill: lime; stroke-width: 0px;"/>
    <circle id="Start_Pos_CV_A" data-name="Start Pos CV A" cx="73.91" cy="319.37" r="11.34" style="fill: lime; stroke-width: 0px;"/>
    <circle id="Length_CV_A" data-name="Length CV A" cx="27.2" cy="319.51" r="11.34" style="fill: lime; stroke-width: 0px;"/>
    <circle id="Play_Trig_B" data-name="Play Trig B" cx="260.66" cy="283.45" r="11.34" style="fill: #80ff80; stroke-width: 0px;"/>
    <circle id="_1V_Oct_B" data-name="1V/Oct B" cx="213.99" cy="284.01" r="11.34" style="fill: lime; stroke-width: 0px;"/>
    <circle id="Reverse_Trig_B" data-name="Reverse Trig B" cx="167.23" cy="283.45" r="11.34" style="fill: #80ff80; stroke-width: 0px;"/>
    <circle id="Reverse_Trig_A" data-name="Reverse Trig A" cx="120.67" cy="283.45" r="11.34" style="fill: #80ff80; stroke-width: 0px;"/>
    <circle id="_1V_Oct_A" data-name="1V/Oct A" cx="73.91" cy="284.01" r="11.34" style="fill: lime; stroke-width: 0px;"/>
    <circle id="Play_Trig_A" data-name="Play Trig A" cx="27.2" cy="283.45" r="11.34" style="fill: #80ff80; stroke-width: 0px;"/>
    <circle id="Next_Bank_B_MomentaryArrowRightButton" data-name="Next Bank B#MomentaryArrowRightButton" cx="202.18" cy="209.66" r="8.5" style="fill: #ffc000; stroke-width: 0px;"/>
    <circle id="Prev_Bank_B_MomentaryArrowLeftButton" data-name="Prev Bank B#MomentaryArrowLeftButton" cx="171.83" cy="209.66" r="8.5" style="fill: #ffc000; stroke-width: 0px;"/>
    <circle id="Reverse_B_MomentaryRGB7mm" data-name="Reverse B#MomentaryRGB7mm" cx="252.57" cy="208.82" r="8.5" style="fill: #ffc000; stroke-width: 0px;"/>
    <circle id="Play_B_MomentaryRGB7mm" data-name="Play B#MomentaryRGB7mm" cx="213.03" cy="34.27" r="10.63" style="fill: #ffc000; stroke-width: 0px;"/>
    <circle id="Length_B" data-name="Length B" cx="252.89" cy="166.44" r="17.01" style="fill: #ff0080; stroke-width: 0px;"/>
    <circle id="Start_Pos._B" data-name="Start Pos. B" cx="252.89" cy="109.78" r="17.01" style="fill: red; stroke-width: 0px;"/>
    <circle id="Sample_B" data-name="Sample B" cx="184.44" cy="162.7" r="17.01" style="fill: red; stroke-width: 0px;"/>
    <circle id="Pitch_B" data-name="Pitch B" cx="252.89" cy="54.27" r="17.01" style="fill: #ff0040; stroke-width: 0px;"/>
    <circle id="Next_Bank_A_MomentaryArrowRightButton" data-name="Next Bank A#MomentaryArrowRightButton" cx="117.82" cy="209.66" r="8.5" style="fill: #ffc000; stroke-width: 0px;"/>
    <circle id="Prev_Bank_A_MomentaryArrowLeftButton" data-name="Prev Bank A#MomentaryArrowLeftButton" cx="87.47" cy="209.66" r="8.5" style="fill: #ffc000; stroke-width: 0px;"/>
    <circle id="Reverse_A_MomentaryRGB7mm" data-name="Reverse A#MomentaryRGB7mm" cx="37.24" cy="208.82" r="8.5" style="fill: #ffc000; stroke-width: 0px;"/>
    <circle id="Play_A_MomentaryRGB7mm" data-name="Play A#MomentaryRGB7mm" cx="80.48" cy="35.33" r="10.63" style="fill: #ffc000; stroke-width: 0px;"/>
    <circle id="Length_A" data-name="Length A" cx="37.67" cy="166.48" r="17.01" style="fill: #ff0080; stroke-width: 0px;"/>
    <circle id="Start_Pos._A" data-name="Start Pos. A" cx="37.67" cy="110" r="17.01" style="fill: red; stroke-width: 0px;"/>
    <circle id="Sample_A" data-name="Sample A" cx="106.16" cy="162.85" r="17.01" style="fill: red; stroke-width: 0px;"/>
    <circle id="Pitch_A" data-name="Pitch A" cx="37.67" cy="54.34" r="17.01" style="fill: #ff0040; stroke-width: 0px;"/>
    <text id="slug" transform="translate(183.52 361.82)" style="fill: #000; font-family: MyriadPro-Regular, &apos;Myriad Pro&apos;; font-size: 6px;"><tspan x="0" y="0">S</tspan><tspan x="2.96" y="0" style="letter-spacing: 0em;">T</tspan><tspan x="5.9" y="0">SP</tspan></text>
    <text id="modulename" transform="translate(198.99 361.82)" style="fill: #000; font-family: MyriadPro-Regular, &apos;Myriad Pro&apos;; font-size: 6px;"><tspan x="0" y="0" style="letter-spacing: 0em;">S</tspan><tspan x="2.94" y="0" style="letter-spacing: 0em;">t</tspan><tspan x="4.89" y="0">e</tspan><tspan x="7.9" y="0" style="letter-spacing: 0em;">r</tspan><tspan x="9.8" y="0">eo</tspan><tspan x="16.1" y="0" style="letter-spacing: -.04em;"> </tspan><tspan x="17.12" y="0" style="letter-spacing: -.05em;">T</tspan><tspan x="19.84" y="0" style="letter-spacing: 0em;">r</tspan><tspan x="21.82" y="0" style="letter-spacing: 0em;">igge</tspan><tspan x="32.94" y="0" style="letter-spacing: 0em;">r</tspan><tspan x="34.84" y="0">ed </tspan><tspan x="42.5" y="0" style="letter-spacing: 0em;">S</tspan><tspan x="45.48" y="0">ample </tspan><tspan x="62.48" y="0" style="letter-spacing: 0em;">P</tspan><tspan x="65.65" y="0">l</tspan><tspan x="67.06" y="0" style="letter-spacing: 0em;">a</tspan><tspan x="69.91" y="0" style="letter-spacing: -.01em;">y</tspan><tspan x="72.67" y="0">er</tspan></text>
    <rect id="Screen-2" data-name="Screen" x="66.74" y="55.37" width="153.92" height="70.39" style="fill: blue; stroke-width: 0px;"/>
  </g>
</svg>