<?xml version="1.0" encoding="UTF-8" standalone="no"?>
<svg
   width="40.64mm"
   height="130.55mm"
   viewBox="0 0 115.2 370.07"
   version="1.1"
   id="svg25"
   sodipodi:docname="Switch14_info.svg"
   inkscape:version="1.4 (e7c3feb1, 2024-10-09)"
   xmlns:inkscape="http://www.inkscape.org/namespaces/inkscape"
   xmlns:sodipodi="http://sodipodi.sourceforge.net/DTD/sodipodi-0.dtd"
   xmlns="http://www.w3.org/2000/svg"
   xmlns:svg="http://www.w3.org/2000/svg">
  <defs
     id="defs25" />
  <sodipodi:namedview
     id="namedview25"
     pagecolor="#ffffff"
     bordercolor="#000000"
     borderopacity="0.25"
     inkscape:showpageshadow="2"
     inkscape:pageopacity="0.0"
     inkscape:pagecheckerboard="0"
     inkscape:deskcolor="#d1d1d1"
     inkscape:document-units="mm"
     inkscape:zoom="2.0449221"
     inkscape:cx="76.775542"
     inkscape:cy="246.70867"
     inkscape:window-width="1200"
     inkscape:window-height="1186"
     inkscape:window-x="2240"
     inkscape:window-y="25"
     inkscape:window-maximized="0"
     inkscape:current-layer="components" />
  <g
     id="faceplate">
    <g
       id="g1">
      <rect
         x=".12"
         y=".13"
         width="114.95"
         height="364"
         style="fill: #ededed; stroke-width: 0px;"
         id="rect1" />
      <path
         d="M114.95.25v363.75H.25V.25h114.7M115.2,0H0v364.25h115.2V0h0Z"
         style="fill: #9d9d9e; stroke-width: 0px;"
         id="path1" />
    </g>
    <path
       d="M14.4,324.53l-.07-60.21v-92.16l.06-6.21c.29-8.35,6.8-15.02,14-15.02h58.66c7.2,0,13.06,6.67,13.35,15.02l.06,6.21v163.36c0,3.12-2.54,5.67-5.66,5.67h-14.39,0s-15.07,0-15.07,0v-.03h-31.71s-.65,0-.65,0h-12.93c-3.12,0-5.67-2.55-5.67-5.67"
       style="fill: #000; stroke-width: 0px;"
       id="path2" />
    <path
       d="M99.98,170.74v-5.67c0-7.8-6.38-14.17-14.17-14.17H29.09c-7.8,0-14.17,6.38-14.17,14.17v76.37c0,3.12,2.55,5.67,5.67,5.67h73.72c3.12,0,5.67-2.55,5.67-5.67v-70.7Z"
       style="fill: #ededed; stroke: #000; stroke-miterlimit: 10;"
       id="path3" />
    <g
       id="g6">
      <path
         d="M49.4,18.07c-.37,0-.71-.17-.97-.47-.51-.6-.52-1.54-.04-2.16l6.97-8.88c.38-.48,1.05-.65,1.57-.39.5.25.79.82.79,1.45v4.77l4.64-5.85c.38-.48,1.01-.64,1.53-.38.5.25.83.81.83,1.44v8.82c0,.86-.61,1.57-1.36,1.57s-1.36-.7-1.36-1.57v-4.79l-4.64,5.85c-.38.48-1.01.64-1.54.38-.5-.24-.83-.81-.83-1.44v-4.67l-4.61,5.8c-.26.32-.62.51-1,.51h0Z"
         style="fill: #2cabe1; stroke-width: 0px;"
         id="path4" />
      <path
         d="M49.4,18.07c-.75,0-1.35-.7-1.35-1.57v-4.93l-2.26,2.84c-.5.63-1.44.65-1.97.04-.51-.6-.52-1.53-.03-2.15l4.61-5.76c.26-.32.63-.5,1-.5.18,0,.37.04.54.12.5.25.82.81.82,1.44v8.89c0,.86-.61,1.57-1.36,1.57h0Z"
         style="fill: #ea2228; stroke-width: 0px;"
         id="path5" />
      <path
         d="M66,18.09h0c-.35,0-.68-.15-.94-.42-.76-.78-.14-1.84.29-2.3l1.95-2.36-1.26-.02c-.56-.01-1.04-.4-1.24-1-.19-.56-.07-1.21.29-1.64l3.16-3.83c.23-.28.55-.48,1.13-.47.33,0,.67.17.92.4.71.66.29,1.7-.07,2.2l-1.04,1.26,1.26.02c.56.01,1.04.4,1.24,1,.19.56.07,1.21-.29,1.64l-4.1,4.97c-.35.35-.65.55-1.3.54h0Z"
         style="fill: #00a650; stroke-width: 0px;"
         id="path6" />
    </g>
    <g
       id="text">
      <text
         transform="translate(29.01 357.3) scale(.82 1)"
         style="fill: #000; font-family: GillSans-Bold, 'Gill Sans'; font-size: 11px; font-weight: 700;"
         id="text6"><tspan
           x="0"
           y="0"
           id="tspan6">SWITCH 1:4</tspan></text>
      <text
         transform="translate(78.27 239.7) scale(.88 1)"
         style="fill: #000; font-family: GillSans-Bold, 'Gill Sans'; font-size: 8px; font-weight: 700; letter-spacing: -.04em;"
         id="text7"><tspan
           x="0"
           y="0"
           id="tspan7">CV</tspan></text>
      <text
         transform="translate(73.82 287.83) scale(.88 1)"
         style="fill: #fff; font-family: GillSans-Bold, 'Gill Sans'; font-size: 8px; font-weight: 700; letter-spacing: -.04em;"
         id="text8"><tspan
           x="0"
           y="0"
           id="tspan8">Out 2</tspan></text>
      <text
         transform="translate(73.87 335.09) scale(.88 1)"
         style="fill: #fff; font-family: GillSans-Bold, 'Gill Sans'; font-size: 8px; font-weight: 700; letter-spacing: -.04em;"
         id="text9"><tspan
           x="0"
           y="0"
           id="tspan9">Out 4</tspan></text>
      <text
         transform="translate(22.36 239.7) scale(.88 1)"
         style="fill: #000; font-family: GillSans-Bold, 'Gill Sans'; font-size: 8px; font-weight: 700; letter-spacing: -.04em;"
         id="text10"><tspan
           x="0"
           y="0"
           id="tspan10">Clock</tspan></text>
      <text
         transform="translate(22.28 287.83) scale(.88 1)"
         style="fill: #fff; font-family: GillSans-Bold, 'Gill Sans'; font-size: 8px; font-weight: 700; letter-spacing: -.04em;"
         id="text11"><tspan
           x="0"
           y="0"
           id="tspan11">Out 1</tspan></text>
      <text
         transform="translate(73.66 191.72) scale(.88 1)"
         style="fill: #231f20; font-family: GillSans-Bold, 'Gill Sans'; font-size: 8px; font-weight: 700; letter-spacing: -.04em;"
         id="text12"><tspan
           x="0"
           y="0"
           id="tspan12">Reset</tspan></text>
      <text
         transform="translate(22.61 191.72) scale(.88 1)"
         style="fill: #231f20; font-family: GillSans-Bold, 'Gill Sans'; font-size: 8px; font-weight: 700; letter-spacing: -.04em;"
         id="text13"><tspan
           x="0"
           y="0"
           id="tspan13">Input</tspan></text>
      <text
         transform="translate(22.37 335.09) scale(.88 1)"
         style="fill: #fff; font-family: GillSans-Bold, 'Gill Sans'; font-size: 8px; font-weight: 700; letter-spacing: -.04em;"
         id="text14"><tspan
           x="0"
           y="0"
           id="tspan14">Out 3</tspan></text>
    </g>
  </g>
  <g
     id="components">
    <circle
       id="Out_4"
       data-name="Ch. 4 Out"
       cx="83.3"
       cy="311.88"
       r="11.34"
       style="fill: blue; stroke-width: 0px;" />
    <circle
       id="Out_3"
       data-name="Ch. 3 Out"
       cx="31.76"
       cy="311.88"
       r="11.34"
       style="fill: blue; stroke-width: 0px;" />
    <circle
       id="Out_2"
       data-name="Ch. 2 Out"
       cx="83.3"
       cy="263.15"
       r="11.34"
       style="fill: blue; stroke-width: 0px;" />
    <circle
       id="Out_1"
       data-name="Ch. 1 Out"
       cx="31.76"
       cy="263.15"
       r="11.34"
       style="fill: blue; stroke-width: 0px;" />
    <circle
       id="CV"
       cx="83.3"
       cy="214.43"
       r="11.34"
       style="fill: lime; stroke-width: 0px;" />
    <circle
       id="Clock"
       cx="31.76"
       cy="214.43"
       r="11.34"
       style="fill: lime; stroke-width: 0px;" />
    <circle
       id="Reset"
       cx="83.3"
       cy="167.04"
       r="11.34"
       style="fill: lime; stroke-width: 0px;" />
    <circle
       id="Signal In"
       cx="31.76"
       cy="167.04"
       r="11.34"
       style="fill: lime; stroke-width: 0px;" />
    <text
       id="slug"
       transform="translate(77.96 369.32)"
       style="fill: #000; font-family: MyriadPro-Regular, 'Myriad Pro'; font-size: 3px;"><tspan
         x="0"
         y="0"
         style="letter-spacing: 0em;"
         id="tspan15">S</tspan><tspan
         x="1.46"
         y="0"
         id="tspan16">wi</tspan><tspan
         x="4.37"
         y="0"
         style="letter-spacing: 0em;"
         id="tspan17">t</tspan><tspan
         x="5.34"
         y="0"
         id="tspan18">ch14</tspan></text>
    <text
       id="modulename"
       transform="translate(97.28 369.32)"
       style="fill: #000; font-family: MyriadPro-Regular, 'Myriad Pro'; font-size: 3px;"><tspan
         x="0"
         y="0"
         id="tspan19">1 </tspan><tspan
         x="2.17"
         y="0"
         style="letter-spacing: 0em;"
         id="tspan20">t</tspan><tspan
         x="3.15"
         y="0"
         style="letter-spacing: 0em;"
         id="tspan21">o 4 </tspan><tspan
         x="7.61"
         y="0"
         style="letter-spacing: 0em;"
         id="tspan22">S</tspan><tspan
         x="9.06"
         y="0"
         id="tspan23">wi</tspan><tspan
         x="11.97"
         y="0"
         style="letter-spacing: 0em;"
         id="tspan24">t</tspan><tspan
         x="12.95"
         y="0"
         id="tspan25">ch</tspan></text>
  </g>
</svg>
