<?xml version="1.0" encoding="UTF-8" standalone="no"?>
<svg
   width="71.120003mm"
   height="128.9541mm"
   viewBox="0 0 201.61195 365.53721"
   version="1.1"
   id="svg192"
   sodipodi:docname="TSP.svg"
   inkscape:version="1.3.2 (091e20e, 2023-11-25)"
   xmlns:inkscape="http://www.inkscape.org/namespaces/inkscape"
   xmlns:sodipodi="http://sodipodi.sourceforge.net/DTD/sodipodi-0.dtd"
   xmlns="http://www.w3.org/2000/svg"
   xmlns:svg="http://www.w3.org/2000/svg">
  <defs
     id="defs192" />
  <sodipodi:namedview
     id="namedview192"
     pagecolor="#ffffff"
     bordercolor="#666666"
     borderopacity="1.0"
     inkscape:showpageshadow="2"
     inkscape:pageopacity="0.0"
     inkscape:pagecheckerboard="0"
     inkscape:deskcolor="#d1d1d1"
     inkscape:document-units="mm"
     inkscape:zoom="1.7592106"
     inkscape:cx="99.476436"
     inkscape:cy="259.20717"
     inkscape:window-width="1352"
     inkscape:window-height="1051"
     inkscape:window-x="48"
     inkscape:window-y="38"
     inkscape:window-maximized="0"
     inkscape:current-layer="components"
     showguides="true"
     showgrid="false" />
  <g
     id="faceplate"
     transform="translate(-0.12999999,0.64365888)">
    <g
       id="g1">
      <rect
         x="0.13000396"
         y="-0.65644443"
         width="201.61807"
         height="363.98999"
         style="fill:#ededed;stroke-width:0px"
         id="rect1"
         transform="matrix(0.99996965,0.00779129,0,1,0,0)" />
    </g>
    <text
       transform="scale(0.93808314,1.0660036)"
       style="font-style:normal;font-variant:normal;font-weight:bold;font-stretch:normal;font-size:7.50467px;font-family:GillSans-SemiBold, 'Gill Sans';-inkscape-font-specification:'GillSans-SemiBold, Gill Sans, Bold';font-variant-ligatures:normal;font-variant-caps:normal;font-variant-numeric:normal;font-variant-east-asian:normal;letter-spacing:-0.04em;stroke-width:0.938083"
       id="text26-7-0"
       x="157.83841"
       y="272.59091"><tspan
         x="157.83841"
         y="272.59091"
         id="tspan26-3-0"
         style="font-style:normal;font-variant:normal;font-weight:bold;font-stretch:normal;font-size:7.50467px;font-family:GillSans-SemiBold, 'Gill Sans';-inkscape-font-specification:'GillSans-SemiBold, Gill Sans, Bold';font-variant-ligatures:normal;font-variant-caps:normal;font-variant-numeric:normal;font-variant-east-asian:normal;stroke-width:0.938083">Sample</tspan></text>
    <text
       transform="scale(0.93808314,1.0660036)"
       style="font-style:normal;font-variant:normal;font-weight:bold;font-stretch:normal;font-size:7.50467px;font-family:GillSans-SemiBold, 'Gill Sans';-inkscape-font-specification:'GillSans-SemiBold, Gill Sans, Bold';font-variant-ligatures:normal;font-variant-caps:normal;font-variant-numeric:normal;font-variant-east-asian:normal;letter-spacing:-0.04em;stroke-width:0.938083"
       id="text26-7-9-1"
       x="142.29733"
       y="239.36494"><tspan
         x="142.29733"
         y="239.36494"
         id="tspan26-3-5-0"
         style="font-style:normal;font-variant:normal;font-weight:bold;font-stretch:normal;font-size:7.50467px;font-family:GillSans-SemiBold, 'Gill Sans';-inkscape-font-specification:'GillSans-SemiBold, Gill Sans, Bold';font-variant-ligatures:normal;font-variant-caps:normal;font-variant-numeric:normal;font-variant-east-asian:normal;stroke-width:0.938083">Bank</tspan></text>
    <rect
       x="11.726996"
       y="299.68036"
       width="180.37538"
       height="38.556671"
       rx="8.6288166"
       ry="8.9542484"
       style="stroke:#000000;stroke-width:1.01854"
       id="rect2" />
    <text
       transform="scale(0.93808314,1.0660036)"
       style="font-weight:700;font-size:8.44275px;font-family:GillSans-Bold, 'Gill Sans';letter-spacing:-0.04em;stroke-width:0.938083"
       id="text12"
       x="159.80591"
       y="47.294552"><tspan
         x="159.80591"
         y="47.294552"
         id="tspan12"
         style="stroke-width:0.938083">Bank</tspan></text>
    <text
       transform="scale(0.93808314,1.0660036)"
       style="font-weight:700;font-size:8.44275px;font-family:GillSans-Bold, 'Gill Sans';letter-spacing:-0.04em;fill:#ffffff;stroke-width:0.938083"
       id="text15"
       x="68.694481"
       y="314.97739"><tspan
         x="68.694481"
         y="314.97739"
         id="tspan15"
         style="stroke-width:0.938083">OUT</tspan></text>
    <text
       transform="scale(0.93808314,1.0660036)"
       style="font-weight:600;font-size:7.50467px;font-family:GillSans-SemiBold, 'Gill Sans';letter-spacing:-0.04em;fill:#ffffff;stroke-width:0.938083"
       id="text16"
       x="104.94143"
       y="314.97739"><tspan
         x="104.94143"
         y="314.97739"
         id="tspan16"
         style="stroke-width:0.938083">R</tspan></text>
    <text
       transform="scale(0.93808314,1.0660036)"
       style="font-weight:600;font-size:7.50467px;font-family:GillSans-SemiBold, 'Gill Sans';letter-spacing:-0.04em;fill:#ffffff;stroke-width:0.938083"
       id="text17"
       x="47.846859"
       y="314.97739"><tspan
         x="47.846859"
         y="314.97739"
         id="tspan17"
         style="stroke-width:0.938083">L</tspan></text>
    <text
       transform="scale(0.93808314,1.0660036)"
       style="font-weight:600;font-size:7.50467px;font-family:GillSans-SemiBold, 'Gill Sans';letter-spacing:-0.04em;stroke-width:0.938083"
       id="text22"
       x="47.122532"
       y="272.59091"><tspan
         x="47.122532"
         y="272.59091"
         id="tspan22"
         style="stroke-width:0.938083">Length CV</tspan></text>
    <text
       transform="scale(0.93808314,1.0660036)"
       style="font-weight:600;font-size:7.50467px;font-family:GillSans-SemiBold, 'Gill Sans';letter-spacing:-0.04em;stroke-width:0.938083"
       id="text23"
       x="10.564922"
       y="272.59091"><tspan
         x="10.564922"
         y="272.59091"
         id="tspan23"
         style="stroke-width:0.938083">1V/OCT</tspan></text>
    <text
       transform="scale(0.93808314,1.0660036)"
       style="font-weight:600;font-size:7.50467px;font-family:GillSans-SemiBold, 'Gill Sans';letter-spacing:-0.04em;stroke-width:0.938083"
       id="text26"
       x="90.482407"
       y="272.59091"><tspan
         x="90.482407"
         y="272.59091"
         id="tspan26"
         style="stroke-width:0.938083">Start Pos CV</tspan></text>
    <text
       transform="scale(0.93808314,1.0660036)"
       style="font-weight:600;font-size:7.50467px;font-family:GillSans-SemiBold, 'Gill Sans';letter-spacing:-0.04em;stroke-width:0.938083"
       id="text28"
       x="37.984783"
       y="239.36494"><tspan
         x="37.984783"
         y="239.36494"
         id="tspan28"
         style="stroke-width:0.938083">Play</tspan></text>
    <text
       transform="scale(0.93808314,1.0660036)"
       style="font-weight:700;font-size:8.44275px;font-family:GillSans-Bold, 'Gill Sans';letter-spacing:-0.04em;stroke-width:0.938083"
       id="text30"
       x="80.14933"
       y="70.738831"><tspan
         x="80.14933"
         y="70.738831"
         id="tspan30"
         style="stroke-width:0.938083">Reverse</tspan></text>
    <text
       transform="scale(0.93808314,1.0660036)"
       style="font-weight:700;font-size:8.44275px;font-family:GillSans-Bold, 'Gill Sans';letter-spacing:-0.04em;stroke-width:0.938083"
       id="text30-1"
       x="51.89101"
       y="70.738831"><tspan
         x="51.89101"
         y="70.738831"
         id="tspan30-7"
         style="stroke-width:0.938083">Loop</tspan></text>
    <text
       transform="scale(0.93808314,1.0660036)"
       style="font-weight:600;font-size:7.50467px;font-family:GillSans-SemiBold, 'Gill Sans';letter-spacing:-0.04em;fill:#ffffff;stroke-width:0.938083"
       id="text31"
       x="158.5407"
       y="314.39114"><tspan
         x="158.5407"
         y="314.39114"
         id="tspan31"
         style="stroke-width:0.938083">End Out</tspan></text>
    <text
       transform="scale(0.93808314,1.0660036)"
       style="font-weight:700;font-size:8.44275px;font-family:GillSans-Bold, 'Gill Sans';letter-spacing:-0.04em;stroke-width:0.938083"
       id="text33"
       x="15.785357"
       y="70.738831"><tspan
         x="15.785357"
         y="70.738831"
         id="tspan33"
         style="stroke-width:0.938083">PLAY</tspan></text>
    <text
       transform="scale(0.93808314,1.0660036)"
       style="font-weight:700;font-size:8.44275px;font-family:GillSans-Bold, 'Gill Sans';letter-spacing:-0.04em;stroke-width:0.938083"
       id="text8"
       x="26.316193"
       y="203.22217"><tspan
         x="26.316193"
         y="203.22217"
         id="tspan8"
         style="stroke-width:0.938083">Pitch</tspan></text>
    <text
       transform="scale(0.93808314,1.0660036)"
       style="font-weight:700;font-size:8.44275px;font-family:GillSans-Bold, 'Gill Sans';letter-spacing:-0.04em;stroke-width:0.938083"
       id="text9"
       x="87.960762"
       y="203.11015"><tspan
         x="87.960762"
         y="203.11015"
         id="tspan9"
         style="stroke-width:0.938083">Start Pos.</tspan></text>
    <g
       id="g63-6-2"
       transform="translate(63.25258,77.926818)">
      <path
         d="m 37.67,90.42 c -0.83,0 -1.65,0.07 -2.45,0.17 l -0.39,-2.21 c 0.93,-0.12 1.88,-0.19 2.84,-0.19 0.96,0 1.91,0.07 2.84,0.19 l -0.39,2.21 c -0.81,-0.1 -1.62,-0.17 -2.45,-0.17 z"
         style="stroke-width:0px"
         id="path49-3-1" />
      <path
         d="m 23.18,96.8 -1.73,-1.45 c 1.28,-1.4 2.74,-2.63 4.34,-3.66 l 1.12,1.94 c -1.38,0.9 -2.62,1.96 -3.73,3.16 z"
         style="stroke-width:0px"
         id="path50-0-9" />
      <path
         d="m 28.64,92.63 -1.12,-1.94 c 1.67,-0.87 3.46,-1.53 5.34,-1.96 l 0.39,2.21 c -1.62,0.37 -3.16,0.94 -4.61,1.69 z"
         style="stroke-width:0px"
         id="path51-8-2" />
      <path
         d="m 19.44,102.56 -2.1,-0.76 c 0.73,-1.77 1.69,-3.42 2.83,-4.92 l 1.73,1.45 c -0.98,1.3 -1.82,2.71 -2.46,4.23 z"
         style="stroke-width:0px"
         id="path52-4-4" />
      <path
         d="m 42.09,90.94 0.39,-2.21 c 1.88,0.42 3.67,1.08 5.34,1.95 l -1.12,1.94 c -1.44,-0.74 -2.98,-1.31 -4.6,-1.69 z"
         style="stroke-width:0px"
         id="path53-0-5" />
      <path
         d="M 17.96,109.26 H 15.7 c 0.08,-1.93 0.41,-3.8 0.96,-5.58 l 2.11,0.77 c -0.47,1.53 -0.73,3.15 -0.81,4.81 z"
         style="stroke-width:0px"
         id="path54-4-8" />
      <path
         d="m 18.82,116.06 -2.1,0.76 c -0.57,-1.79 -0.91,-3.65 -1.01,-5.56 h 2.23 c 0.09,1.65 0.39,3.25 0.88,4.8 z"
         style="stroke-width:0px"
         id="path55-6-6" />
      <path
         d="m 21.96,122.14 -1.71,1.44 c -1.15,-1.5 -2.11,-3.14 -2.84,-4.88 l 2.1,-0.77 c 0.64,1.5 1.46,2.91 2.45,4.2 z"
         style="stroke-width:0px"
         id="path56-4-2" />
      <path
         d="m 53.45,98.33 1.73,-1.45 c 1.14,1.5 2.1,3.15 2.83,4.92 l -2.1,0.77 c -0.64,-1.52 -1.48,-2.93 -2.46,-4.23 z"
         style="stroke-width:0px"
         id="path57-6-5" />
      <path
         d="m 56.58,104.44 2.11,-0.77 c 0.55,1.78 0.88,3.65 0.96,5.58 h -2.26 c -0.08,-1.66 -0.34,-3.28 -0.81,-4.81 z"
         style="stroke-width:0px"
         id="path58-4-1" />
      <path
         d="m 57.4,111.26 h 2.23 c -0.09,1.91 -0.44,3.78 -1.01,5.56 l -2.1,-0.77 c 0.48,-1.54 0.79,-3.15 0.88,-4.8 z"
         style="stroke-width:0px"
         id="path59-3-3" />
      <path
         d="m 55.84,117.93 2.11,0.77 c -0.73,1.74 -1.69,3.38 -2.84,4.87 l -1.71,-1.44 c 0.99,-1.3 1.81,-2.71 2.45,-4.2 z"
         style="stroke-width:0px"
         id="path60-8-9" />
      <path
         d="m 26.98,126.78 -1.12,1.93 c -1.61,-1.03 -3.05,-2.24 -4.32,-3.62 l 1.71,-1.44 c 1.1,1.18 2.34,2.23 3.72,3.12 z"
         style="stroke-width:0px"
         id="path61-4-7" />
      <path
         d="m 52.09,123.66 1.71,1.44 c -1.27,1.37 -2.71,2.59 -4.32,3.62 l -1.12,-1.93 c 1.38,-0.89 2.62,-1.94 3.72,-3.12 z"
         style="stroke-width:0px"
         id="path62-0-3" />
      <path
         d="m 48.43,93.63 1.12,-1.94 c 1.6,1.03 3.06,2.26 4.34,3.66 L 52.16,96.8 C 51.05,95.6 49.8,94.53 48.42,93.64 Z"
         style="stroke-width:0px"
         id="path63-0-7" />
    </g>
    <g
       id="g63-6-2-0"
       transform="translate(-3.0972742,77.926818)">
      <path
         d="m 37.67,90.42 c -0.83,0 -1.65,0.07 -2.45,0.17 l -0.39,-2.21 c 0.93,-0.12 1.88,-0.19 2.84,-0.19 0.96,0 1.91,0.07 2.84,0.19 l -0.39,2.21 c -0.81,-0.1 -1.62,-0.17 -2.45,-0.17 z"
         style="stroke-width:0px"
         id="path49-3-1-2" />
      <path
         d="m 23.18,96.8 -1.73,-1.45 c 1.28,-1.4 2.74,-2.63 4.34,-3.66 l 1.12,1.94 c -1.38,0.9 -2.62,1.96 -3.73,3.16 z"
         style="stroke-width:0px"
         id="path50-0-9-1" />
      <path
         d="m 28.64,92.63 -1.12,-1.94 c 1.67,-0.87 3.46,-1.53 5.34,-1.96 l 0.39,2.21 c -1.62,0.37 -3.16,0.94 -4.61,1.69 z"
         style="stroke-width:0px"
         id="path51-8-2-8" />
      <path
         d="m 19.44,102.56 -2.1,-0.76 c 0.73,-1.77 1.69,-3.42 2.83,-4.92 l 1.73,1.45 c -0.98,1.3 -1.82,2.71 -2.46,4.23 z"
         style="stroke-width:0px"
         id="path52-4-4-7" />
      <path
         d="m 42.09,90.94 0.39,-2.21 c 1.88,0.42 3.67,1.08 5.34,1.95 l -1.12,1.94 c -1.44,-0.74 -2.98,-1.31 -4.6,-1.69 z"
         style="stroke-width:0px"
         id="path53-0-5-1" />
      <path
         d="M 17.96,109.26 H 15.7 c 0.08,-1.93 0.41,-3.8 0.96,-5.58 l 2.11,0.77 c -0.47,1.53 -0.73,3.15 -0.81,4.81 z"
         style="stroke-width:0px"
         id="path54-4-8-5" />
      <path
         d="m 18.82,116.06 -2.1,0.76 c -0.57,-1.79 -0.91,-3.65 -1.01,-5.56 h 2.23 c 0.09,1.65 0.39,3.25 0.88,4.8 z"
         style="stroke-width:0px"
         id="path55-6-6-5" />
      <path
         d="m 21.96,122.14 -1.71,1.44 c -1.15,-1.5 -2.11,-3.14 -2.84,-4.88 l 2.1,-0.77 c 0.64,1.5 1.46,2.91 2.45,4.2 z"
         style="stroke-width:0px"
         id="path56-4-2-8" />
      <path
         d="m 53.45,98.33 1.73,-1.45 c 1.14,1.5 2.1,3.15 2.83,4.92 l -2.1,0.77 c -0.64,-1.52 -1.48,-2.93 -2.46,-4.23 z"
         style="stroke-width:0px"
         id="path57-6-5-5" />
      <path
         d="m 56.58,104.44 2.11,-0.77 c 0.55,1.78 0.88,3.65 0.96,5.58 h -2.26 c -0.08,-1.66 -0.34,-3.28 -0.81,-4.81 z"
         style="stroke-width:0px"
         id="path58-4-1-6" />
      <path
         d="m 57.4,111.26 h 2.23 c -0.09,1.91 -0.44,3.78 -1.01,5.56 l -2.1,-0.77 c 0.48,-1.54 0.79,-3.15 0.88,-4.8 z"
         style="stroke-width:0px"
         id="path59-3-3-7" />
      <path
         d="m 55.84,117.93 2.11,0.77 c -0.73,1.74 -1.69,3.38 -2.84,4.87 l -1.71,-1.44 c 0.99,-1.3 1.81,-2.71 2.45,-4.2 z"
         style="stroke-width:0px"
         id="path60-8-9-9" />
      <path
         d="m 26.98,126.78 -1.12,1.93 c -1.61,-1.03 -3.05,-2.24 -4.32,-3.62 l 1.71,-1.44 c 1.1,1.18 2.34,2.23 3.72,3.12 z"
         style="stroke-width:0px"
         id="path61-4-7-4" />
      <path
         d="m 52.09,123.66 1.71,1.44 c -1.27,1.37 -2.71,2.59 -4.32,3.62 l -1.12,-1.93 c 1.38,-0.89 2.62,-1.94 3.72,-3.12 z"
         style="stroke-width:0px"
         id="path62-0-3-1" />
      <path
         d="m 48.43,93.63 1.12,-1.94 c 1.6,1.03 3.06,2.26 4.34,3.66 L 52.16,96.8 C 51.05,95.6 49.8,94.53 48.42,93.64 Z"
         style="stroke-width:0px"
         id="path63-0-7-6" />
    </g>
    <g
       id="g63-6-2-0-2"
       transform="translate(129.61922,77.926818)">
      <path
         d="m 37.67,90.42 c -0.83,0 -1.65,0.07 -2.45,0.17 l -0.39,-2.21 c 0.93,-0.12 1.88,-0.19 2.84,-0.19 0.96,0 1.91,0.07 2.84,0.19 l -0.39,2.21 c -0.81,-0.1 -1.62,-0.17 -2.45,-0.17 z"
         style="stroke-width:0px"
         id="path49-3-1-2-0" />
      <path
         d="m 23.18,96.8 -1.73,-1.45 c 1.28,-1.4 2.74,-2.63 4.34,-3.66 l 1.12,1.94 c -1.38,0.9 -2.62,1.96 -3.73,3.16 z"
         style="stroke-width:0px"
         id="path50-0-9-1-4" />
      <path
         d="m 28.64,92.63 -1.12,-1.94 c 1.67,-0.87 3.46,-1.53 5.34,-1.96 l 0.39,2.21 c -1.62,0.37 -3.16,0.94 -4.61,1.69 z"
         style="stroke-width:0px"
         id="path51-8-2-8-4" />
      <path
         d="m 19.44,102.56 -2.1,-0.76 c 0.73,-1.77 1.69,-3.42 2.83,-4.92 l 1.73,1.45 c -0.98,1.3 -1.82,2.71 -2.46,4.23 z"
         style="stroke-width:0px"
         id="path52-4-4-7-5" />
      <path
         d="m 42.09,90.94 0.39,-2.21 c 1.88,0.42 3.67,1.08 5.34,1.95 l -1.12,1.94 c -1.44,-0.74 -2.98,-1.31 -4.6,-1.69 z"
         style="stroke-width:0px"
         id="path53-0-5-1-9" />
      <path
         d="M 17.96,109.26 H 15.7 c 0.08,-1.93 0.41,-3.8 0.96,-5.58 l 2.11,0.77 c -0.47,1.53 -0.73,3.15 -0.81,4.81 z"
         style="stroke-width:0px"
         id="path54-4-8-5-7" />
      <path
         d="m 18.82,116.06 -2.1,0.76 c -0.57,-1.79 -0.91,-3.65 -1.01,-5.56 h 2.23 c 0.09,1.65 0.39,3.25 0.88,4.8 z"
         style="stroke-width:0px"
         id="path55-6-6-5-5" />
      <path
         d="m 21.96,122.14 -1.71,1.44 c -1.15,-1.5 -2.11,-3.14 -2.84,-4.88 l 2.1,-0.77 c 0.64,1.5 1.46,2.91 2.45,4.2 z"
         style="stroke-width:0px"
         id="path56-4-2-8-3" />
      <path
         d="m 53.45,98.33 1.73,-1.45 c 1.14,1.5 2.1,3.15 2.83,4.92 l -2.1,0.77 c -0.64,-1.52 -1.48,-2.93 -2.46,-4.23 z"
         style="stroke-width:0px"
         id="path57-6-5-5-9" />
      <path
         d="m 56.58,104.44 2.11,-0.77 c 0.55,1.78 0.88,3.65 0.96,5.58 h -2.26 c -0.08,-1.66 -0.34,-3.28 -0.81,-4.81 z"
         style="stroke-width:0px"
         id="path58-4-1-6-0" />
      <path
         d="m 57.4,111.26 h 2.23 c -0.09,1.91 -0.44,3.78 -1.01,5.56 l -2.1,-0.77 c 0.48,-1.54 0.79,-3.15 0.88,-4.8 z"
         style="stroke-width:0px"
         id="path59-3-3-7-5" />
      <path
         d="m 55.84,117.93 2.11,0.77 c -0.73,1.74 -1.69,3.38 -2.84,4.87 l -1.71,-1.44 c 0.99,-1.3 1.81,-2.71 2.45,-4.2 z"
         style="stroke-width:0px"
         id="path60-8-9-9-5" />
      <path
         d="m 26.98,126.78 -1.12,1.93 c -1.61,-1.03 -3.05,-2.24 -4.32,-3.62 l 1.71,-1.44 c 1.1,1.18 2.34,2.23 3.72,3.12 z"
         style="stroke-width:0px"
         id="path61-4-7-4-6" />
      <path
         d="m 52.09,123.66 1.71,1.44 c -1.27,1.37 -2.71,2.59 -4.32,3.62 l -1.12,-1.93 c 1.38,-0.89 2.62,-1.94 3.72,-3.12 z"
         style="stroke-width:0px"
         id="path62-0-3-1-3" />
      <path
         d="m 48.43,93.63 1.12,-1.94 c 1.6,1.03 3.06,2.26 4.34,3.66 L 52.16,96.8 C 51.05,95.6 49.8,94.53 48.42,93.64 Z"
         style="stroke-width:0px"
         id="path63-0-7-6-2" />
    </g>
    <text
       transform="scale(0.93808314,1.0660036)"
       style="font-weight:700;font-size:8.44275px;font-family:GillSans-Bold, 'Gill Sans';letter-spacing:-0.04em;stroke-width:0.938083"
       id="text78"
       x="165.78949"
       y="203.11015"><tspan
         x="165.78949"
         y="203.11015"
         id="tspan78"
         style="stroke-width:0.938083">Length</tspan></text>
    <text
       transform="scale(0.90553849,1.1043153)"
       style="font-weight:700;font-size:9.96092px;font-family:GillSans-Bold, 'Gill Sans';stroke-width:0.905538"
       id="text79"
       x="34.007793"
       y="323.48215"><tspan
         sodipodi:role="line"
         id="tspan194"
         x="34.007793"
         y="323.48215"
         style="stroke-width:0.905538"><tspan
           x="34.007793"
           y="323.48215"
           id="tspan79"
           style="stroke-width:0.905538">TRIGGERED SAMPLE PLAYER</tspan></tspan></text>
    <g
       id="g81"
       transform="translate(-42.80273,-0.59796097)">
      <path
         d="m 150.73,8.93 c 0,0 -4.37,5.55 -6.92,8.79 v -7.53 c 0,-0.65 -0.32,-1.23 -0.8,-1.47 -0.49,-0.24 -1.05,-0.09 -1.41,0.37 l -9.09,11.56 c -0.49,0.63 -0.48,1.63 0.04,2.24 0.51,0.6 1.33,0.59 1.82,-0.04 0,0 4.34,-5.51 6.87,-8.73 v 7.53 c 0,0.65 0.32,1.23 0.81,1.47 0.49,0.24 1.05,0.1 1.41,-0.37 0,0 4.37,-5.56 6.91,-8.79 v 7.69 c 0,0.88 0.57,1.58 1.29,1.58 0.72,0 1.29,-0.71 1.29,-1.58 V 10.04 c 0,-0.65 -0.32,-1.23 -0.81,-1.47 -0.49,-0.24 -1.04,-0.1 -1.41,0.37 z"
         style="stroke:#000000;stroke-width:0.96px"
         id="path79" />
      <path
         d="m 132.5,8.84 -6.02,7.66 c -0.5,0.63 -0.48,1.63 0.03,2.24 0.52,0.61 1.33,0.59 1.83,-0.04 0,0 2.03,-2.58 3.81,-4.84 v 7.88 c 0,0.87 0.57,1.58 1.29,1.58 0.72,0 1.29,-0.71 1.29,-1.58 V 9.94 c 0,-0.65 -0.32,-1.23 -0.81,-1.47 -0.49,-0.24 -1.05,-0.09 -1.41,0.37 z"
         style="stroke:#000000;stroke-width:0.96px"
         id="path80" />
      <path
         d="m 161.18,14.49 c -0.2,-0.58 -0.67,-0.96 -1.19,-0.96 h -2.63 l 1.92,-2.44 c 0,0 1,-1.47 0.11,-2.27 -0.88,-0.81 -1.97,0.08 -1.97,0.08 l -4.03,5.12 c -0.36,0.46 -0.46,1.13 -0.26,1.72 0.2,0.58 0.67,0.96 1.19,0.96 h 2.63 l -3.12,3.96 c 0,0 -1.29,1.41 -0.34,2.36 0.96,0.96 2.2,-0.17 2.2,-0.17 l 5.22,-6.64 c 0.36,-0.46 0.46,-1.13 0.26,-1.72 z"
         style="stroke:#000000;stroke-width:0.96px"
         id="path81" />
    </g>
    <text
       transform="scale(0.93808314,1.0660036)"
       style="font-weight:600;font-size:5.6285px;font-family:GillSans-SemiBold, 'Gill Sans';letter-spacing:-0.04em;stroke-width:0.938083"
       id="text111"
       x="193.66644"
       y="196.27473"><tspan
         x="193.66644"
         y="196.27473"
         id="tspan111"
         style="stroke-width:0.938083">All</tspan></text>
    <path
       d="m 147.60117,209.34763 v -6.36 c 0,0 -0.35,6.39 5.35,6.36"
       style="fill:none;stroke:#231f20;stroke-linecap:square"
       id="path151" />
    <g
       id="g153"
       transform="translate(-55.417253,-48.106088)">
      <text
         transform="scale(0.93808314,1.0660036)"
         style="font-weight:600;font-size:7.50467px;font-family:GillSans-SemiBold, 'Gill Sans';letter-spacing:-0.04em;stroke-width:0.938083"
         id="text152"
         x="133.6058"
         y="284.49249"><tspan
           x="133.6058"
           y="284.49249"
           id="tspan152"
           style="stroke-width:0.938083">Reverse</tspan></text>
    </g>
    <rect
       id="Screen"
       x="8.1527081"
       y="93.593407"
       width="185.56653"
       height="68.501511"
       style="stroke-width:0px" />
    <text
       xml:space="preserve"
       style="font-style:normal;font-weight:normal;font-size:30.0018px;line-height:1.25;font-family:sans-serif;fill:#000000;fill-opacity:1;stroke:none;stroke-width:0.750044"
       x="173.63173"
       y="329.53284"
       id="text195"><tspan
         sodipodi:role="line"
         id="tspan195"
         style="stroke-width:0.750044"
         x="173.63173"
         y="329.53284" /></text>
    <text
       transform="scale(0.93808314,1.0660036)"
       style="font-weight:700;font-size:8.44275px;font-family:GillSans-Bold, 'Gill Sans';letter-spacing:-0.04em;stroke-width:0.938083"
       id="text12-5"
       x="155.5304"
       y="80.371223"><tspan
         x="155.5304"
         y="80.371223"
         id="tspan12-4"
         style="stroke-width:0.938083">Sample</tspan></text>
    <path
       sodipodi:type="star"
       style="fill:#000000;stroke-width:0.751222"
       id="path195-1-1"
       inkscape:flatsided="false"
       sodipodi:sides="3"
       sodipodi:cx="38.58136"
       sodipodi:cy="66.069038"
       sodipodi:r1="6.0700049"
       sodipodi:r2="3.0350025"
       sodipodi:arg1="-1.0617254"
       sodipodi:arg2="-0.014527887"
       inkscape:rounded="0"
       inkscape:randomized="0"
       d="m 41.539675,60.768724 0.07637,5.256224 0.07637,5.256224 -4.590207,-2.561976 -4.590207,-2.561977 4.51384,-2.694247 z"
       transform="matrix(0.75004441,0,0,0.75004441,101.26094,-14.101451)"
       inkscape:transform-center-x="-28.800596"
       inkscape:transform-center-y="-7.3480235" />
    <path
       sodipodi:type="star"
       style="fill:#000000;stroke-width:0.751222"
       id="path195-1-1-6"
       inkscape:flatsided="false"
       sodipodi:sides="3"
       sodipodi:cx="38.58136"
       sodipodi:cy="66.069038"
       sodipodi:r1="6.0700049"
       sodipodi:r2="3.0350025"
       sodipodi:arg1="-1.0617254"
       sodipodi:arg2="-0.014527887"
       inkscape:rounded="0"
       inkscape:randomized="0"
       d="m 41.539675,60.768724 0.07637,5.256224 0.07637,5.256224 -4.590207,-2.561976 -4.590207,-2.561977 4.51384,-2.694247 z"
       transform="matrix(0.75004441,0,0,0.75004441,101.26094,19.01915)"
       inkscape:transform-center-x="-28.800596"
       inkscape:transform-center-y="-7.3480235" />
    <path
       sodipodi:type="star"
       style="fill:#000000;stroke-width:0.751222"
       id="path195-1-1-1"
       inkscape:flatsided="false"
       sodipodi:sides="3"
       sodipodi:cx="38.58136"
       sodipodi:cy="66.069038"
       sodipodi:r1="6.0700049"
       sodipodi:r2="3.0350025"
       sodipodi:arg1="-1.0617254"
       sodipodi:arg2="-0.014527887"
       inkscape:rounded="0"
       inkscape:randomized="0"
       d="m 41.539675,60.768724 0.07637,5.256224 0.07637,5.256224 -4.590207,-2.561976 -4.590207,-2.561977 4.51384,-2.694247 z"
       transform="matrix(-0.75004441,0,0,-0.75004441,216.44931,118.06244)"
       inkscape:transform-center-x="28.800595"
       inkscape:transform-center-y="7.3480238" />
    <path
       sodipodi:type="star"
       style="fill:#000000;stroke-width:0.751222"
       id="path195-1-1-6-5"
       inkscape:flatsided="false"
       sodipodi:sides="3"
       sodipodi:cx="38.58136"
       sodipodi:cy="66.069038"
       sodipodi:r1="6.0700049"
       sodipodi:r2="3.0350025"
       sodipodi:arg1="-1.0617254"
       sodipodi:arg2="-0.014527887"
       inkscape:rounded="0"
       inkscape:randomized="0"
       d="m 41.539675,60.768724 0.07637,5.256224 0.07637,5.256224 -4.590207,-2.561976 -4.590207,-2.561977 4.51384,-2.694247 z"
       transform="matrix(-0.75004441,0,0,-0.75004441,216.44931,84.941835)"
       inkscape:transform-center-x="28.800595"
       inkscape:transform-center-y="7.3480238" />
    <path
       sodipodi:type="star"
       style="fill:#000000;stroke-width:0.751222"
       id="path195-17-1"
       inkscape:flatsided="false"
       sodipodi:sides="3"
       sodipodi:cx="38.58136"
       sodipodi:cy="66.069038"
       sodipodi:r1="6.0700049"
       sodipodi:r2="3.0350025"
       sodipodi:arg1="-1.0617254"
       sodipodi:arg2="-0.014527887"
       inkscape:rounded="0"
       inkscape:randomized="0"
       d="m 41.539675,60.768724 0.07637,5.256224 0.07637,5.256224 -4.590207,-2.561976 -4.590207,-2.561977 4.51384,-2.694247 z"
       transform="matrix(0.57410324,0,0,0.57410324,99.558601,213.95082)"
       inkscape:transform-center-x="0.84918757"
       inkscape:transform-center-y="-0.025315068" />
    <path
       sodipodi:type="star"
       style="fill:#000000;stroke-width:0.751222"
       id="path195-1-1-0"
       inkscape:flatsided="false"
       sodipodi:sides="3"
       sodipodi:cx="38.58136"
       sodipodi:cy="66.069038"
       sodipodi:r1="6.0700049"
       sodipodi:r2="3.0350025"
       sodipodi:arg1="-1.0617254"
       sodipodi:arg2="-0.014527887"
       inkscape:rounded="0"
       inkscape:randomized="0"
       d="m 41.539675,60.768724 0.07637,5.256224 0.07637,5.256224 -4.590207,-2.561976 -4.590207,-2.561977 4.51384,-2.694247 z"
       transform="matrix(-0.57410324,0,0,-0.57410324,182.88774,289.76108)"
       inkscape:transform-center-x="-0.84918606"
       inkscape:transform-center-y="0.025308818" />
    <path
       sodipodi:type="star"
       style="fill:#000000;stroke-width:0.751222"
       id="path195-17-1-8"
       inkscape:flatsided="false"
       sodipodi:sides="3"
       sodipodi:cx="38.58136"
       sodipodi:cy="66.069038"
       sodipodi:r1="6.0700049"
       sodipodi:r2="3.0350025"
       sodipodi:arg1="-1.0617254"
       sodipodi:arg2="-0.014527887"
       inkscape:rounded="0"
       inkscape:randomized="0"
       d="m 41.539675,60.768724 0.07637,5.256224 0.07637,5.256224 -4.590207,-2.561976 -4.590207,-2.561977 4.51384,-2.694247 z"
       transform="matrix(0.57410324,0,0,0.57410324,117.58024,248.01845)"
       inkscape:transform-center-x="0.84918757"
       inkscape:transform-center-y="-0.025315068" />
    <path
       sodipodi:type="star"
       style="fill:#000000;stroke-width:0.751222"
       id="path195-1-1-0-4"
       inkscape:flatsided="false"
       sodipodi:sides="3"
       sodipodi:cx="38.58136"
       sodipodi:cy="66.069038"
       sodipodi:r1="6.0700049"
       sodipodi:r2="3.0350025"
       sodipodi:arg1="-1.0617254"
       sodipodi:arg2="-0.014527887"
       inkscape:rounded="0"
       inkscape:randomized="0"
       d="m 41.539675,60.768724 0.07637,5.256224 0.07637,5.256224 -4.590207,-2.561976 -4.590207,-2.561977 4.51384,-2.694247 z"
       transform="matrix(-0.57410324,0,0,-0.57410324,200.90938,323.82871)"
       inkscape:transform-center-x="-0.84918606"
       inkscape:transform-center-y="0.025308818" />
  </g>
  <g
     id="components"
     transform="translate(4.0146346,0.64365888)"
     style="display:inline">
    <circle
       id="Play_Light_WhiteLight"
       data-name="Play Light#WhiteLight"
       cx="69.499123"
       cy="316.51331"
       r="4.25"
       style="fill:#ff00ff;stroke-width:0px" />
    <circle
       id="End_Out"
       data-name="End Out"
       cx="157.52048"
       cy="316.37024"
       r="11.34"
       style="fill:#0000ff;stroke-width:0px" />
    <circle
       id="Right_Out"
       data-name="Right Out"
       cx="96.791336"
       cy="316.37024"
       r="11.34"
       style="fill:#0000ff;stroke-width:0px" />
    <circle
       id="Left_Out"
       data-name="Left Out"
       cx="42.206913"
       cy="316.37024"
       r="11.34"
       style="fill:#0000ff;stroke-width:0px" />
    <circle
       id="Next_Sample_Trig"
       data-name="Next Sample Trig"
       cx="174.45139"
       cy="270.13559"
       r="11.34"
       style="fill:#80ff80;stroke-width:0px" />
    <circle
       id="Prev_Sample_Trig"
       data-name="Prev. Sample Trig"
       cx="135.62135"
       cy="270.13559"
       r="11.34"
       style="fill:#80ff80;stroke-width:0px" />
    <circle
       id="Start_Pos_CV"
       data-name="Start Pos CV"
       cx="96.791344"
       cy="269.99557"
       r="11.34"
       style="fill:#00ff00;stroke-width:0px" />
    <circle
       id="Length_CV"
       data-name="Length CV"
       cx="57.961311"
       cy="270.13559"
       r="11.34"
       style="fill:#00ff00;stroke-width:0px" />
    <circle
       id="Next_Bank_Trig"
       data-name="Next Bank Trig"
       cx="156.45029"
       cy="235.82634"
       r="11.34"
       style="fill:#80ff80;stroke-width:0px" />
    <circle
       id="Prev_Bank_Trig"
       data-name="Prev. Bank Trig"
       cx="117.62025"
       cy="235.57567"
       r="11.34"
       style="fill:#80ff80;stroke-width:0px" />
    <circle
       id="Reverse_Trig"
       data-name="Reverse Trig"
       cx="77.376328"
       cy="235.57567"
       r="11.34"
       style="fill:#80ff80;stroke-width:0px" />
    <circle
       id="Pitch_V_oct"
       data-name="Pitch V/oct"
       cx="19.131285"
       cy="270.13559"
       r="11.34"
       style="fill:#00ff00;stroke-width:0px" />
    <circle
       id="Play_Trig"
       data-name="Play Trig"
       cx="38.546299"
       cy="235.57567"
       r="11.34"
       style="fill:#80ff80;stroke-width:0px" />
    <circle
       id="Prev_Sample"
       data-name="Prev Sample"
       cx="138.79547"
       cy="69.468475"
       r="8.5"
       style="display:inline;fill:#ffc000;stroke-width:0px" />
    <circle
       id="Next_Bank"
       data-name="Next Bank"
       cx="170.99039"
       cy="34.942142"
       r="8.5"
       style="fill:#ffc000;stroke-width:0px" />
    <circle
       id="Next_Sample"
       data-name="Next Sample"
       cx="170.99039"
       cy="68.331779"
       r="8.5"
       style="display:inline;fill:#ffc000;stroke-width:0px" />
    <circle
       id="Prev_Bank"
       data-name="Prev Bank"
       cx="138.79547"
       cy="36.078838"
       r="8.5"
       style="fill:#ffc000;stroke-width:0px" />
    <circle
       id="Length"
       data-name="Length"
       cx="163.19188"
       cy="187.85403"
       r="17.01"
       style="fill:#ff0000;stroke-width:0px" />
    <circle
       id="StartPos"
       data-name="StartPos"
       cx="96.639549"
       cy="187.85403"
       r="17.01"
       style="fill:#ff0040;stroke-width:0px" />
    <circle
       id="Pitch"
       data-name="Pitch"
       cx="30.500608"
       cy="187.85403"
       r="17.01"
       style="fill:#ff0080;stroke-width:0px" />
    <circle
       id="Reverse"
       data-name="Reverse#MomentaryRGB7mm"
       cx="86.555771"
       cy="53.154644"
       r="8.5"
       style="fill:#ffc000;stroke-width:0px" />
    <circle
       id="Loop"
       data-name="Loop#MomentaryRGB7mm"
       cx="54.733532"
       cy="53.154644"
       r="8.5"
       style="display:inline;fill:#ffc000;stroke-width:0px" />
    <circle
       id="Play_Button"
       data-name="Play#MomentaryRGB7mm"
       cx="22.389002"
       cy="53.154644"
       r="10.63"
       style="fill:#ffc000;stroke-width:0px" />
    <text
       id="slug"
       style="font-size:6px;font-family:MyriadPro-Regular, 'Myriad Pro';display:none"
       x="106.92887"
       y="6.466085">TSP</text>
    <text
       id="modulename"
       style="font-size:6px;font-family:MyriadPro-Regular, 'Myriad Pro';display:none"
       x="122.39887"
       y="6.466085">Triggered Sample Player</text>
    <rect
       id="Screen_STSPDisplay"
       data-name="Screen#STSPDisplay"
       x="4.655302"
       y="94.155624"
       width="184.8932"
       height="68.310043"
       style="fill:#0000ff;stroke-width:0px" />
    <rect
       id="LoadSample_LoadSample"
       data-name="LoadSample@LoadSample"
       x="5.9590406"
       y="94.443352"
       width="27.67"
       height="12.611747"
       style="fill:#808080;stroke-width:0px" />
  </g>
</svg>
