<?xml version="1.0" encoding="UTF-8" standalone="no"?>
<svg
   width="19.985126mm"
   height="128.39998mm"
   viewBox="0 0 56.654108 363.96648"
   version="1.1"
   id="svg192"
   sodipodi:docname="TSP.svg"
   inkscape:version="1.4 (e7c3feb1, 2024-10-09)"
   xmlns:inkscape="http://www.inkscape.org/namespaces/inkscape"
   xmlns:sodipodi="http://sodipodi.sourceforge.net/DTD/sodipodi-0.dtd"
   xmlns="http://www.w3.org/2000/svg"
   xmlns:svg="http://www.w3.org/2000/svg">
  <defs
     id="defs192" />
  <sodipodi:namedview
     id="namedview192"
     pagecolor="#ffffff"
     bordercolor="#666666"
     borderopacity="1.0"
     inkscape:showpageshadow="2"
     inkscape:pageopacity="0.0"
     inkscape:pagecheckerboard="0"
     inkscape:deskcolor="#d1d1d1"
     inkscape:document-units="mm"
     inkscape:zoom="1.4585466"
     inkscape:cx="239.6221"
     inkscape:cy="334.57964"
     inkscape:window-width="1880"
     inkscape:window-height="1387"
     inkscape:window-x="48"
     inkscape:window-y="25"
     inkscape:window-maximized="0"
     inkscape:current-layer="components"
     showguides="true"
     showgrid="false" />
  <g
     id="faceplate"
     transform="translate(-0.13000396,0.64468533)">
    <g
       id="g1"
       transform="matrix(0.28099716,0,0,1,0.09347322,0)">
      <rect
         x="0.13000396"
         y="-0.65644443"
         width="201.61807"
         height="363.98999"
         style="fill:#ededed;stroke-width:0px"
         id="rect1" />
    </g>
    <rect
       x="2.041301"
       y="239.1584"
       width="53.404583"
       height="78.506821"
       rx="7.0910516"
       ry="7.9138503"
       style="stroke:#000000;stroke-width:0.797139"
       id="rect2" />
    <text
       transform="scale(0.93808314,1.0660036)"
       style="font-weight:700;font-size:8.44275px;font-family:GillSans-Bold, 'Gill Sans';letter-spacing:-0.04em;fill:#ffffff;stroke-width:0.938083"
       id="text15"
       x="19.694611"
       y="293.58231"><tspan
         x="19.694611"
         y="293.58231"
         id="tspan15"
         style="stroke-width:0.938083">OUT</tspan></text>
    <text
       transform="scale(0.93808314,1.0660036)"
       style="font-weight:600;font-size:7.50467px;font-family:GillSans-SemiBold, 'Gill Sans';letter-spacing:-0.04em;fill:#ffffff;stroke-width:0.938083"
       id="text16"
       x="46.928795"
       y="293.65649"><tspan
         x="46.928795"
         y="293.65649"
         id="tspan16"
         style="stroke-width:0.938083">R</tspan></text>
    <text
       transform="scale(0.93808314,1.0660036)"
       style="font-weight:600;font-size:7.50467px;font-family:GillSans-SemiBold, 'Gill Sans';letter-spacing:-0.04em;fill:#ffffff;stroke-width:0.938083"
       id="text17"
       x="8.6386805"
       y="293.65649"><tspan
         x="8.6386805"
         y="293.65649"
         id="tspan17"
         style="stroke-width:0.938083">L</tspan></text>
    <text
       transform="scale(0.93808314,1.0660036)"
       style="font-weight:700;font-size:8.44275px;font-family:GillSans-Bold, 'Gill Sans';letter-spacing:-0.04em;stroke-width:0.938083"
       id="text30-1"
       x="19.737274"
       y="138.51193"><tspan
         x="19.737274"
         y="138.51193"
         id="tspan30-7"
         style="stroke-width:0.938083">Loop</tspan></text>
    <text
       transform="scale(0.93808314,1.0660036)"
       style="font-weight:700;font-size:8.44275px;font-family:GillSans-Bold, 'Gill Sans';letter-spacing:-0.04em;stroke-width:0.938083"
       id="text30-1-8"
       x="19.737274"
       y="217.56543"><tspan
         x="19.737274"
         y="217.56543"
         id="tspan30-7-1"
         style="stroke-width:0.938083">Loop</tspan></text>
    <text
       transform="scale(0.93808314,1.0660036)"
       style="font-weight:600;font-size:7.50467px;font-family:GillSans-SemiBold, 'Gill Sans';letter-spacing:-0.04em;fill:#ffffff;stroke-width:0.938083"
       id="text31"
       x="16.988363"
       y="257.49332"><tspan
         x="16.988363"
         y="257.49332"
         id="tspan31"
         style="stroke-width:0.938083">End Out</tspan></text>
    <text
       transform="scale(0.93808314,1.0660036)"
       style="font-weight:700;font-size:8.44275px;font-family:GillSans-Bold, 'Gill Sans';letter-spacing:-0.04em;stroke-width:0.938083"
       id="text33"
       x="18.552074"
       y="105.12711"><tspan
         x="18.552074"
         y="105.12711"
         id="tspan33"
         style="stroke-width:0.938083">PLAY</tspan></text>
    <text
       transform="scale(0.93808314,1.0660036)"
       style="font-weight:700;font-size:8.44275px;font-family:GillSans-Bold, 'Gill Sans';letter-spacing:-0.04em;stroke-width:0.938083"
       id="text33-8"
       x="18.552074"
       y="177.45044"><tspan
         x="18.552074"
         y="177.45044"
         id="tspan33-6"
         style="stroke-width:0.938083">PLAY</tspan></text>
    <text
       transform="scale(0.90553849,1.1043153)"
       style="font-weight:700;font-size:9.96092px;font-family:GillSans-Bold, 'Gill Sans';stroke-width:0.905538"
       id="text79"
       x="9.4515858"
       y="303.00201"><tspan
         sodipodi:role="line"
         x="9.4515858"
         y="303.00201"
         style="stroke-width:0.905538"
         id="tspan1">SAMPLE</tspan></text>
    <text
       transform="scale(0.90553849,1.1043153)"
       style="font-weight:700;font-size:9.96092px;font-family:GillSans-Bold, 'Gill Sans';stroke-width:0.905538"
       id="text79-3"
       x="10.305155"
       y="314.21082"><tspan
         sodipodi:role="line"
         x="10.305155"
         y="314.21082"
         style="stroke-width:0.905538"
         id="tspan1-9">PLAYER</tspan></text>
    <g
       id="g81"
       transform="matrix(0.78542749,0,0,0.78542749,-84.559936,7.2940146)">
      <path
         d="m 150.73,8.93 c 0,0 -4.37,5.55 -6.92,8.79 v -7.53 c 0,-0.65 -0.32,-1.23 -0.8,-1.47 -0.49,-0.24 -1.05,-0.09 -1.41,0.37 l -9.09,11.56 c -0.49,0.63 -0.48,1.63 0.04,2.24 0.51,0.6 1.33,0.59 1.82,-0.04 0,0 4.34,-5.51 6.87,-8.73 v 7.53 c 0,0.65 0.32,1.23 0.81,1.47 0.49,0.24 1.05,0.1 1.41,-0.37 0,0 4.37,-5.56 6.91,-8.79 v 7.69 c 0,0.88 0.57,1.58 1.29,1.58 0.72,0 1.29,-0.71 1.29,-1.58 V 10.04 c 0,-0.65 -0.32,-1.23 -0.81,-1.47 -0.49,-0.24 -1.04,-0.1 -1.41,0.37 z"
         style="stroke:#000000;stroke-width:0.96px"
         id="path79" />
      <path
         d="m 132.5,8.84 -6.02,7.66 c -0.5,0.63 -0.48,1.63 0.03,2.24 0.52,0.61 1.33,0.59 1.83,-0.04 0,0 2.03,-2.58 3.81,-4.84 v 7.88 c 0,0.87 0.57,1.58 1.29,1.58 0.72,0 1.29,-0.71 1.29,-1.58 V 9.94 c 0,-0.65 -0.32,-1.23 -0.81,-1.47 -0.49,-0.24 -1.05,-0.09 -1.41,0.37 z"
         style="stroke:#000000;stroke-width:0.96px"
         id="path80" />
      <path
         d="m 161.18,14.49 c -0.2,-0.58 -0.67,-0.96 -1.19,-0.96 h -2.63 l 1.92,-2.44 c 0,0 1,-1.47 0.11,-2.27 -0.88,-0.81 -1.97,0.08 -1.97,0.08 l -4.03,5.12 c -0.36,0.46 -0.46,1.13 -0.26,1.72 0.2,0.58 0.67,0.96 1.19,0.96 h 2.63 l -3.12,3.96 c 0,0 -1.29,1.41 -0.34,2.36 0.96,0.96 2.2,-0.17 2.2,-0.17 l 5.22,-6.64 c 0.36,-0.46 0.46,-1.13 0.26,-1.72 z"
         style="stroke:#000000;stroke-width:0.96px"
         id="path81" />
    </g>
    <rect
       id="Screen"
       x="3.0994134"
       y="29.262314"
       width="50.913734"
       height="47.083603"
       style="stroke-width:0px" />
    <text
       xml:space="preserve"
       style="font-style:normal;font-weight:normal;font-size:30.0018px;line-height:1.25;font-family:sans-serif;fill:#000000;fill-opacity:1;stroke:none;stroke-width:0.750044"
       x="173.63173"
       y="329.53284"
       id="text195"><tspan
         sodipodi:role="line"
         id="tspan195"
         style="stroke-width:0.750044"
         x="173.63173"
         y="329.53284" /></text>
  </g>
  <g
     id="components"
     transform="translate(4.0146306,0.64468533)"
     style="display:inline">
    <circle
       id="BusyLight"
       data-name="Busy Light#RedLight"
       cx="3.142364"
       cy="85.581871"
       r="4.25"
       style="fill:#ff00ff;stroke-width:0px" />
    <circle
       id="End_Out"
       data-name="End Out"
       cx="24.191759"
       cy="253.12503"
       r="11.34"
       style="fill:#0000ff;stroke-width:0px" />
    <circle
       id="Right_Out"
       data-name="Right Out"
       cx="37.956245"
       cy="291.3165"
       r="11.34"
       style="fill:#0000ff;stroke-width:0px" />
    <circle
       id="Left_Out"
       data-name="Left Out"
       cx="11.644905"
       cy="291.03357"
       r="11.34"
       style="fill:#0000ff;stroke-width:0px" />
    <circle
       id="Loop_Gate_In"
       data-name="Loop Gate"
       cx="24.191759"
       cy="209.80101"
       r="11.34"
       style="fill:#80ff80;stroke-width:0px" />
    <circle
       id="Play_Trig"
       data-name="Play Trig"
       cx="24.191759"
       cy="166.70229"
       r="11.34"
       style="fill:#80ff80;stroke-width:0px" />
    <circle
       id="Loop"
       data-name="Loop#MomentaryRGB7mm"
       cx="24.191759"
       cy="127.87841"
       r="8.5"
       style="display:inline;fill:#ffc000;stroke-width:0px" />
    <circle
       id="Play_Button"
       data-name="Play#MomentaryRGB7mm"
       cx="24.191759"
       cy="90.114334"
       r="10.63"
       style="fill:#ffc000;stroke-width:0px" />
    <text
       id="slug"
       style="font-size:6px;font-family:MyriadPro-Regular, 'Myriad Pro';display:none"
       x="106.92887"
       y="6.466085">TSP</text>
    <text
       id="modulename"
       style="font-size:6px;font-family:MyriadPro-Regular, 'Myriad Pro';display:none"
       x="122.39887"
       y="6.466085">Sample Player</text>
    <rect
       id="Screen_TSPDisplay"
       data-name="Screen#TSPDisplay"
       x="-1.1904265"
       y="29.587372"
       width="51.073311"
       height="46.654541"
       style="fill:#0000ff;stroke-width:0px" />
    <rect
       id="LoadSample_LoadSample"
       data-name="LoadSample@LoadSample"
       x="9.1193247"
       y="30.757917"
       width="27.67"
       height="12.611747"
       style="fill:#808080;stroke-width:0px" />
  </g>
</svg>
